<svg width="186" height="107" viewBox="0 0 186 107" fill="none" xmlns="http://www.w3.org/2000/svg">
<g opacity="0.6">
<path opacity="0.6" d="M11.8238 77.094C18.5218 78.5169 24.3921 74.4946 32.1716 69.1503C36.5582 66.1351 38.8288 63.7883 40.5806 61.1473C42.1575 58.7678 42.9532 56.6854 43.4516 55.3337C46.6753 46.6237 49.4968 36.1045 50.7064 31.4435C45.1363 28.2767 38.1613 24.8961 29.8573 22.0858C21.9379 19.4033 14.6977 17.8793 8.59715 17C7.32341 20.4995 5.5425 25.6061 3.63335 31.8831C1.71545 38.1929 0.750668 41.419 0.322201 44.972C-0.470608 51.5788 0.34261 56.4596 1.21995 61.7028C2.7735 71.007 4.85754 73.2232 5.67658 73.9985C8.06958 76.2592 10.7978 76.8771 11.8238 77.094Z" fill="#A460FF"/>
<path opacity="0.6" d="M7.49802 49.7816C8.0285 49.5261 8.96413 53.0464 12.6046 55.5625C13.2226 55.9903 16.0644 57.8708 19.8798 57.8559C24.9777 57.8381 28.0877 54.4485 28.4929 55.013C28.9476 55.6487 25.071 60.0631 19.7428 62.6773C15.942 64.5429 14.3681 64.0349 13.858 63.8329C13.1555 63.5537 12.08 62.8942 10.2379 58.9848C8.32872 54.9298 6.87135 50.0816 7.49802 49.7816Z" fill="#7031C3"/>
<path opacity="0.6" d="M7.08137 33.6655C6.96186 33.1932 11.5963 29.7234 14.4994 31.8356C16.8049 33.5111 16.5747 37.6462 15.9888 37.8661C15.4875 38.0562 14.9832 35.2786 12.5174 33.9893C9.90575 32.6258 7.16881 34.019 7.08137 33.6655Z" fill="#7031C3"/>
<path opacity="0.6" d="M39.3679 43.8491C39.7294 43.5283 37.8289 37.9969 34.2613 38.0682C31.4311 38.1246 29.3296 41.6687 29.6881 42.1856C29.997 42.6312 31.9528 40.6289 34.7014 40.9884C37.6133 41.3686 39.0969 44.0898 39.3679 43.8491Z" fill="#7031C3"/>
</g>
<g opacity="0.6">
<path opacity="0.6" d="M92.3383 106.262C97.1301 105.13 99.4648 100.306 102.554 93.8978C104.295 90.2854 104.918 87.8435 105.105 85.3541C105.271 83.1112 105.044 81.3407 104.886 80.197C103.866 72.8148 101.948 64.2504 101.074 60.4657C96.3869 59.9637 90.7236 59.7617 84.4131 60.4033C78.3942 61.0153 73.2176 62.2481 69 63.582C69.4226 66.5408 70.0901 70.8304 71.0899 76.0172C72.0954 81.2278 72.6201 83.8896 73.6024 86.6107C75.4328 91.6757 77.683 94.9613 80.0993 98.4964C84.3869 104.765 86.5059 105.7 87.3046 106C89.6393 106.868 91.6038 106.434 92.3383 106.262Z" fill="#7E3DCE"/>
<path opacity="0.6" d="M79.9006 87.787C80.1513 87.4305 81.9963 89.6882 85.2171 90.3418C85.7651 90.4517 88.2514 90.9032 90.6852 89.6585C93.9409 87.9949 94.7338 84.5222 95.1943 84.8044C95.7102 85.1193 94.792 89.5872 92.3058 93.2115C90.5336 95.7989 89.3444 95.9385 88.9451 95.9564C88.3942 95.9801 87.4731 95.8494 84.9111 93.6006C82.2557 91.2657 79.6062 88.2088 79.9006 87.787Z" fill="#7031C3"/>
<path opacity="0.6" d="M73.9287 76.1955C73.6838 75.8895 75.4239 71.8672 78.0326 72.4643C80.1021 72.9366 81.4166 76.0202 81.1223 76.3707C80.8687 76.6708 79.5629 74.8111 77.5284 74.6745C75.3686 74.5259 74.1094 76.4242 73.9287 76.1955Z" fill="#7031C3"/>
<path opacity="0.6" d="M98.2059 73.1595C98.3224 72.809 95.1483 69.3986 92.8894 70.6047C91.0968 71.5613 91.0064 74.8201 91.4203 75.0815C91.7759 75.3043 92.3181 73.2159 94.2068 72.5862C96.2034 71.9237 98.1184 73.4239 98.2059 73.1595Z" fill="#7031C3"/>
</g>
<path opacity="0.6" d="M170.223 37.6966C171.582 39.7762 174.525 39.0374 178.885 41.5492C179.323 41.8004 186.909 46.2846 185.611 51.1457C185.039 53.2881 182.748 55.4895 179.979 55.9549C174.025 56.956 166.258 49.8713 165.004 42.8346C164.623 40.6886 164.859 38.6237 167.66 32.0451C173.945 17.2736 180.606 9.18057 177.812 7.01601C176.826 6.25509 175.844 7.13791 171.665 6.46934C166.983 5.71581 162.761 3.72854 163.011 2.95285C163.203 2.35076 165.87 3.13384 170.364 2.46896C176.311 1.58984 178.254 -0.759389 180.954 0.24532C183.038 1.02101 183.748 3.11538 183.879 3.54017C184.48 5.50157 183.506 7.25241 183.143 7.91729C178.163 17.004 182.737 12.867 173.717 28.2331C170.462 33.7849 168.991 35.8164 170.223 37.6966Z" fill="#A460FF"/>
</svg>
