<svg width="1235" height="508" viewBox="0 0 1235 508" fill="none" xmlns="http://www.w3.org/2000/svg">
<path opacity="0.6" d="M464.54 316.742C465.899 318.822 468.842 318.083 473.202 320.595C473.641 320.846 481.226 325.33 479.929 330.187C479.356 332.33 477.065 334.531 474.297 334.997C468.342 335.998 460.575 328.913 459.321 321.876C458.941 319.73 459.176 317.665 461.978 311.087C468.262 296.315 474.924 288.222 472.129 286.058C471.143 285.297 470.161 286.18 465.983 285.511C461.3 284.758 457.078 282.77 457.328 281.995C457.52 281.392 460.187 282.176 464.681 281.511C470.629 280.632 472.571 278.282 475.271 279.287C477.355 280.063 478.066 282.157 478.196 282.582C478.798 284.543 477.823 286.294 477.46 286.959C472.481 296.046 477.055 291.909 468.034 307.275C464.779 312.834 463.308 314.862 464.54 316.742Z" fill="#A460FF"/>
<g opacity="0.6">
<g opacity="0.6">
<g opacity="0.6">
<path opacity="0.6" d="M827.635 344.103C824.25 347.956 818.531 354.461 809.924 356.197C801.516 357.892 793.702 354.313 793.981 353.29C794.202 352.473 799.066 353.7 804.393 350.904C810.014 347.952 812.573 342.408 813.273 340.893C814.686 337.828 815.143 335.146 815.407 333.402C815.733 331.249 815.726 329.683 815.697 326.935C815.632 320.393 814.842 320.36 815.44 317.829C815.636 317.006 816.832 311.905 820.931 309.589C822.348 308.787 824.606 308.041 824.78 307.982C826.824 307.31 827.838 306.951 828.578 307.066C831.017 307.439 832.191 310.822 833.514 314.638C834.496 317.471 834.858 319.798 835.014 321.021C835.214 322.628 835.525 325.261 835.032 328.711C834.815 330.233 834.224 333.428 832.394 337.141C831.756 338.437 830.383 340.978 827.635 344.103Z" fill="#A460FF"/>
</g>
<g opacity="0.6">
<path opacity="0.6" d="M844.162 334.699C843.064 336.882 840.936 340.506 837.095 344.24C828.125 352.961 816.527 355.765 816.179 355.111C815.835 354.464 826.755 350.675 832.282 341.725C833.162 340.299 834.503 337.776 835.569 334.732C836.986 330.684 837.287 327.503 837.37 326.318C837.591 323.267 837.287 320.895 837.073 319.617C836.826 318.14 836.236 314.801 834.155 311.088C832.452 308.048 831.14 307.243 831.633 306.593C832.575 305.348 839.277 305.817 843.365 308.983C850.497 314.512 848.033 327.001 844.162 334.699Z" fill="#A460FF"/>
</g>
</g>
<g opacity="0.6">
<g opacity="0.6">
<path opacity="0.6" d="M781.21 308.421C781.191 307.361 781.177 297.687 788.204 291.441C790.593 289.317 793.775 287.633 794.71 288.257C795.551 288.819 793.876 291.005 793.347 294.54C792.93 297.325 793.474 299.313 794.166 301.847C794.844 304.325 796.112 308.976 800.291 312.688C805.158 317.01 808.881 315.536 811.113 319.71C812.74 322.753 812.472 326.381 812.392 327.323C812.2 329.62 812.084 331.027 811.077 332.058C807.576 335.648 797.087 330.773 796.254 330.377C789.676 327.252 786.338 322.521 785.464 321.22C784.232 319.388 781.318 314.915 781.21 308.421Z" fill="#A460FF"/>
</g>
<g opacity="0.6">
<path opacity="0.6" d="M778.633 337.85C778.024 336.731 776.632 334.053 775.425 330.067C774.197 326.019 772.751 321.257 773.403 315.628C774.28 308.063 778.589 302.016 779.528 302.275C780.514 302.548 777.835 308.554 780.035 316.577C781.014 320.149 782.54 322.569 783.018 323.304C786.207 328.176 790.542 330.654 793.771 332.501C796.217 333.901 797.439 334.599 799.211 335.046C804.944 336.491 808.478 333.912 809.968 335.648C811.504 337.44 809.214 341.906 807.221 344.307C805.521 346.357 803.629 347.398 802.596 347.96C801.639 348.477 797.116 350.808 792.049 349.977C788.701 349.426 786.849 347.782 784.395 345.603C781.478 343.006 780.021 340.395 778.633 337.85Z" fill="#A460FF"/>
</g>
</g>
<g opacity="0.6">
<path opacity="0.6" d="M822.348 291.057C824.174 290.887 830.636 290.366 836.348 293.602C842.687 297.192 845.325 303.837 844.176 304.728C843.727 305.075 842.908 304.384 840.762 303.605C840.317 303.442 838.961 303.014 837.943 302.792C835.446 302.242 833.282 302.644 830.625 303.165C828.61 303.56 827.164 304.03 825.624 304.532C821.601 305.851 819.586 306.508 818.361 307.498C814.49 310.616 815.973 315.174 813.454 316.023C811.439 316.703 808.989 314.291 806.017 311.358C802.766 308.152 801.139 306.549 801.226 304.199C801.36 300.58 805.452 297.828 808.275 295.929C810.805 294.23 813.128 293.384 814.73 292.815C815.926 292.394 818.807 291.386 822.348 291.057Z" fill="#7E3DCE"/>
<path opacity="0.6" d="M804.481 284.201C812.617 280.6 820.793 283.448 824.291 284.667C829.6 286.517 833.536 289.288 833.174 289.86C832.822 290.411 830.115 289.424 825.769 289.243C824.388 289.184 816.285 288.944 808.96 292.948C801.969 296.771 800.661 301.75 798.736 301.1C796.214 300.247 795.866 290.824 801.019 286.237C802.172 285.206 803.263 284.741 804.481 284.201Z" fill="#7E3DCE"/>
</g>
</g>
<path opacity="0.8" d="M423.204 387.04C417.807 386.453 405.528 385.123 392.126 387.945C368.837 392.851 354.753 407.655 345.953 416.904C336.639 426.693 336.831 430.043 337.074 431.384C338.738 440.648 358.986 445.602 374.367 445.864C392.198 446.17 395.812 440.046 429.419 433.194C438.048 431.436 444.347 430.512 456.945 428.669C481.137 425.131 493.231 423.358 504.006 423.239C533.192 422.914 556.956 432.319 570.601 437.719C598.094 448.597 609.286 459.538 616.773 454.009C623.156 449.295 622.695 435.684 618.549 426.859C612.816 414.655 599.468 410.392 583.032 405.14C568.39 400.46 568.14 402.99 553.73 398.805C528.716 391.539 527.723 383.417 509.333 380.705C496.554 378.822 485.537 381.049 473.816 383.42C459.573 386.302 450.182 390.483 434.747 388.85C429.622 388.307 429.658 387.738 423.204 387.04Z" stroke="url(#paint0_linear)" stroke-width="15" stroke-miterlimit="10"/>
<path opacity="0.8" d="M820.421 387.04C825.818 386.453 838.097 385.123 851.499 387.945C874.788 392.851 888.872 407.655 897.672 416.904C906.986 426.693 906.794 430.043 906.551 431.384C904.887 440.648 884.639 445.602 869.258 445.864C851.427 446.17 847.813 440.046 814.206 433.194C805.577 431.436 799.278 430.512 786.68 428.669C762.488 425.131 750.394 423.358 739.619 423.239C710.433 422.914 686.669 432.319 673.024 437.719C645.531 448.597 634.339 459.538 626.852 454.009C620.469 449.295 620.93 435.684 625.076 426.859C630.809 414.655 644.157 410.392 660.593 405.14C675.235 400.46 675.485 402.99 689.895 398.805C714.909 391.539 715.902 383.417 734.292 380.705C747.071 378.822 758.088 381.049 769.809 383.42C784.052 386.302 793.443 390.483 808.878 388.85C814.006 388.307 813.97 387.738 820.421 387.04Z" stroke="url(#paint1_linear)" stroke-width="15" stroke-miterlimit="10"/>
<path opacity="0.8" d="M1069.84 392.313C1071.18 391.127 1077.22 384.87 1081.46 376.522C1082.85 373.8 1091.31 357.152 1085.53 342.347C1083.67 337.601 1081.55 336.116 1080.32 335.484C1074.83 332.677 1067.87 337.069 1066.36 338.026C1063.94 339.555 1060.13 342.569 1051.9 359.882C1047.6 368.898 1047.78 369.888 1043.92 377.671C1040.54 384.464 1037.45 390.699 1033.45 395.966C1025.44 406.497 1020.35 404.536 1008.01 414.771C993.176 427.083 997.438 432.52 982.083 445.267C970.789 454.642 962.613 456.563 962.711 462.499C962.798 467.796 969.438 472.609 975.008 473.913C983.068 475.8 990.288 470.821 999.174 464.693C1007.09 459.233 1005.98 458.129 1013.57 452.592C1026.75 442.984 1031.02 445.644 1039.45 437.558C1045.31 431.94 1048.52 425.602 1051.94 418.86C1056.09 410.668 1057.73 404.377 1064.5 397.344C1065.12 396.698 1065.84 396.025 1065.84 396.025C1067.99 393.935 1069.66 392.476 1069.84 392.313Z" stroke="url(#paint2_linear)" stroke-width="10" stroke-miterlimit="10"/>
<path opacity="0.5" d="M11.9004 371.523C6.26471 373.089 0.817502 377.891 0.0854091 383.306C-1.13595 392.327 11.0125 400.97 19.2141 404.727C31.9605 410.563 39.4553 406.562 59.9358 406.389C89.8139 406.138 108.08 414.371 108.968 411.501C109.783 408.856 94.4783 401.192 82.3734 396.593C65.5099 390.188 63.763 393.117 49.9438 387.765C28.3507 379.406 22.8709 368.472 11.9004 371.523Z" fill="#A460FF"/>
<path opacity="0.5" d="M1131.56 476.746C1127.67 481.193 1125.68 488.248 1127.97 493.19C1131.78 501.428 1146.59 501.908 1155.47 500.493C1169.27 498.292 1173.41 490.767 1190.47 479.228C1215.37 462.392 1235.09 459.126 1234.29 456.23C1233.56 453.56 1216.63 455.654 1204.03 458.539C1186.47 462.558 1186.57 465.982 1172.13 469.188C1149.56 474.197 1139.12 468.087 1131.56 476.746Z" fill="#A460FF"/>
<path opacity="0.6" d="M773.444 464.689C771.69 464.903 771.041 462.059 768.366 461.114C765.474 460.09 760.973 461.553 759.856 464.852C759.03 467.301 760.193 470.389 762.165 471.885C766.181 474.932 773.665 471.633 777.014 466.82C778.304 464.97 778.253 463.939 779.5 459.086C782.319 448.108 783.729 442.619 786.886 441.669C789.832 440.783 790.934 444.695 799.27 447.129C803.097 448.248 804.532 447.908 805.377 449.33C806.656 451.476 803.884 453.368 800.716 462.465C800.705 462.499 799.415 466.196 796.776 470.348C795.729 471.995 795.055 472.79 794.098 472.915C792.199 473.166 791.485 470.485 789.01 469.993C786.69 469.535 783.842 471.142 782.508 473.702C781.225 476.166 781.287 479.619 783.041 481.341C784.914 483.18 787.995 482.327 792.797 480.994C795.957 480.118 796.842 479.272 797.153 478.951C798.712 477.333 798.654 475.556 799.433 472.775C799.712 471.778 800.828 469.572 803.054 465.21C805.047 461.295 806.852 457.272 808.856 453.364C810.056 451.026 811.016 449.216 810.541 447.018C810.364 446.191 809.903 444.942 808.254 443.332C805.272 440.414 802.3 440.129 798.302 438.718C790.412 435.933 789.814 432.738 787.107 433.599C783.827 434.637 782.526 440.011 780.565 448.119C779.3 453.349 778.311 455.876 776.332 460.921C775.727 462.454 774.883 464.516 773.444 464.689Z" fill="#A460FF"/>
<g opacity="0.6">
<path opacity="0.6" d="M896.961 214.553C895.297 218.75 897.11 223.452 901.006 225.059C904.905 226.665 909.414 224.567 911.077 220.371" fill="#FE7B6C"/>
<path opacity="0.6" d="M908.627 195.076C908.348 191.493 909.029 190.947 909.682 184.966C910.787 174.842 910.842 169.319 910.842 169.319C910.849 168.562 910.849 167.705 911.179 166.604C912.154 163.365 915.194 160.724 918.391 159.9C924.824 158.249 930.159 164.429 930.728 165.109C934.211 169.271 935.892 175.994 933.334 179.33C932.663 180.201 932.326 180.031 930.836 181.276C928.278 183.419 927.299 185.572 925.23 189.51C922.229 195.22 920.692 198.109 918.971 199.704C917.92 200.68 914.198 204.13 911.523 202.962C909.164 201.936 908.841 197.824 908.627 195.076Z" fill="#A460FF"/>
<path opacity="0.6" d="M910.229 164.976C909.602 164.68 904.274 162.272 900.117 165.027C898.059 166.39 897.185 168.459 896.754 169.471C895.638 172.09 896.341 172.958 896.058 178.982C896.044 179.293 895.721 186.137 895.772 190.182C895.779 190.692 895.801 191.674 896.232 192.823C896.573 193.732 896.863 193.92 897.715 195.294C899.157 197.625 899.059 198.275 899.766 198.497C900.498 198.726 901.063 198.179 902.875 197.174C904.285 196.395 905.507 195.856 906.366 195.512" fill="#A460FF"/>
<path opacity="0.6" d="M930.586 183.223C931.373 182.68 934.069 180.959 937.527 181.435C938.045 181.505 939.831 181.797 941.658 183.138C944.456 185.188 946.881 189.343 945.83 192.598C945.42 193.868 944.818 193.946 942.093 196.465C938.889 199.424 937.871 201.019 932.739 205.958C932.097 206.575 931.075 207.543 929.51 208.274C928.256 208.858 927.179 209.05 925.911 209.271C923.914 209.622 922.917 209.796 922.41 209.441C921.359 208.703 921.826 207.14 920.884 203.479C920.627 202.486 920.362 201.699 920.185 201.208" fill="#A460FF"/>
<path opacity="0.6" d="M902.278 178.196C902.042 183.902 901.538 190.112 900.636 196.735C899.766 203.11 898.646 209.002 897.407 214.365" stroke="#FFB9A8" stroke-width="4" stroke-miterlimit="10"/>
<path opacity="0.6" d="M918.162 183.378C916.604 188.642 914.651 194.352 912.186 200.373C909.631 206.612 906.916 212.219 904.242 217.183" stroke="#FFB9A8" stroke-width="4" stroke-miterlimit="10"/>
<path opacity="0.6" d="M933.094 192.705C928.162 198.681 923.215 204.791 918.264 211.03C915.854 214.066 913.473 217.099 911.121 220.116" stroke="#FFB9A8" stroke-width="4" stroke-miterlimit="10"/>
<path opacity="0.6" d="M898.892 206.878C901.15 207.388 904.289 208.307 907.772 210.04C911.171 211.731 913.73 213.612 915.462 215.071" stroke="#FFB9A8" stroke-width="4" stroke-miterlimit="10"/>
<path opacity="0.6" d="M896.77 214.103C901.648 216.238 906.526 218.369 911.405 220.504" stroke="#1F3262" stroke-miterlimit="10"/>
</g>
<g opacity="0.6">
<path opacity="0.6" d="M293.009 152.627H282.825C281.393 152.627 280.237 151.445 280.237 149.99V148.656C280.237 147.197 281.397 146.019 282.825 146.019H293.009C294.441 146.019 295.597 147.201 295.597 148.656V149.99C295.6 151.445 294.441 152.627 293.009 152.627Z" fill="#FA5C53"/>
<g opacity="0.6">
<path opacity="0.6" d="M294.129 193.698H225.965C221.939 193.698 218.673 190.37 218.673 186.266V160.768C218.673 156.664 221.939 153.336 225.965 153.336H294.129C298.156 153.336 301.421 156.664 301.421 160.768V186.266C301.421 190.37 298.156 193.698 294.129 193.698Z" fill="#FA5C53"/>
<path opacity="0.6" d="M301.422 162.556C273.965 162.56 246.508 162.563 219.05 162.567C219.003 162.261 218.456 158.338 220.877 155.434C223.269 152.561 226.415 153.27 226.676 153.333L297.247 153.913C297.808 154.197 299.327 155.069 300.411 157.152C301.621 159.505 301.483 161.858 301.422 162.556Z" fill="#A460FF"/>
</g>
<path opacity="0.6" d="M259.637 195.963C271.799 195.963 281.658 185.914 281.658 173.519C281.658 161.124 271.799 151.076 259.637 151.076C247.476 151.076 237.617 161.124 237.617 173.519C237.617 185.914 247.476 195.963 259.637 195.963Z" fill="#FFB9A8"/>
<path opacity="0.6" d="M259.652 186.54C266.699 186.54 272.413 180.717 272.413 173.534C272.413 166.351 266.699 160.528 259.652 160.528C252.604 160.528 246.891 166.351 246.891 173.534C246.891 180.717 252.604 186.54 259.652 186.54Z" fill="#FE7B6C"/>
<path opacity="0.6" d="M252.048 174.509C252.512 174.616 252.516 172.503 253.951 171.325C255.074 170.405 255.926 171 256.597 170.047C257.271 169.087 257.249 167.28 256.55 166.623C255.672 165.796 253.944 166.978 253.19 167.705C253.085 167.809 251.519 169.371 251.483 172.023C251.468 173.043 251.679 174.424 252.048 174.509Z" fill="#FFB9A8"/>
<path opacity="0.6" d="M257.941 179.987C257.934 179.906 257.894 179.341 258.13 178.879C258.731 177.704 260.402 178.635 262.2 177.715C262.533 177.545 263.755 176.858 264.36 175.396C265.291 173.142 263.885 171.181 264.914 169.803C265.433 169.109 266.368 168.828 267.027 169.157C268.354 169.818 268.68 172.991 268.187 175.189C267.629 177.686 266.009 178.956 264.661 180.017C264.498 180.146 260.493 183.23 258.808 181.668C258.021 180.936 257.941 179.987 257.941 179.987Z" fill="#FFB9A8"/>
</g>
<g opacity="0.6">
<path opacity="0.6" d="M1043.8 85.0569C1042.18 85.3745 1040.56 85.6885 1038.94 86.0062C1039.9 86.8816 1040.9 87.8383 1041.91 88.88C1042.72 89.7147 1043.47 90.5422 1044.17 91.3474C1051.12 90.3205 1052.8 90.0804 1052.81 90.0841C1052.82 90.0841 1056.76 90.2171 1059.23 89.0055C1058.89 88.2889 1058.55 87.5724 1058.21 86.8595C1057.86 86.431 1057.33 85.851 1056.61 85.2748C1055.77 84.6099 1054.12 83.2986 1052.15 83.2986C1050.66 83.2986 1050.35 84.0485 1048.34 84.6653C1046.53 85.212 1044.91 85.1788 1043.8 85.0569Z" fill="#FBD04F"/>
<path opacity="0.6" d="M1037.71 78.9916C1036.09 79.3092 1034.47 79.6232 1032.85 79.9409C1033.81 80.8163 1034.8 81.773 1035.82 82.8146C1036.62 83.6494 1037.38 84.4769 1038.08 85.2821C1045.03 84.2552 1046.7 84.0151 1046.72 84.0188C1046.73 84.0188 1050.66 84.1518 1053.14 82.9402C1052.8 82.2236 1052.46 81.507 1052.12 80.7941C1051.77 80.3657 1051.24 79.7857 1050.52 79.2095C1049.68 78.5446 1048.03 77.2333 1046.06 77.2333C1044.57 77.2333 1044.26 77.9832 1042.25 78.6C1040.43 79.1467 1038.81 79.1135 1037.71 78.9916Z" fill="#FBCBB5"/>
<path opacity="0.6" d="M1037.71 78.9916C1036.09 79.3092 1034.47 79.6232 1032.85 79.9409C1033.81 80.8163 1034.8 81.773 1035.82 82.8146C1036.62 83.6494 1037.38 84.4769 1038.08 85.2821C1045.03 84.2552 1046.7 84.0151 1046.72 84.0188C1046.73 84.0188 1050.66 84.1518 1053.14 82.9402C1052.8 82.2236 1052.46 81.507 1052.12 80.7941C1051.77 80.3657 1051.24 79.7857 1050.52 79.2095C1049.68 78.5446 1048.03 77.2333 1046.06 77.2333C1044.57 77.2333 1044.26 77.9832 1042.25 78.6C1040.43 79.1467 1038.81 79.1135 1037.71 78.9916Z" fill="#FBCBB5"/>
<path opacity="0.6" d="M1000.2 69.7029L980.558 105.174L1034.1 135.921L1053.74 100.449L1000.2 69.7029Z" fill="#FFB9A8"/>
<path opacity="0.6" d="M1053.68 100.497L1048.01 110.732L1039.56 105.875" fill="#FE7B6C"/>
<path opacity="0.6" d="M1022.93 96.2933C1022.93 96.2933 1021.64 96.1751 1015.74 92.2412C1017.73 91.0999 1019.46 90.3537 1020.7 89.8772C1024.93 88.2483 1029.62 87.3765 1029.62 87.3765C1029.62 87.3765 1031.89 88.6804 1036.12 91.1109C1034.93 91.6281 1032.87 92.5257 1030.29 93.6707C1024.85 96.068 1024.21 96.4115 1022.93 96.2933Z" fill="#7E3DCE"/>
<path opacity="0.6" d="M1005.91 86.575C1005.91 86.575 1004.62 86.4568 998.722 82.5229C1000.71 81.3815 1002.44 80.6354 1003.68 80.1589C1007.91 78.5299 1012.6 77.6582 1012.6 77.6582C1012.6 77.6582 1014.87 78.9621 1019.1 81.3926C1017.91 81.9097 1015.85 82.8073 1013.27 83.9524C1007.83 86.3534 1007.19 86.6969 1005.91 86.575Z" fill="#7E3DCE"/>
<path opacity="0.6" d="M1052.81 90.0841C1052.81 90.0841 1056.75 90.2171 1059.22 89.0055C1058.88 88.2889 1058.54 87.5723 1058.21 86.8594" fill="#FBD04F"/>
<path opacity="0.6" d="M1018.46 59.6362C1016.84 59.9538 1015.22 60.2678 1013.6 60.5855C1014.57 61.4609 1015.56 62.4176 1016.57 63.4592C1017.38 64.294 1018.13 65.1214 1018.84 65.9267C1025.78 64.8998 1027.46 64.6597 1027.48 64.6634C1027.48 64.6634 1031.42 64.7964 1033.89 63.5848C1033.55 62.8682 1033.21 62.1516 1032.88 61.4387C1032.53 61.0103 1032 60.4303 1031.27 59.8541C1030.43 59.1892 1028.78 57.8779 1026.82 57.8779C1025.33 57.8779 1025.01 58.6278 1023 59.2446C1021.19 59.795 1019.57 59.7581 1018.46 59.6362Z" fill="#7E3DCE"/>
<path opacity="0.6" d="M1043.8 85.0569C1042.18 85.3745 1040.56 85.6885 1038.94 86.0062C1039.9 86.8816 1040.9 87.8383 1041.91 88.88C1042.72 89.7147 1043.47 90.5422 1044.17 91.3474C1051.12 90.3205 1052.8 90.0804 1052.81 90.0841C1052.82 90.0841 1056.76 90.2171 1059.23 89.0055C1058.89 88.2889 1058.55 87.5724 1058.21 86.8595C1057.86 86.431 1057.33 85.851 1056.61 85.2748C1055.77 84.6099 1054.12 83.2986 1052.15 83.2986C1050.66 83.2986 1050.35 84.0485 1048.34 84.6653C1046.53 85.212 1044.91 85.1788 1043.8 85.0569Z" fill="#7E3DCE"/>
<path opacity="0.6" d="M1037.71 78.9916C1036.09 79.3092 1034.47 79.6232 1032.85 79.9409C1033.81 80.8163 1034.8 81.773 1035.82 82.8146C1036.62 83.6494 1037.38 84.4769 1038.08 85.2821C1045.03 84.2552 1046.7 84.0151 1046.72 84.0188C1046.73 84.0188 1050.66 84.1518 1053.14 82.9402C1052.8 82.2236 1052.46 81.507 1052.12 80.7941C1051.77 80.3657 1051.24 79.7857 1050.52 79.2095C1049.68 78.5446 1048.03 77.2333 1046.06 77.2333C1044.57 77.2333 1044.26 77.9832 1042.25 78.6C1040.43 79.1467 1038.81 79.1135 1037.71 78.9916Z" fill="#FE7B6C"/>
<path opacity="0.6" d="M1050.12 91.0962C1048.5 91.4138 1046.88 91.7278 1045.26 92.0455C1046.23 92.9209 1047.22 93.8776 1048.23 94.9192C1049.04 95.754 1049.79 96.5814 1050.5 97.3867C1050.47 98.7792 1051.47 99.9243 1052.68 100.043C1053.68 100.142 1054.69 99.5291 1055.14 98.5133C1056.09 97.516 1057.04 96.515 1057.99 95.5176C1060.75 93.5784 1062.28 91.4729 1061.78 90.3685C1061.35 89.4377 1059.51 89.2641 1058.48 89.3305C1056.91 89.434 1056.32 90.1912 1054.67 90.6972C1052.85 91.2513 1051.23 91.2181 1050.12 91.0962Z" fill="#FE7B6C"/>
<path opacity="0.6" d="M1011.8 54.9895C1010.9 55.5177 1010.36 56.5002 1010.43 57.5086C1010.51 58.7128 1011.44 59.7508 1012.69 59.9761C1019.64 58.9492 1021.32 58.7091 1021.33 58.7128C1021.34 58.7128 1025.28 58.8458 1027.75 57.6342C1027.41 56.9176 1027.07 56.201 1026.73 55.4881C1026.34 55.1003 1025.79 54.5536 1025.13 53.9035C1020.16 49.0388 1019.26 48.5364 1018.4 48.7026C1017.55 48.8615 1017.45 49.5264 1015.84 51.3437C1014.3 53.065 1012.82 54.2507 1011.8 54.9895Z" fill="#FE7B6C"/>
<path opacity="0.6" d="M1024.43 66.1335C1022.81 66.4512 1021.18 66.7652 1019.56 67.0828C1020.53 67.9583 1021.52 68.915 1022.53 69.9566C1023.34 70.7914 1024.1 71.6188 1024.8 72.4241C1031.75 71.3972 1033.42 71.1571 1033.44 71.1608C1033.45 71.1608 1037.38 71.2938 1039.85 70.0822C1039.52 69.3656 1039.18 68.649 1038.84 67.9361C1038.49 67.5076 1037.96 66.9277 1037.23 66.3515C1036.4 65.6866 1034.74 64.3753 1032.78 64.3753C1031.29 64.3753 1030.97 65.1251 1028.97 65.742C1027.15 66.2887 1025.53 66.2554 1024.43 66.1335Z" fill="#FE7B6C"/>
<path opacity="0.6" d="M1030.98 72.679C1029.36 72.9966 1027.74 73.3106 1026.12 73.6283C1027.09 74.5037 1028.08 75.4604 1029.09 76.502C1029.9 77.3368 1030.66 78.1642 1031.36 78.9695C1038.31 77.9426 1039.98 77.7025 1040 77.7062C1040.01 77.7062 1043.94 77.8392 1046.41 76.6276C1046.08 75.911 1045.74 75.1944 1045.4 74.4815C1045.05 74.053 1044.52 73.4731 1043.79 72.8969C1042.96 72.232 1041.3 70.9207 1039.34 70.9207C1037.85 70.9207 1037.53 71.6706 1035.53 72.2874C1033.71 72.8378 1032.09 72.8009 1030.98 72.679Z" fill="#7E3DCE"/>
<path opacity="0.6" d="M1039.49 105.225C1039.49 105.225 1038.2 105.107 1032.31 101.173C1034.3 100.031 1036.02 99.2853 1037.27 98.8088C1041.5 97.1798 1046.19 96.3081 1046.19 96.3081C1046.19 96.3081 1048.46 97.612 1052.68 100.043C1051.5 100.56 1049.44 101.457 1046.85 102.602C1041.42 105.003 1040.77 105.343 1039.49 105.225Z" fill="#7E3DCE"/>
<path opacity="0.6" d="M1031.15 100.811C1031.15 100.811 1029.86 100.693 1023.96 96.7588C1025.95 95.6174 1027.68 94.8712 1028.92 94.3947C1033.15 92.7658 1037.84 91.894 1037.84 91.894C1037.84 91.894 1040.11 93.1979 1044.34 95.6285C1043.15 96.1456 1041.09 97.0432 1038.5 98.1882C1033.07 100.586 1032.42 100.929 1031.15 100.811Z" fill="#FE7B6C"/>
<path opacity="0.6" d="M995.073 80.3841C995.957 78.8992 996.667 77.7098 997.146 76.912C997.849 75.7373 998.429 74.4815 999.215 73.3659C999.371 73.1443 999.817 72.5274 1000.15 71.6003C1000.27 71.2716 1000.34 70.9945 1000.38 70.8135C1003.92 72.8377 1007.47 74.8619 1011.01 76.8898C1010.34 77.1779 1009.21 77.6729 1007.82 78.3008C1002.21 80.8163 1000.74 81.6511 998.53 81.4738C997.729 81.4036 996.519 81.182 995.073 80.3841Z" fill="#FE7B6C"/>
<path opacity="0.6" d="M1014.32 91.7057C1014.32 91.7057 1013.03 91.5875 1007.14 87.6537C1009.13 86.5123 1010.85 85.7661 1012.1 85.2896C1016.32 83.6607 1021.01 82.7889 1021.01 82.7889C1021.01 82.7889 1023.29 84.0928 1027.51 86.5234C1026.33 87.0405 1024.27 87.9381 1021.68 89.0831C1016.24 91.4804 1015.6 91.8239 1014.32 91.7057Z" fill="#FE7B6C"/>
<path opacity="0.6" d="M1018.6 47.8078L1009.33 57.5652L1053.05 100.685L1062.32 90.9278L1018.6 47.8078Z" stroke="#1F3262" stroke-miterlimit="10"/>
<path opacity="0.6" d="M1047.66 110.522L994.452 80.0296" stroke="#1F3262" stroke-miterlimit="10"/>
<path opacity="0.6" d="M1053.07 100.685L1039.16 105.65" stroke="#1F3262" stroke-miterlimit="10"/>
<path opacity="0.6" d="M1045.06 95.8427L1031.15 100.811" stroke="#1F3262" stroke-miterlimit="10"/>
<path opacity="0.6" d="M1037.85 91.1996L1023.12 96.4595" stroke="#1F3262" stroke-miterlimit="10"/>
<path opacity="0.6" d="M1029.04 86.719L1015.13 91.6871" stroke="#1F3262" stroke-miterlimit="10"/>
<path opacity="0.6" d="M1020.61 81.7693L1006.7 86.7338" stroke="#1F3262" stroke-miterlimit="10"/>
<path opacity="0.6" d="M1013.27 77.056L998.479 82.3345" stroke="#1F3262" stroke-miterlimit="10"/>
<path opacity="0.6" d="M1053.75 83.0548L1037.64 85.4595" stroke="#1F3262" stroke-miterlimit="10"/>
<path opacity="0.6" d="M1047.87 77.0487L1031.58 79.4792" stroke="#1F3262" stroke-miterlimit="10"/>
<path opacity="0.6" d="M1041.9 70.6658L1025.17 73.1628" stroke="#1F3262" stroke-miterlimit="10"/>
<path opacity="0.6" d="M1034.38 64.1906L1018.48 66.5657" stroke="#1F3262" stroke-miterlimit="10"/>
<path opacity="0.6" d="M1028.26 58.1107L1012.32 60.4895" stroke="#1F3262" stroke-miterlimit="10"/>
</g>
<g opacity="0.6">
<path opacity="0.6" d="M91.2563 74.7216C99.5847 76.4909 106.884 71.4895 116.557 64.8444C122.011 61.0952 124.835 58.1771 127.013 54.8933C128.974 51.9346 129.963 49.3453 130.583 47.6646C134.591 36.8344 138.099 23.7547 139.603 17.9592C132.678 14.0216 124.005 9.81808 113.679 6.32376C103.832 2.98827 94.8297 1.09336 87.2442 0C85.6605 4.35128 83.4461 10.7009 81.0722 18.5059C78.6875 26.3515 77.4878 30.3629 76.9551 34.7807C75.9693 42.9956 76.9804 49.0645 78.0713 55.5841C80.0031 67.153 82.5944 69.9086 83.6128 70.8726C86.5883 73.6836 89.9805 74.4519 91.2563 74.7216Z" fill="#A460FF"/>
<path opacity="0.6" d="M85.8777 40.7609C86.5373 40.4433 87.7006 44.8204 92.2273 47.949C92.9956 48.4809 96.5292 50.8191 101.273 50.8006C107.612 50.7785 111.479 46.5639 111.983 47.2657C112.548 48.0562 107.728 53.5451 101.103 56.7956C96.377 59.1153 94.4199 58.4837 93.7857 58.2325C92.9123 57.8853 91.5749 57.0653 89.2844 52.2043C86.9106 47.1623 85.0984 41.134 85.8777 40.7609Z" fill="#7031C3"/>
<path opacity="0.6" d="M85.3596 20.7221C85.211 20.1348 90.9736 15.8205 94.5833 18.4468C97.45 20.5301 97.1637 25.6718 96.4353 25.9452C95.8119 26.1816 95.1849 22.7279 92.1188 21.1248C88.8715 19.4293 85.4684 21.1617 85.3596 20.7221Z" fill="#7031C3"/>
<path opacity="0.6" d="M125.505 33.3844C125.954 32.9855 123.591 26.1077 119.155 26.1963C115.636 26.2665 113.023 30.6732 113.469 31.3159C113.853 31.87 116.285 29.3804 119.703 29.8273C123.323 30.3001 125.168 33.6836 125.505 33.3844Z" fill="#7031C3"/>
</g>
<g opacity="0.6">
<path opacity="0.6" d="M170.028 112.516C175.987 111.109 178.89 105.11 182.731 97.1429C184.895 92.6512 185.671 89.6149 185.903 86.5196C186.109 83.7307 185.826 81.5293 185.631 80.1071C184.362 70.9281 181.977 60.2789 180.89 55.573C175.062 54.9488 168.021 54.6976 160.174 55.4955C152.69 56.2564 146.254 57.7893 141.009 59.4478C141.535 63.1268 142.365 68.4606 143.608 74.91C144.858 81.3889 145.511 84.6985 146.732 88.082C149.008 94.3799 151.806 98.4653 154.81 102.861C160.142 110.655 162.776 111.818 163.769 112.191C166.672 113.27 169.115 112.731 170.028 112.516Z" fill="#7E3DCE"/>
<path opacity="0.6" d="M154.563 89.5448C154.875 89.1015 157.169 91.9088 161.174 92.7214C161.855 92.8581 164.947 93.4195 167.973 91.8719C172.021 89.8033 173.007 85.4853 173.58 85.8362C174.221 86.2277 173.079 91.7832 169.988 96.2896C167.784 99.5069 166.306 99.6805 165.809 99.7027C165.124 99.7322 163.979 99.5697 160.793 96.7735C157.492 93.8702 154.197 90.0693 154.563 89.5448Z" fill="#7031C3"/>
<path opacity="0.6" d="M147.138 75.1316C146.833 74.7512 148.997 69.7498 152.241 70.4922C154.814 71.0795 156.448 74.9137 156.082 75.3496C155.767 75.7226 154.143 73.4103 151.614 73.2404C148.928 73.0557 147.362 75.416 147.138 75.1316Z" fill="#7031C3"/>
<path opacity="0.6" d="M177.324 71.3566C177.469 70.9207 173.522 66.6802 170.714 68.1799C168.485 69.3693 168.372 73.4214 168.887 73.7464C169.329 74.0235 170.003 71.4267 172.352 70.6437C174.834 69.8199 177.215 71.6853 177.324 71.3566Z" fill="#7031C3"/>
</g>
<path opacity="0.6" d="M977.331 315.128C975.972 317.207 973.029 316.469 968.669 318.98C968.231 319.232 960.645 323.716 961.943 328.573C962.515 330.716 964.806 332.917 967.575 333.382C973.529 334.384 981.296 327.299 982.55 320.262C982.931 318.116 982.695 316.051 979.894 309.473C973.609 294.701 966.948 286.608 969.742 284.444C970.728 283.683 971.71 284.565 975.889 283.897C980.571 283.143 984.794 281.156 984.543 280.38C984.351 279.778 981.684 280.561 977.19 279.897C971.243 279.017 969.3 276.668 966.6 277.673C964.516 278.449 963.806 280.543 963.675 280.968C963.074 282.929 964.048 284.68 964.411 285.345C969.391 294.432 964.817 290.295 973.838 305.661C977.092 311.22 978.564 313.248 977.331 315.128Z" fill="#A460FF"/>
<path opacity="0.6" d="M387.409 402.205C389.164 402.419 389.812 399.575 392.487 398.63C395.379 397.606 399.88 399.069 400.997 402.368C401.823 404.817 400.66 407.905 398.688 409.401C394.672 412.448 387.188 409.149 383.84 404.336C382.549 402.486 382.6 401.455 381.353 396.602C378.534 385.624 377.124 380.135 373.967 379.185C371.021 378.299 369.919 382.211 361.587 384.645C357.76 385.764 356.325 385.424 355.48 386.846C354.201 388.992 356.973 390.884 360.144 399.981C360.155 400.015 361.446 403.712 364.084 407.864C365.131 409.511 365.805 410.306 366.762 410.431C368.661 410.682 369.375 408.001 371.851 407.509C374.17 407.051 377.019 408.658 378.353 411.218C379.636 413.682 379.574 417.135 377.82 418.857C375.946 420.696 372.865 419.843 368.063 418.509C364.903 417.634 364.019 416.788 363.707 416.467C362.149 414.849 362.207 413.072 361.427 410.291C361.148 409.293 360.032 407.088 357.807 402.726C355.813 398.81 354.009 394.788 352.004 390.88C350.805 388.542 349.844 386.732 350.319 384.534C350.497 383.707 350.957 382.458 352.606 380.848C355.589 377.93 358.561 377.645 362.558 376.234C370.448 373.449 371.046 370.254 373.753 371.115C377.033 372.152 378.334 377.527 380.295 385.635C381.56 390.865 382.549 393.392 384.528 398.437C385.126 399.97 385.971 402.028 387.409 402.205Z" fill="#A460FF"/>
<path opacity="0.6" d="M215.973 306.965C217.332 309.044 220.275 308.305 224.635 310.817C225.073 311.068 232.659 315.553 231.361 320.414C230.789 322.556 228.498 324.758 225.729 325.223C219.775 326.224 212.008 319.139 210.754 312.103C210.374 309.957 210.609 307.892 213.411 301.313C219.695 286.542 226.356 278.449 223.562 276.284C222.576 275.523 221.594 276.406 217.415 275.737C212.733 274.984 208.511 272.997 208.761 272.221C208.953 271.619 211.62 272.402 216.114 271.737C222.062 270.858 224.004 268.509 226.704 269.513C228.788 270.289 229.499 272.383 229.629 272.808C230.231 274.77 229.256 276.52 228.893 277.185C223.914 286.272 228.487 282.135 219.467 297.501C216.212 303.053 214.741 305.084 215.973 306.965Z" fill="#A460FF"/>
<path opacity="0.5" d="M237.389 448.037C231.561 448.435 225.288 452.044 223.519 457.204C220.573 465.8 230.807 476.722 238.118 482.056C249.479 490.345 257.605 487.933 277.712 491.889C307.05 497.662 323.359 509.412 324.784 506.779C326.096 504.352 312.581 493.754 301.607 486.81C286.316 477.132 284.036 479.655 271.529 471.625C251.991 459.077 248.736 447.257 237.389 448.037Z" fill="#A460FF"/>
<path opacity="0.5" d="M1129.21 218.325C1135 217.516 1141.85 219.754 1144.61 224.438C1149.21 232.247 1141.35 245.057 1135.26 251.787C1125.78 262.251 1117.34 261.564 1098.44 269.591C1070.86 281.3 1057.22 296.175 1055.3 293.892C1053.53 291.787 1064.66 278.618 1074.03 269.55C1087.08 256.917 1089.81 258.916 1100.47 248.47C1117.1 232.151 1117.94 219.906 1129.21 218.325Z" fill="#A460FF"/>
<path opacity="0.8" d="M54.6858 212.753C53.3484 211.568 47.3032 205.31 43.0629 196.962C41.6784 194.24 33.2159 177.592 39.0001 162.787C40.8557 158.041 42.9723 156.556 44.2045 155.924C49.6916 153.117 56.6537 157.509 58.1686 158.466C60.5896 159.995 64.3951 163.009 72.6293 180.322C76.9204 189.338 76.7464 190.328 80.6098 198.111C83.984 204.904 87.0754 211.139 91.0802 216.406C99.0861 226.937 104.178 224.976 116.511 235.212C131.349 247.523 127.087 252.96 142.443 265.707C153.736 275.082 161.912 277.003 161.814 282.939C161.727 288.236 155.088 293.049 149.517 294.353C141.457 296.24 134.237 291.261 125.351 285.133C117.432 279.674 118.545 278.569 110.952 273.032C97.7741 263.425 93.5012 266.084 85.0712 257.998C79.2145 252.38 76.0034 246.042 72.5894 239.301C68.4397 231.108 66.7979 224.817 60.0279 217.784C59.4081 217.138 58.6869 216.466 58.6869 216.466C56.5305 214.375 54.867 212.912 54.6858 212.753Z" stroke="url(#paint3_linear)" stroke-width="10" stroke-miterlimit="10"/>
<defs>
<linearGradient id="paint0_linear" x1="611.5" y1="443" x2="350.977" y2="401.647" gradientUnits="userSpaceOnUse">
<stop offset="0.2649" stop-color="#BC7EEF"/>
<stop offset="1" stop-color="#F8B8B5"/>
</linearGradient>
<linearGradient id="paint1_linear" x1="636.5" y1="455" x2="869.536" y2="392.132" gradientUnits="userSpaceOnUse">
<stop offset="0.2649" stop-color="#B271F6"/>
<stop offset="1" stop-color="#FCB9AE"/>
</linearGradient>
<linearGradient id="paint2_linear" x1="993.924" y1="484.711" x2="1064.49" y2="326.408" gradientUnits="userSpaceOnUse">
<stop stop-color="#A460FF"/>
<stop offset="0.2367" stop-color="#B570EF"/>
<stop offset="0.7013" stop-color="#E09BC6"/>
<stop offset="1" stop-color="#FFB9A8"/>
</linearGradient>
<linearGradient id="paint3_linear" x1="130.595" y1="305.149" x2="60.0324" y2="146.846" gradientUnits="userSpaceOnUse">
<stop stop-color="#A460FF"/>
<stop offset="0.2367" stop-color="#B570EF"/>
<stop offset="0.7013" stop-color="#E09BC6"/>
<stop offset="1" stop-color="#FFB9A8"/>
</linearGradient>
</defs>
</svg>
