<svg width="154" height="261" viewBox="0 0 154 261" fill="none" xmlns="http://www.w3.org/2000/svg">
<g opacity="0.3">
<path d="M105.951 255.167L105.916 255.162C97.3475 255.592 84.0756 254.967 63.5311 252.145C63.5311 252.145 -1.4775 246.464 2.18815 233.972C2.18815 233.972 2.6219 237.935 14.8221 232.12C14.8221 232.12 -4.66313 215.148 30.255 202.723L30.9188 190.824C30.9188 190.824 33.2869 190.604 37.3747 190.484C48.1652 190.165 70.954 190.526 93.9695 197.405C94.3696 197.948 94.7858 198.479 95.1879 199.008C97.5569 201.969 100.259 204.649 103.24 206.996L102.634 211.405C103.37 211.915 134.483 233.469 111.008 242.759C111.008 242.759 108.07 247.55 121.223 249.042C121.272 249.048 123.329 254.289 105.951 255.167Z" fill="url(#paint0_linear)"/>
<path d="M101.523 199.907C99.0164 198.989 96.4923 198.164 93.9505 197.432C94.3507 197.975 94.7669 198.505 95.169 199.034L37.1576 190.748L37.3195 190.512C68.3801 146.113 57.4435 106.449 57.4435 106.449C77.5398 105.622 90.4539 109.061 95.9551 110.958C96.9886 111.301 98.0022 111.702 98.9913 112.157C79.4048 157.545 101.817 199.969 101.817 199.969L101.523 199.907Z" fill="url(#paint1_linear)"/>
<path d="M107.699 96.418C107.601 97.1061 107.234 97.7273 106.677 98.1457C106.121 98.5641 105.421 98.7457 104.731 98.6509L57.3729 92.1442C56.682 92.0493 56.057 91.6845 55.6354 91.13C55.2138 90.5755 55.0302 89.8767 55.1249 89.1875C55.2196 88.4982 55.5849 87.8749 56.1404 87.4546C56.6959 87.0344 57.3961 86.8516 58.0871 86.9465L105.445 93.4532C106.138 93.5484 106.765 93.9142 107.187 94.4702C107.61 95.0262 107.794 95.7269 107.699 96.418V96.418Z" fill="#A460FF"/>
<path d="M108.734 82.4528C108.638 83.14 108.274 83.7612 107.72 84.1811C107.167 84.601 106.469 84.7856 105.779 84.6947L58.4142 78.1871C57.7505 78.0605 57.1608 77.6847 56.7665 77.1372C56.3722 76.5896 56.2036 75.9121 56.2953 75.2445C56.387 74.5768 56.7322 73.9699 57.2595 73.549C57.7868 73.128 58.4561 72.9252 59.1293 72.9823L106.494 79.4899C107.184 79.5885 107.807 79.9555 108.227 80.5107C108.647 81.0659 108.829 81.7641 108.734 82.4528V82.4528Z" fill="#A460FF"/>
<path d="M102.272 84.2127L62.2134 78.709L61.0251 87.3577L101.083 92.8614L102.272 84.2127Z" fill="#A460FF"/>
<path d="M118.073 50.2884L102.131 78.8898L62.9268 73.5035L54.7876 41.5935L118.073 50.2884Z" fill="url(#paint2_linear)"/>
<path d="M102.102 21.9238L76.6372 18.425L75.4402 27.1372L100.905 30.6359L102.102 21.9238Z" fill="#A460FF"/>
<path d="M95.9515 9.0522L86.9995 7.82227L81.8497 45.3048L90.8017 46.5347L95.9515 9.0522Z" fill="#A460FF"/>
<path d="M82.7356 13.6397L80.4253 15.3875L85.5603 22.1413L87.8706 20.3936L82.7356 13.6397Z" fill="#A460FF"/>
<path d="M91.9288 20.9456L93.6821 23.2517L100.448 18.133L98.695 15.8269L91.9288 20.9456Z" fill="#A460FF"/>
<path d="M96.3765 33.8031L79.9056 31.5401C79.3637 31.4656 78.8641 31.8436 78.7898 32.3842L78.694 33.0815C78.6197 33.6222 78.9989 34.1208 79.5408 34.1953L96.0117 36.4582C96.5537 36.5327 97.0533 36.1548 97.1275 35.6141L97.2233 34.9169C97.2976 34.3762 96.9185 33.8775 96.3765 33.8031Z" fill="#A460FF"/>
<path d="M95.6265 40.058L79.1556 37.795C78.6137 37.7205 78.1141 38.0985 78.0398 38.6391L77.944 39.3364C77.8697 39.877 78.2489 40.3757 78.7909 40.4502L95.2617 42.7131C95.8037 42.7876 96.3033 42.4097 96.3776 41.869L96.4734 41.1717C96.5476 40.6311 96.1685 40.1324 95.6265 40.058Z" fill="#A460FF"/>
<path d="M101.871 199.954L101.525 199.907C99.0184 198.988 96.4942 198.163 93.9525 197.431C84.1203 184.283 79.2481 165.609 81.9701 145.798C83.6062 133.189 88.426 121.204 95.9772 110.967C97.0108 111.311 98.0244 111.711 99.0135 112.167C79.4601 157.523 101.871 199.954 101.871 199.954Z" fill="#A460FF"/>
<path d="M102.27 84.2123L96.3745 83.4023L95.1862 92.0511L101.081 92.861L102.27 84.2123Z" fill="#A460FF"/>
<path d="M111.689 49.4116L118.072 50.2885L102.129 78.8899L97.0886 78.1973L111.689 49.4116Z" fill="#A460FF"/>
<path d="M105.95 255.166L105.915 255.162C89.9193 254.937 77.6525 245.007 95.9699 242.888C114.287 240.769 84.5888 209.234 84.5888 209.234L102.67 211.395C103.406 211.905 134.519 233.459 111.044 242.749C111.044 242.749 108.106 247.54 121.259 249.032C121.271 249.048 123.327 254.289 105.95 255.166Z" fill="#A460FF"/>
<path d="M108.569 99.1566L51.8282 91.3609C48.9624 90.9671 46.3207 92.9656 45.9279 95.8245L45.4228 99.5009C45.03 102.36 47.0348 104.997 49.9007 105.39L106.641 113.186C109.507 113.58 112.149 111.581 112.542 108.723L113.047 105.046C113.44 102.187 111.435 99.5504 108.569 99.1566Z" fill="#A460FF"/>
<path d="M30.9188 190.824L30.2581 202.752L102.664 211.402L104.109 200.879C104.109 200.879 79.5345 190.062 30.9188 190.824Z" fill="#A460FF"/>
</g>
<defs>
<linearGradient id="paint0_linear" x1="-46.0269" y1="206.896" x2="73.0815" y2="223.261" gradientUnits="userSpaceOnUse">
<stop stop-color="#A460FF"/>
</linearGradient>
<linearGradient id="paint1_linear" x1="-888.771" y1="33522.6" x2="5041.39" y2="34337.3" gradientUnits="userSpaceOnUse">
<stop stop-color="#BE96F5"/>
<stop offset="0.06" stop-color="#0C0913"/>
<stop offset="0.2" stop-color="#261D3C"/>
<stop offset="0.35" stop-color="#3C2D5D"/>
<stop offset="0.5" stop-color="#4D3A77"/>
<stop offset="0.66" stop-color="#594389"/>
<stop offset="0.82" stop-color="#604894"/>
<stop offset="1" stop-color="#624A98"/>
</linearGradient>
<linearGradient id="paint2_linear" x1="3656.27" y1="8130.57" x2="9329.81" y2="8910.07" gradientUnits="userSpaceOnUse">
<stop stop-color="#BE96F5"/>
<stop offset="0.06" stop-color="#0C0913"/>
<stop offset="0.2" stop-color="#261D3C"/>
<stop offset="0.35" stop-color="#3C2D5D"/>
<stop offset="0.5" stop-color="#4D3A77"/>
<stop offset="0.66" stop-color="#594389"/>
<stop offset="0.82" stop-color="#604894"/>
<stop offset="1" stop-color="#624A98"/>
</linearGradient>
</defs>
</svg>
