<svg width="221" height="242" viewBox="0 0 221 242" fill="none" xmlns="http://www.w3.org/2000/svg">
<g opacity="0.6">
<path opacity="0.6" d="M18.1503 148.646C8.29132 157.716 7.06989 172.622 15.4114 181.943C23.7627 191.268 38.5202 191.475 48.3791 182.404" fill="#FE7B6C"/>
<path opacity="0.6" d="M74.4561 111.63C78.3316 101.693 80.8579 101.111 90.3153 85.9668C106.329 60.3295 113.597 45.6388 113.597 45.6388C114.593 43.6241 115.699 41.3335 118 38.8166C124.785 31.4151 136.319 28.2776 145.926 30.1989C165.251 34.0831 171.54 57.4825 172.184 60.0331C176.124 75.6529 171.948 95.7916 160.806 101.407C157.89 102.872 157.208 101.983 151.621 103.389C142.018 105.816 136.625 110.31 126.015 118.166C110.628 129.559 102.794 135.298 96.1345 137.343C92.0673 138.594 77.6682 143.015 72.0244 136.445C67.0423 130.657 71.4829 119.252 74.4561 111.63Z" fill="#A460FF"/>
<path opacity="0.6" d="M117.563 33.2376C116.269 31.639 105.134 18.3298 90.4687 20.3335C83.2081 21.3216 78.2053 25.7241 75.747 27.8731C69.3853 33.4336 70.1451 36.6608 61.6188 52.3997C61.1798 53.2104 51.4891 71.0899 46.4077 81.9667C45.7696 83.3386 44.5604 85.993 44.2315 89.6199C43.9701 92.4882 44.5019 93.3656 45.0061 98.1371C45.8554 106.228 44.7555 107.839 46.3587 109.343C48.0201 110.9 50.2364 110.168 56.3761 109.819C61.1498 109.555 65.1102 109.689 67.8492 109.878" fill="#A460FF"/>
<path opacity="0.6" d="M148.441 108.27C151.244 107.833 160.672 106.71 169.299 112.444C170.594 113.3 174.993 116.384 178.146 122.324C182.981 131.413 184.102 145.648 177.095 152.991C174.361 155.859 172.653 155.29 162.119 158.509C149.739 162.285 144.958 165.237 124.871 171.818C122.36 172.64 118.38 173.908 113.252 173.843C109.147 173.786 106.022 172.911 102.346 171.867C96.5552 170.23 93.6673 169.408 92.7685 167.806C90.912 164.476 94.177 160.902 96.3798 149.902C96.9736 146.914 97.2811 144.47 97.4401 142.928" fill="#A460FF"/>
<path opacity="0.6" d="M79.2577 58.3186C71.267 73.2693 61.9115 89.2167 50.9567 105.756C40.4083 121.675 29.8157 135.979 19.5847 148.717" stroke="#FFB9A8" stroke-width="4" stroke-miterlimit="10"/>
<path opacity="0.6" d="M115.033 92.6601C104.078 104.72 91.4904 117.464 77.1369 130.379C62.2601 143.76 47.7716 155.246 34.2189 165.066" stroke="#FFB9A8" stroke-width="4" stroke-miterlimit="10"/>
<path opacity="0.6" d="M142.916 136.85C122.022 146.463 100.918 156.413 79.6382 166.704C69.2797 171.711 59.0032 176.746 48.8235 181.778" stroke="#FFB9A8" stroke-width="4" stroke-miterlimit="10"/>
<path opacity="0.6" d="M33.2134 130.62C38.5912 134.894 45.7943 141.401 52.8694 150.524C59.7742 159.431 64.1885 167.757 66.9372 173.892" stroke="#FFB9A8" stroke-width="4" stroke-miterlimit="10"/>
<path opacity="0.6" d="M18.2217 147.195C28.5072 159.194 38.7975 171.183 49.083 183.182" stroke="#1F3262" stroke-miterlimit="10"/>
</g>
</svg>
