<svg width="168" height="100" viewBox="0 0 168 100" fill="none" xmlns="http://www.w3.org/2000/svg">
<path opacity="0.6" d="M160.538 37.7003C159.179 39.7799 156.236 39.0411 151.876 41.5529C151.437 41.8041 143.852 46.2883 145.149 51.1457C145.722 53.2881 148.012 55.4896 150.781 55.955C156.736 56.956 164.502 49.8713 165.756 42.8346C166.137 40.6886 165.901 38.6237 163.1 32.0451C156.815 17.2737 150.154 9.18059 152.948 7.01603C153.934 6.25511 154.916 7.13793 159.095 6.46936C163.778 5.71583 168 3.72856 167.75 2.95287C167.558 2.35078 164.89 3.13386 160.396 2.46898C154.449 1.58986 152.506 -0.759391 149.806 0.245318C147.722 1.02101 147.012 3.11538 146.881 3.54017C146.28 5.50157 147.255 7.25243 147.617 7.91731C152.597 17.004 148.023 12.867 157.044 28.2331C160.298 33.7923 161.77 35.8202 160.538 37.7003Z" fill="#A460FF"/>
<path opacity="0.6" d="M37.2141 82.2334C38.9683 82.4476 39.617 79.6034 42.2917 78.6578C45.1838 77.6347 49.6851 79.0974 50.8013 82.3959C51.6277 84.8449 50.4643 87.9329 48.4927 89.4289C44.4771 92.4763 36.9931 89.1777 33.6443 84.3647C32.3541 82.5141 32.4048 81.4836 31.1581 76.63C28.3384 65.652 26.9286 60.1631 23.7719 59.2137C20.8254 58.3272 19.7236 62.239 11.3916 64.6732C7.56438 65.7924 6.12919 65.4525 5.28475 66.8747C4.0054 69.0207 6.77793 70.912 9.94912 80.0098C9.96 80.043 11.2502 83.7405 13.8887 87.8923C14.9361 89.5397 15.6102 90.3339 16.567 90.4595C18.466 90.7106 19.18 88.029 21.6553 87.5377C23.9748 87.0797 26.8235 88.6864 28.1572 91.2462C29.4402 93.71 29.3786 97.1637 27.6245 98.885C25.7507 100.725 22.6701 99.8712 17.868 98.5378C14.7077 97.6623 13.8234 96.8165 13.5117 96.4951C11.9533 94.8773 12.0113 93.1005 11.2321 90.3191C10.953 89.3218 9.83675 87.1166 7.61147 82.7542C5.61815 78.8388 3.81328 74.8163 1.80909 70.9083C0.609471 68.5701 -0.350912 66.7601 0.123861 64.5623C0.301448 63.7349 0.761701 62.4864 2.41072 60.876C5.39346 57.9579 8.36535 57.6734 12.3629 56.2624C20.2528 53.4773 20.8508 50.2822 23.5581 51.1428C26.838 52.1808 28.1391 57.5552 30.0998 65.6631C31.3646 70.8935 32.3541 73.42 34.3329 78.4657C34.9309 79.9987 35.7753 82.0561 37.2141 82.2334Z" fill="#A460FF"/>
</svg>
