<svg width="376" height="177" viewBox="0 0 376 177" fill="none" xmlns="http://www.w3.org/2000/svg">
<path d="M145.113 124.991C147.124 123.919 149.189 122.815 150.19 120.585C150.662 119.535 151.299 119.535 152.211 119.86C152.887 120.1 153.599 120.252 154.307 120.376C158.74 121.177 163.154 121.191 167.516 119.945C168.882 119.553 170.271 119.104 170.96 117.697C170.168 116.536 168.535 116.905 167.89 115.824C166.804 113.999 165.041 113.83 163.23 113.652C162.598 113.589 161.828 113.986 161.365 113.207C161.486 112.971 161.548 112.735 161.695 112.575C163.911 110.229 166.141 107.893 168.366 105.552C169.007 104.876 168.784 103.767 167.899 103.5C167.227 103.296 166.488 103.18 165.789 103.211C164.57 103.26 163.421 103.705 162.389 104.319C160.84 105.241 159.283 106.171 157.876 107.283C155.62 109.072 153.413 110.942 151.325 112.926C150.124 114.07 149.047 114.764 147.24 114.475C145.491 114.19 143.639 114.364 141.846 114.52C130.159 115.521 118.913 118.503 107.863 122.299C106.964 122.606 106.047 122.989 105.277 123.536C102.696 125.361 102.651 128.645 105.184 130.532C105.838 131.022 106.657 131.333 107.44 131.609C109.042 132.179 110.716 132.321 112.407 132.357C119.18 132.486 125.842 131.703 132.38 129.945C136.799 128.765 141.072 127.15 145.113 124.991Z" fill="#D39BE4"/>
<path d="M57.4398 71.3063C58.2453 71.7914 59.1888 72.1564 60.11 72.3255C61.7566 72.6281 63.4389 72.8907 65.1078 72.8907C67.5021 72.8907 69.9053 72.6814 72.2952 72.4945C80.5284 71.8537 88.3611 69.7042 95.771 66.0593C98.3611 64.7865 100.965 63.5048 102.286 60.661C102.495 60.2115 102.989 60.0335 103.519 60.1892C103.977 60.3228 104.431 60.4829 104.899 60.5986C109.162 61.6445 113.457 61.8314 117.751 60.8434C119.603 60.4162 121.557 60.1002 122.731 58.3735C122.531 57.6525 121.993 57.4121 121.401 57.2386C120.831 57.0695 120.19 56.9939 119.852 56.4198C118.615 54.3281 116.594 54.2212 114.498 54.2301C113.995 54.2301 113.288 54.5951 112.99 53.5003C115.726 51.4798 117.471 48.3779 120.141 46.1349C120.951 45.454 120.573 44.2391 119.554 43.8385C118.606 43.4691 117.667 43.5403 116.728 43.8073C115.095 44.2746 113.617 45.0623 112.206 45.9969C108.891 48.1954 105.838 50.7188 103.034 53.5359C101.957 54.6174 100.907 55.2226 99.269 55.0446C96.3985 54.733 93.5057 54.9734 90.6396 55.3072C80.0922 56.5266 69.9053 59.2858 59.8964 62.7438C58.9929 63.0553 58.0673 63.3935 57.2751 63.9097C54.3912 65.8011 54.4713 69.5173 57.4398 71.3063Z" fill="#D39BE4"/>
<path d="M289.474 27.1896C290.111 27.7058 290.898 28.0931 291.677 28.369C293.27 28.9342 294.935 29.1477 296.635 29.1878C302.55 29.3258 308.402 28.7562 314.165 27.4566C319.457 26.2639 324.548 24.4704 329.368 21.9559C331.615 20.781 333.831 19.5394 334.917 17.0472C335.153 16.5087 335.594 16.3752 336.083 16.4865C336.902 16.6689 337.694 16.9715 338.518 17.1362C343.061 18.053 347.592 18.0352 352.069 16.7712C353.44 16.3841 354.828 15.9213 355.522 14.3725C354.178 13.3757 352.354 13.251 351.441 11.5821C351.005 10.7855 349.759 10.741 348.816 10.5897C347.877 10.4428 346.915 10.4517 345.963 10.3938C345.861 10.1713 345.763 9.95322 345.66 9.7307C348.518 7.83929 350.049 4.73738 352.665 2.61899C353.035 2.32082 353.293 1.87139 353.195 1.34624C353.07 0.687584 352.616 0.327033 352.002 0.162368C350.525 -0.233716 349.15 0.149026 347.801 0.727576C345.914 1.542 344.223 2.69463 342.594 3.93183C340.008 5.89891 337.525 7.98171 335.247 10.3004C334.561 10.9946 333.907 11.5598 332.759 11.3951C328.54 10.7854 324.361 11.5287 320.204 12.085C310.765 13.3444 301.655 15.9925 292.656 19.041C291.517 19.4282 290.378 19.8108 289.443 20.6163C287.338 22.4232 287.32 25.4406 289.474 27.1896Z" fill="#D39BE4"/>
<path d="M234.534 73.5715C235.197 74.0521 236.016 74.3548 236.799 74.6352C238.401 75.2048 240.079 75.3427 241.77 75.365C245.865 75.4184 249.941 75.1826 253.991 74.564C261.179 73.4648 268.028 71.333 274.485 67.9774C276.301 67.0339 278.054 65.9614 279.22 64.1901C279.603 63.6116 279.692 62.7927 280.636 62.6058C284.748 63.9898 289.042 64.1678 293.386 63.6916C295.188 63.4914 296.942 63.082 298.58 62.2853C299.323 61.9249 300.119 61.551 300.182 60.4963C299.091 59.4549 297.249 59.5884 296.421 57.9284C295.949 56.976 294.574 56.8915 293.511 56.7357C292.576 56.5978 291.615 56.6333 289.83 56.5532C293.27 53.8474 295.059 50.7945 297.703 48.5292C298.384 47.9462 298.037 46.8247 297.191 46.4731C295.74 45.8723 294.347 46.2284 292.99 46.7535C291.067 47.4968 289.367 48.6405 287.73 49.8644C285.126 51.8092 282.603 53.8608 280.351 56.2017C279.354 57.2386 278.397 57.697 276.884 57.4967C275.117 57.2609 273.279 57.3543 271.486 57.5012C259.665 58.4669 248.304 61.4754 237.142 65.325C236.243 65.6365 235.326 66.0192 234.556 66.5666C231.988 68.4046 231.98 71.7201 234.534 73.5715Z" fill="#D39BE4"/>
<path d="M41.3161 111.885C43.5546 110.741 45.811 109.531 46.9458 107.065C47.2529 106.402 47.7291 106.211 48.3833 106.367C48.8506 106.478 49.2956 106.66 49.7629 106.776C54.0219 107.826 58.3121 107.991 62.5978 106.998C64.4492 106.571 66.3851 106.215 67.6268 104.515C67.4844 104.31 67.3909 104.048 67.2084 103.928C66.0469 103.171 64.5248 103.069 63.7638 101.547C63.3544 100.728 62.1706 100.528 61.1915 100.483C60.119 100.43 59.0375 100.47 57.9605 100.47C57.827 100.238 57.6935 100.007 57.56 99.7755C60.4705 97.7861 62.1394 94.662 64.8052 92.4368C65.7888 91.6135 65.4149 90.2961 64.1866 89.9356C63.1052 89.6196 62.0771 89.7977 61.0179 90.1404C58.6904 90.897 56.7278 92.2766 54.8052 93.7052C52.2017 95.6366 49.7095 97.7193 47.4621 100.056C46.5408 101.017 45.5751 101.32 44.2711 101.2C41.5163 100.941 38.7482 101.106 36.0068 101.409C25.0989 102.615 14.5826 105.454 4.25768 109.068C3.46996 109.344 2.66889 109.66 1.98799 110.132C-0.7045 111.987 -0.646645 115.503 2.06809 117.359C2.97152 117.978 3.98176 118.36 5.0543 118.543C6.82556 118.845 8.59681 119.161 10.4126 119.095C14.8541 118.939 19.2777 118.614 23.648 117.813C29.8163 116.691 35.7264 114.742 41.3161 111.885Z" fill="#D39BE4"/>
<path d="M160.284 84.2925C160.934 84.7909 161.735 85.1381 162.518 85.414C163.884 85.8902 165.304 86.1305 166.759 86.1661C178.121 86.4687 188.989 84.3726 199.234 79.3659C200.627 78.685 201.926 77.7905 203.239 76.9538C204.583 76.0993 205.228 74.6173 206.065 73.3712C207.293 73.6739 208.326 73.9765 209.381 74.1768C213.804 75.0179 218.215 75.0001 222.589 73.8118C223.755 73.4958 224.895 73.0998 225.736 72.1697C226.11 71.7602 226.101 71.3286 225.629 70.977C224.859 70.4073 223.635 70.5853 223.119 69.6997C221.962 67.7103 220.066 67.5991 218.121 67.4834C217.569 67.4522 216.942 67.7327 216.359 66.9939C217.494 65.8368 218.628 64.6307 219.821 63.4869C221.027 62.3254 221.61 60.6254 223.159 59.7576C223.72 59.446 223.96 58.8452 223.818 58.2044C223.631 57.3544 222.896 57.1496 222.18 57.0472C220.827 56.8559 219.572 57.2475 218.348 57.7904C216.354 58.676 214.588 59.9222 212.87 61.2395C210.386 63.1398 208.005 65.1648 205.825 67.4078C205.117 68.1376 204.414 68.5159 203.297 68.369C199.078 67.8038 194.899 68.5382 190.742 69.0989C181.423 70.3584 172.429 72.9574 163.546 75.9748C162.407 76.3619 161.259 76.7224 160.297 77.4789C157.987 79.2902 157.961 82.5124 160.284 84.2925Z" fill="#D39BE4"/>
<path d="M84.0575 128.494C85.4638 126.976 86.612 125.752 87.738 124.511C88.0807 124.137 88.2676 123.616 87.9383 123.211C87.6623 122.868 87.1861 122.526 86.7723 122.49C85.5484 122.388 84.3868 122.784 83.3277 123.353C81.7433 124.204 80.1679 125.08 78.6592 126.059C77.6979 126.682 76.8657 127.003 75.6552 126.625C72.758 125.717 69.7362 125.672 66.7277 125.766C59.3668 125.993 52.1527 127.119 45.1433 129.419C42.7446 130.207 40.4037 131.159 38.2185 132.428C36.7632 133.269 35.3302 134.168 34.1909 135.436C32.7089 137.083 33.2207 138.952 35.3569 139.611C36.0378 139.82 36.7677 139.905 37.4842 139.953C39.2822 140.078 41.0801 140.158 42.8781 140.247C48.3253 140.523 53.6569 139.891 58.8995 138.374C64.1064 136.869 69.1443 134.933 73.9329 132.401C75.3659 131.64 76.4741 131.578 77.9026 132.428C80.0789 133.727 82.491 134.502 85.0856 134.493C85.9222 134.488 86.7589 134.502 87.4754 133.914C87.9872 133.491 88.3432 133.011 87.9872 132.388C87.0838 130.812 86.0513 129.335 84.0575 128.494Z" fill="#D39BE4"/>
<path d="M188.615 140.537C189.487 139.553 190.404 138.601 191.223 137.568C191.681 136.994 191.165 136.059 190.431 135.921C189.318 135.712 188.304 136.002 187.284 136.424C185.38 137.208 183.635 138.267 181.971 139.446C181.005 140.131 180.102 140.296 178.94 139.971C176.029 139.152 173.021 138.903 170.013 139.05C163.76 139.357 157.556 140.127 151.512 141.823C147.574 142.926 143.724 144.293 140.275 146.585C139.171 147.319 138.081 148.071 137.258 149.13C136.296 150.363 136.528 151.627 137.801 152.544C138.526 153.064 139.34 153.193 140.186 153.225C141.508 153.278 142.847 153.18 144.147 153.363C150.595 154.284 156.848 153.269 163.012 151.493C168.103 150.025 173.003 148.04 177.685 145.552C178.887 144.911 179.843 144.902 180.992 145.646C182.83 146.834 184.948 147.359 187.075 147.782C188.157 147.995 189.22 147.969 190.266 147.564C191.357 147.141 191.637 146.331 191.094 145.321C190.297 143.83 189.06 142.748 187.827 141.947C187.819 141.097 188.308 140.884 188.615 140.537Z" fill="#D39BE4"/>
<path d="M375.839 42.53C374.962 40.959 373.809 39.624 372.042 38.6227C373.529 36.9627 374.673 35.7343 375.75 34.4481C376.235 33.8696 375.776 32.9395 375.029 32.7837C373.92 32.5478 372.901 32.8104 371.873 33.2243C370.075 33.9452 368.415 34.9244 366.844 36.028C365.687 36.838 364.637 37.1539 363.177 36.7445C360.155 35.9078 357.013 35.7076 353.88 35.8945C348.838 36.2016 343.822 36.7935 338.891 37.9195C334.664 38.8852 330.547 40.2159 326.702 42.2586C325.002 43.162 323.36 44.1856 322.042 45.6187C320.56 47.2297 321.099 49.1834 323.217 49.8198C323.894 50.0245 324.637 50.0245 325.353 50.0646C326.551 50.1313 327.77 50.0556 328.954 50.2203C334.53 51.008 339.977 50.2515 345.371 48.903C351.223 47.4388 356.795 45.2047 362.14 42.4187C363.32 41.8046 364.285 41.7112 365.46 42.4677C367.405 43.7183 369.644 44.2657 371.9 44.6662C373.11 44.8798 374.317 44.7731 375.362 44.0521C375.879 43.705 376.217 43.2154 375.839 42.53Z" fill="#D39BE4"/>
<path d="M316.702 84.9244C318.166 83.3223 319.31 82.1118 320.4 80.8613C320.707 80.5097 320.872 80.0335 320.582 79.5395C320.311 79.0811 319.902 78.9209 319.399 78.872C318.277 78.7696 317.245 79.0677 316.283 79.584C314.699 80.4296 313.092 81.2573 311.606 82.2542C310.427 83.0419 309.381 83.2957 307.934 82.9041C304.913 82.0852 301.78 81.8715 298.651 82.0762C293.742 82.3922 288.851 82.944 284.045 84.0299C279.586 85.0357 275.251 86.4198 271.214 88.6183C269.63 89.4817 268.099 90.443 266.875 91.7915C265.429 93.3847 265.958 95.374 268.019 96.0015C268.691 96.2062 269.434 96.2107 270.151 96.2508C271.348 96.322 272.563 96.2418 273.742 96.4065C279.31 97.1942 284.752 96.4466 290.133 95.107C295.861 93.6829 301.317 91.5066 306.555 88.8141C307.934 88.1065 309.052 87.8039 310.493 88.7652C312.305 89.9712 314.454 90.4474 316.586 90.8435C317.788 91.066 318.971 90.9949 320.071 90.3495C320.752 89.949 320.974 89.2458 320.551 88.5605C319.661 87.1097 318.713 85.73 316.702 84.9244Z" fill="#D39BE4"/>
<path d="M246.808 100.158C245.945 98.3112 244.739 96.7357 242.625 95.632C243.876 94.288 244.788 93.3401 245.665 92.3611C246.199 91.7647 247.071 91.1995 246.372 90.2471C245.789 89.4505 244.846 89.5617 244.054 89.7754C243.021 90.0513 241.998 90.4339 241.045 90.9279C239.768 91.5866 238.531 92.3299 237.347 93.1488C236.297 93.8742 235.322 94.1456 234.009 93.7807C230.867 92.904 227.618 92.6993 224.378 92.8995C219.47 93.2066 214.583 93.7851 209.777 94.8755C205.558 95.8323 201.446 97.1363 197.596 99.1524C195.785 100.1 194.036 101.168 192.652 102.704C191.339 104.159 191.824 106.086 193.684 106.745C194.347 106.981 195.09 107.012 195.803 107.061C197 107.136 198.215 107.038 199.394 107.203C205.326 108.035 211.107 107.216 216.831 105.699C222.064 104.31 227.093 102.365 231.891 99.8643C233.613 98.9654 235.055 98.5827 236.835 99.8021C238.526 100.959 240.6 101.342 242.616 101.658C244.214 101.912 245.745 101.774 246.808 100.158Z" fill="#D39BE4"/>
<path d="M112.669 80.4073C107.071 81.1906 101.597 82.4768 96.3941 84.7643C94.1912 85.7344 92.0817 86.8782 90.2393 88.4403C89.229 89.2948 88.152 90.2293 88.6683 91.7647C89.1623 93.2244 90.5107 93.5137 91.8458 93.7228C92.0817 93.7584 92.322 93.7808 92.5624 93.7941C94.5962 93.8965 96.63 94.0077 98.6683 94.0967C103.991 94.3326 109.185 93.625 114.298 92.1386C119.501 90.6299 124.516 88.6716 129.296 86.1438C130.613 85.4496 131.628 85.3828 132.941 86.1705C135.224 87.5368 137.734 88.3557 140.453 88.3201C141.174 88.3112 141.873 88.2622 142.522 87.8573C143.194 87.4434 143.444 86.7179 143.105 86.0593C142.264 84.4171 140.951 83.2155 139.363 82.2276C140.587 80.8969 141.73 79.6819 142.843 78.4358C143.172 78.0664 143.341 77.5725 143.114 77.1096C142.834 76.5266 142.251 76.1839 141.641 76.2952C140.591 76.491 139.51 76.7179 138.557 77.1719C137.048 77.8928 135.575 78.7251 134.196 79.6686C133.034 80.4608 131.975 80.8434 130.542 80.3806C128.125 79.5973 125.584 79.6018 123.061 79.5618C119.567 79.5084 116.114 79.9222 112.669 80.4073Z" fill="#D39BE4"/>
<path d="M106.212 110.43C108.125 110.327 110.039 110.22 111.944 110.011C113.021 109.891 113.404 108.752 112.869 107.799C112.491 107.123 111.815 106.843 111.294 106.362C111.018 106.108 110.92 105.81 111.161 105.441C111.481 104.947 111.846 104.453 112.024 103.905C112.295 103.078 111.583 102.187 110.733 102.112C109.977 102.045 109.282 102.254 108.686 102.664C107.404 103.545 106.127 104.439 104.93 105.427C104.213 106.024 103.546 106.179 102.634 106.006C99.0599 105.329 95.4818 105.57 91.8903 106.001C85.0857 106.825 78.5303 108.859 71.8057 110.056C69.9321 110.39 69.0554 111.818 68.0718 113.14C67.7514 113.572 68.0095 114.11 68.4457 114.373C69.1577 114.804 69.8921 115.249 70.6798 115.499C74.2445 116.625 77.8894 117.31 82.0016 117.168C84.5516 117.368 87.3999 116.847 90.217 116.295C94.9433 115.374 99.5895 114.141 103.51 111.142C104.36 110.496 105.25 110.483 106.212 110.43Z" fill="#D39BE4"/>
<path d="M56.3851 152.797C55.7754 152.361 55.673 151.934 56.1581 151.355C56.3895 151.079 56.6254 150.79 56.7722 150.47C57.2529 149.402 56.4029 148.147 55.2547 148.302C54.5604 148.396 53.8261 148.614 53.2475 148.988C52.0415 149.762 50.8888 150.635 49.7896 151.56C49.0953 152.148 48.4545 152.406 47.5199 152.214C43.9462 151.489 40.3592 151.729 36.7722 152.17C29.9631 152.998 23.3943 154.996 16.6742 156.242C15.308 156.496 14.3422 157.252 13.5501 158.432C12.5621 159.9 12.5532 160.381 14.0886 161.097C14.8451 161.453 15.6462 161.725 16.4517 161.965C19.6916 162.926 22.9982 163.46 26.4918 163.363C29.7762 163.465 33.0828 162.891 36.3761 162.192C40.6351 161.289 44.7473 160.007 48.2898 157.368C49.1354 156.736 50.0032 156.647 50.9778 156.602C52.8915 156.518 54.8052 156.393 56.7099 156.197C57.738 156.091 58.2809 154.853 57.6846 154.008C57.3463 153.532 56.8657 153.136 56.3851 152.797Z" fill="#D39BE4"/>
<path d="M215.215 120.154C214.125 119.602 214.276 118.948 214.975 118.187C215.131 118.018 215.229 117.777 215.313 117.555C215.696 116.522 215.077 115.61 214 115.543C213.253 115.499 212.558 115.646 211.944 116.051C210.943 116.709 209.821 117.27 209.02 118.124C207.881 119.335 206.666 119.446 205.139 119.241C200.947 118.681 196.746 118.943 192.612 119.762C186.969 120.879 181.366 122.179 175.731 123.327C174.12 123.656 172.879 124.27 171.966 125.735C171.165 127.021 171.125 127.506 172.46 128.169C173.208 128.543 173.991 128.859 174.792 129.099C178.028 130.069 181.352 130.47 185.082 130.679C186.755 130.514 188.793 130.416 190.805 130.096C196.515 129.192 202.158 128.04 206.92 124.448C207.761 123.816 208.633 123.71 209.608 123.696C211.406 123.665 213.208 123.652 214.997 123.496C216.417 123.371 216.929 121.961 216.025 120.861C215.798 120.581 215.522 120.31 215.215 120.154Z" fill="#D39BE4"/>
<path d="M289.59 109.5C288.477 108.917 288.286 108.2 289.172 107.248C289.327 107.079 289.421 106.834 289.488 106.611C289.79 105.588 289.042 104.698 287.965 104.711C286.951 104.724 286.101 105.134 285.304 105.69C283.938 106.638 282.701 108.044 281.196 108.445C279.67 108.85 277.881 108.276 276.208 108.129C276.087 108.12 275.967 108.115 275.847 108.111C275.843 108.067 275.838 108.026 275.834 107.982C272.963 108.258 270.057 108.32 267.236 108.85C261.339 109.962 255.487 111.32 249.616 112.579C249.145 112.682 248.664 112.753 248.219 112.922C246.768 113.474 245.754 114.818 245.567 116.051C245.366 117.337 247.111 117.613 248.215 118.018C248.887 118.267 249.585 118.454 250.284 118.641C255.487 120.025 260.747 120.091 266.007 119.144C270.502 118.334 275.073 117.528 278.949 114.951C281.254 113.42 283.546 112.521 286.301 112.828C286.888 112.895 287.498 112.775 288.099 112.744C288.459 112.726 288.824 112.744 289.18 112.686C290.573 112.459 291.023 111.164 290.115 109.989C289.959 109.807 289.79 109.606 289.59 109.5Z" fill="#D39BE4"/>
<path d="M344.717 63.2511C344.525 63.1087 344.298 63.0241 344.098 62.8906C343.595 62.5524 343.635 62.1251 343.929 61.6801C344.129 61.3819 344.374 61.1105 344.557 60.8034C344.886 60.2471 344.917 59.673 344.499 59.1389C344.089 58.6182 343.511 58.5115 342.892 58.5427C342.153 58.5827 341.486 58.8452 340.894 59.2814C339.83 60.0602 338.727 60.7901 337.739 61.6535C337.04 62.2632 336.359 62.4589 335.451 62.361C333.426 62.1385 331.392 62.0139 330.124 61.9115C326.733 62.223 324.089 62.2409 321.49 62.8194C315.99 64.0388 310.498 65.3117 304.957 66.3086C302.91 66.6779 301.904 67.9907 300.769 69.3481C300.404 69.7842 300.618 70.256 300.987 70.6031C302.082 71.6356 303.515 71.9472 304.89 72.3255C310.547 73.8831 316.265 73.9409 321.998 72.8239C325.647 72.1118 329.305 71.3686 332.638 69.6241C334.325 68.7385 335.838 67.3366 337.618 66.856C339.532 66.3353 341.668 66.6246 343.702 66.5578C344.57 66.5267 345.438 66.4065 345.691 65.4007C345.923 64.475 345.438 63.7851 344.717 63.2511Z" fill="#D39BE4"/>
<path d="M159.71 166.149C159.033 165.712 159.1 165.227 159.532 164.676C159.679 164.489 159.826 164.293 159.959 164.097C160.333 163.554 160.4 162.953 160.053 162.41C159.616 161.725 158.873 161.569 158.148 161.756C157.462 161.934 156.773 162.201 156.176 162.575C155.264 163.145 154.307 163.732 153.591 164.511C152.638 165.543 151.606 165.623 150.337 165.454C148.557 165.218 146.75 165.156 145.642 165.072C142.318 165.392 139.67 165.401 137.066 165.975C131.557 167.19 126.043 168.423 120.502 169.477C118.664 169.829 117.507 170.817 116.51 172.214C116.025 172.895 116.087 173.719 116.781 174.048C117.97 174.609 119.185 175.161 120.449 175.508C125.749 176.967 131.125 177.132 136.519 176.166C141.975 175.187 147.387 173.999 151.913 170.483C152.656 169.905 153.439 169.896 154.28 169.878C156.083 169.829 157.89 169.82 159.683 169.678C161.103 169.566 161.681 168.173 160.818 167.052C160.533 166.683 160.106 166.407 159.71 166.149Z" fill="#D39BE4"/>
</svg>
