<svg width="299" height="141" viewBox="0 0 299 141" fill="none" xmlns="http://www.w3.org/2000/svg">
<path d="M183.605 99.3947C182.005 98.5418 180.363 97.6642 179.567 95.8911C179.191 95.0559 178.685 95.0559 177.96 95.3142C177.422 95.5053 176.856 95.6257 176.293 95.7248C172.768 96.3618 169.257 96.3724 165.789 95.3815C164.703 95.0701 163.599 94.7126 163.05 93.5943C163.68 92.6706 164.979 92.9644 165.492 92.1044C166.355 90.6534 167.757 90.5189 169.197 90.3773C169.7 90.3278 170.312 90.6427 170.68 90.0234C170.585 89.8359 170.535 89.6483 170.418 89.5209C168.656 87.6559 166.883 85.7979 165.113 83.9364C164.604 83.3984 164.781 82.5172 165.485 82.3048C166.019 82.142 166.607 82.0501 167.162 82.0748C168.132 82.1138 169.045 82.4677 169.866 82.956C171.098 83.6886 172.336 84.4282 173.455 85.313C175.249 86.7357 177.004 88.2221 178.664 89.8005C179.62 90.71 180.476 91.2621 181.913 91.0321C183.304 90.8056 184.776 90.9435 186.202 91.0674C195.496 91.8637 204.439 94.2349 213.226 97.2537C213.941 97.4979 214.67 97.8021 215.282 98.2374C217.335 99.6884 217.37 102.3 215.356 103.801C214.836 104.19 214.185 104.438 213.562 104.657C212.288 105.11 210.958 105.223 209.613 105.252C204.226 105.354 198.928 104.732 193.73 103.334C190.215 102.396 186.818 101.111 183.605 99.3947Z" fill="#D39BE4"/>
<path d="M253.323 56.7037C252.683 57.0894 251.932 57.3797 251.2 57.5141C249.89 57.7548 248.553 57.9636 247.225 57.9636C245.321 57.9636 243.41 57.7972 241.51 57.6486C234.963 57.139 228.734 55.4296 222.842 52.5312C220.782 51.519 218.712 50.4998 217.661 48.2384C217.494 47.881 217.101 47.7394 216.68 47.8633C216.316 47.9694 215.955 48.0968 215.583 48.1888C212.193 49.0205 208.778 49.1692 205.363 48.3835C203.89 48.0437 202.337 47.7925 201.402 46.4193C201.562 45.846 201.99 45.6549 202.461 45.5169C202.914 45.3824 203.423 45.3223 203.692 44.8657C204.676 43.2024 206.283 43.1174 207.95 43.1245C208.349 43.1245 208.912 43.4147 209.149 42.5441C206.973 40.9374 205.585 38.4707 203.462 36.6871C202.818 36.1456 203.119 35.1795 203.929 34.861C204.683 34.5672 205.43 34.6238 206.176 34.8362C207.475 35.2078 208.65 35.8341 209.772 36.5773C212.409 38.3256 214.836 40.3323 217.066 42.5725C217.922 43.4325 218.758 43.9137 220.06 43.7722C222.343 43.5244 224.643 43.7156 226.922 43.981C235.31 44.9507 243.41 47.1448 251.37 49.8947C252.088 50.1424 252.824 50.4113 253.454 50.8218C255.747 52.3259 255.684 55.281 253.323 56.7037Z" fill="#D39BE4"/>
<path d="M68.8064 21.6215C68.3003 22.032 67.674 22.34 67.0546 22.5594C65.7877 23.0088 64.4641 23.1786 63.1122 23.2105C58.4088 23.3202 53.755 22.8673 49.172 21.8339C44.9641 20.8854 40.9155 19.4592 37.0828 17.4596C35.2956 16.5253 33.5331 15.538 32.6696 13.5562C32.4821 13.128 32.1317 13.0218 31.7424 13.1103C31.0912 13.2554 30.4613 13.496 29.8066 13.6269C26.1933 14.356 22.5905 14.3418 19.0303 13.3367C17.9403 13.0288 16.8361 12.6608 16.284 11.4292C17.3528 10.6365 18.8038 10.5374 19.5293 9.21026C19.8761 8.57678 20.8671 8.5414 21.6173 8.42107C22.364 8.30428 23.1285 8.3113 23.8858 8.26529C23.9672 8.08834 24.0451 7.91493 24.1265 7.73798C21.8544 6.2339 20.637 3.76722 18.5561 2.08266C18.2623 1.84554 18.0571 1.48815 18.1349 1.07055C18.234 0.546775 18.595 0.260061 19.0834 0.129117C20.2583 -0.185854 21.3519 0.118507 22.4242 0.578578C23.9247 1.22622 25.2696 2.1428 26.5648 3.12664C28.621 4.69089 30.5958 6.34716 32.4077 8.19098C32.9528 8.74307 33.473 9.19251 34.3861 9.06156C37.741 8.57672 41.0641 9.16775 44.3696 9.61013C51.8758 10.6117 59.1202 12.7174 66.276 15.1416C67.182 15.4495 68.088 15.7538 68.8312 16.3944C70.5051 17.8312 70.5193 20.2307 68.8064 21.6215Z" fill="#D39BE4"/>
<path d="M112.495 58.505C111.968 58.8872 111.317 59.1279 110.694 59.3509C109.42 59.8039 108.086 59.9135 106.741 59.9312C103.485 59.9737 100.243 59.7862 97.0229 59.2943C91.3074 58.4201 85.8609 56.7249 80.7258 54.0565C79.2819 53.3063 77.8875 52.4534 76.9603 51.0448C76.656 50.5848 76.5852 49.9336 75.8349 49.7849C72.5649 50.8855 69.1497 51.0271 65.6957 50.6484C64.2624 50.4892 62.868 50.1636 61.5656 49.5301C60.9746 49.2435 60.3411 48.9462 60.2916 48.1074C61.1586 47.2793 62.6238 47.3855 63.2821 46.0654C63.6572 45.3081 64.7507 45.2409 65.5966 45.117C66.3397 45.0073 67.1042 45.0355 68.5233 44.9718C65.7877 42.8201 64.365 40.3924 62.2628 38.5911C61.7213 38.1275 61.9974 37.2356 62.6698 36.956C63.8235 36.4783 64.9312 36.7614 66.0106 37.179C67.5395 37.77 68.8914 38.6796 70.1937 39.6528C72.2641 41.1993 74.2707 42.8308 76.0614 44.6923C76.8541 45.5169 77.615 45.8814 78.8183 45.7221C80.2233 45.5346 81.6849 45.6089 83.1111 45.7257C92.5107 46.4937 101.546 48.886 110.422 51.9473C111.136 52.195 111.866 52.4993 112.478 52.9346C114.52 54.3962 114.527 57.0328 112.495 58.505Z" fill="#D39BE4"/>
<path d="M266.145 88.9723C264.365 88.0628 262.571 87.1002 261.668 85.1396C261.424 84.6123 261.045 84.4601 260.525 84.584C260.153 84.6725 259.799 84.8175 259.428 84.9096C256.041 85.7448 252.629 85.8757 249.221 85.0865C247.749 84.7468 246.21 84.4636 245.222 83.1117C245.336 82.9489 245.41 82.7402 245.555 82.6446C246.479 82.043 247.689 81.9616 248.294 80.7512C248.62 80.1001 249.561 79.9408 250.34 79.9054C251.193 79.863 252.053 79.8948 252.909 79.8948C253.015 79.7108 253.121 79.5267 253.228 79.3427C250.913 77.7608 249.586 75.2764 247.466 73.5069C246.684 72.8522 246.981 71.8046 247.958 71.5179C248.818 71.2667 249.635 71.4083 250.478 71.6808C252.329 72.2824 253.889 73.3795 255.418 74.5155C257.489 76.0515 259.47 77.7077 261.258 79.5656C261.99 80.3301 262.758 80.5707 263.795 80.4752C265.986 80.2699 268.187 80.4008 270.367 80.6415C279.041 81.6006 287.404 83.8584 295.614 86.7321C296.241 86.9515 296.878 87.2029 297.419 87.578C299.56 89.0538 299.514 91.8496 297.355 93.3253C296.637 93.8173 295.834 94.1216 294.981 94.2667C293.572 94.5073 292.164 94.7586 290.72 94.7055C287.188 94.5816 283.67 94.3233 280.195 93.6863C275.29 92.7945 270.59 91.2444 266.145 88.9723Z" fill="#D39BE4"/>
<path d="M171.54 67.0305C171.024 67.4268 170.387 67.7029 169.764 67.9223C168.677 68.301 167.548 68.4921 166.391 68.5204C157.356 68.761 148.714 67.0941 140.567 63.1128C139.459 62.5713 138.426 61.86 137.382 61.1946C136.313 60.5151 135.8 59.3366 135.134 58.3457C134.158 58.5864 133.337 58.827 132.498 58.9863C128.98 59.6552 125.473 59.641 121.994 58.6961C121.067 58.4448 120.161 58.1299 119.492 57.3902C119.195 57.0646 119.202 56.7214 119.577 56.4418C120.189 55.9888 121.163 56.1303 121.573 55.426C122.493 53.8441 124.001 53.7556 125.547 53.6636C125.986 53.6389 126.485 53.8619 126.949 53.2744C126.046 52.3542 125.144 51.3951 124.195 50.4856C123.236 49.5619 122.773 48.2101 121.541 47.52C121.095 47.2722 120.904 46.7945 121.017 46.2848C121.166 45.6089 121.75 45.4461 122.32 45.3647C123.396 45.2125 124.394 45.5239 125.367 45.9557C126.952 46.6599 128.357 47.6508 129.723 48.6984C131.698 50.2095 133.591 51.8198 135.326 53.6035C135.888 54.1839 136.447 54.4847 137.336 54.3679C140.691 53.9184 144.014 54.5024 147.319 54.9483C154.73 55.9499 161.882 58.0166 168.946 60.4161C169.852 60.724 170.765 61.0106 171.53 61.6122C173.366 63.0526 173.388 65.6149 171.54 67.0305Z" fill="#D39BE4"/>
<path d="M232.156 102.18C231.038 100.973 230.125 99.9998 229.23 99.0124C228.957 98.7152 228.809 98.301 229.07 97.979C229.29 97.7065 229.669 97.434 229.998 97.4057C230.971 97.3243 231.895 97.6393 232.737 98.0923C233.997 98.7682 235.25 99.4654 236.449 100.244C237.214 100.739 237.875 100.994 238.838 100.693C241.142 99.9715 243.545 99.9361 245.937 100.01C251.791 100.191 257.528 101.086 263.101 102.916C265.009 103.542 266.871 104.3 268.608 105.308C269.765 105.977 270.905 106.692 271.811 107.701C272.989 109.01 272.582 110.496 270.884 111.02C270.342 111.187 269.762 111.254 269.192 111.293C267.762 111.392 266.333 111.456 264.903 111.526C260.571 111.746 256.331 111.243 252.162 110.036C248.022 108.84 244.016 107.301 240.208 105.287C239.068 104.682 238.187 104.632 237.051 105.308C235.32 106.342 233.402 106.957 231.339 106.95C230.674 106.947 230.008 106.957 229.438 106.49C229.031 106.154 228.748 105.772 229.031 105.276C229.75 104.024 230.571 102.849 232.156 102.18Z" fill="#D39BE4"/>
<path d="M149.011 111.756C148.317 110.974 147.588 110.217 146.937 109.396C146.573 108.939 146.983 108.196 147.567 108.086C148.452 107.92 149.259 108.15 150.069 108.486C151.584 109.109 152.971 109.951 154.295 110.889C155.063 111.434 155.781 111.565 156.705 111.307C159.019 110.656 161.412 110.458 163.804 110.574C168.776 110.819 173.71 111.431 178.516 112.779C181.648 113.657 184.709 114.743 187.452 116.566C188.329 117.15 189.196 117.748 189.851 118.59C190.615 119.571 190.431 120.576 189.419 121.305C188.842 121.719 188.195 121.821 187.522 121.846C186.471 121.889 185.406 121.811 184.373 121.956C179.245 122.688 174.272 121.881 169.371 120.469C165.322 119.302 161.426 117.723 157.703 115.745C156.747 115.235 155.986 115.228 155.073 115.819C153.612 116.764 151.927 117.182 150.235 117.518C149.375 117.688 148.53 117.667 147.698 117.344C146.831 117.008 146.608 116.364 147.04 115.561C147.673 114.375 148.657 113.515 149.637 112.878C149.644 112.202 149.255 112.032 149.011 111.756Z" fill="#D39BE4"/>
<path d="M0.128376 33.8204C0.825558 32.5711 1.74217 31.5095 3.14716 30.7132C1.96513 29.3932 1.0556 28.4164 0.199158 27.3936C-0.186592 26.9335 0.177921 26.1939 0.772476 26.07C1.65369 25.8824 2.46413 26.0912 3.28164 26.4204C4.7114 26.9937 6.03144 27.7723 7.28071 28.65C8.20086 29.2941 9.03606 29.5453 10.1968 29.2197C12.5998 28.5544 15.0984 28.3951 17.5898 28.5438C21.5995 28.788 25.588 29.2587 29.5092 30.154C32.8713 30.922 36.1448 31.9802 39.2025 33.6046C40.5544 34.323 41.8603 35.137 42.9079 36.2765C44.0864 37.5577 43.6581 39.1113 41.9736 39.6173C41.4356 39.7801 40.8446 39.7801 40.2749 39.812C39.3229 39.8651 38.3532 39.8049 37.4118 39.9358C32.9774 40.5622 28.6457 39.9606 24.3564 38.8883C19.7026 37.7239 15.2718 35.9473 11.0214 33.7319C10.0836 33.2435 9.31564 33.1693 8.38134 33.7709C6.83479 34.7653 5.05468 35.2006 3.26041 35.5191C2.2978 35.689 1.33872 35.6041 0.50705 35.0308C0.0965271 34.7548 -0.17244 34.3654 0.128376 33.8204Z" fill="#D39BE4"/>
<path d="M47.1548 67.533C45.9905 66.2589 45.081 65.2964 44.2139 64.3019C43.9697 64.0223 43.8388 63.6437 44.0688 63.2508C44.2847 62.8863 44.6103 62.7589 45.0102 62.72C45.902 62.6386 46.7231 62.8757 47.4875 63.2862C48.7474 63.9586 50.025 64.6168 51.207 65.4096C52.1448 66.036 52.9765 66.2378 54.1267 65.9264C56.5297 65.2752 59.0211 65.1053 61.509 65.2681C65.4126 65.5193 69.3019 65.9581 73.124 66.8216C76.6701 67.6215 80.1171 68.7221 83.327 70.4704C84.5869 71.1569 85.8043 71.9214 86.7775 72.9937C87.9277 74.2607 87.5066 75.8426 85.868 76.3416C85.3336 76.5044 84.7426 76.508 84.1728 76.5398C83.2208 76.5965 82.2547 76.5327 81.3169 76.6636C76.8896 77.29 72.5613 76.6955 68.2827 75.6303C63.728 74.4978 59.3892 72.7672 55.2238 70.6261C54.1267 70.0634 53.2384 69.8228 52.0917 70.5872C50.6514 71.5463 48.942 71.9249 47.2468 72.2399C46.2913 72.4168 45.3499 72.3603 44.4758 71.8471C43.9343 71.5286 43.7574 70.9694 44.0936 70.4244C44.8014 69.2707 45.5552 68.1735 47.1548 67.533Z" fill="#D39BE4"/>
<path d="M102.735 79.647C103.421 78.1783 104.38 76.9255 106.061 76.0478C105.067 74.979 104.341 74.2253 103.644 73.4467C103.22 72.9725 102.526 72.523 103.082 71.7657C103.545 71.1322 104.295 71.2206 104.925 71.3905C105.746 71.6099 106.56 71.9142 107.318 72.3071C108.333 72.8308 109.317 73.4219 110.259 74.0731C111.094 74.65 111.869 74.8658 112.913 74.5756C115.411 73.8784 117.995 73.7156 120.571 73.8749C124.475 74.1191 128.361 74.5791 132.183 75.4462C135.538 76.2071 138.808 77.244 141.869 78.8472C143.309 79.601 144.7 80.4504 145.801 81.6713C146.845 82.8286 146.459 84.3609 144.98 84.8847C144.453 85.0723 143.861 85.097 143.295 85.136C142.343 85.1961 141.377 85.1183 140.439 85.2492C135.722 85.911 131.125 85.2599 126.573 84.0531C122.412 82.9489 118.413 81.4023 114.597 79.4134C113.228 78.6985 112.081 78.3942 110.666 79.3639C109.321 80.284 107.672 80.5884 106.068 80.8396C104.798 81.0414 103.581 80.9317 102.735 79.647Z" fill="#D39BE4"/>
<path d="M209.404 63.9409C213.856 64.5638 218.209 65.5866 222.346 67.4056C224.098 68.1771 225.776 69.0867 227.241 70.3288C228.044 71.0083 228.9 71.7515 228.49 72.9725C228.097 74.1333 227.025 74.3633 225.963 74.5296C225.776 74.5579 225.584 74.5757 225.393 74.5863C223.776 74.6677 222.159 74.7561 220.538 74.8269C216.305 75.0145 212.175 74.4518 208.109 73.2698C203.972 72.0701 199.983 70.5128 196.182 68.5027C195.135 67.9506 194.328 67.8975 193.284 68.5239C191.468 69.6104 189.472 70.2616 187.31 70.2333C186.737 70.2262 186.181 70.1873 185.664 69.8652C185.13 69.5361 184.932 68.9592 185.201 68.4354C185.87 67.1296 186.914 66.1741 188.177 65.3884C187.204 64.3302 186.294 63.3641 185.41 62.3732C185.148 62.0794 185.013 61.6866 185.194 61.3186C185.417 60.8549 185.88 60.5824 186.365 60.6709C187.2 60.8266 188.06 61.0071 188.818 61.3681C190.017 61.9414 191.189 62.6032 192.286 63.3535C193.21 63.9834 194.052 64.2877 195.191 63.9197C197.113 63.2968 199.134 63.3004 201.141 63.2685C203.919 63.2261 206.665 63.5552 209.404 63.9409Z" fill="#D39BE4"/>
<path d="M214.539 87.815C213.017 87.7336 211.496 87.6487 209.981 87.4824C209.124 87.3868 208.82 86.4809 209.245 85.7235C209.546 85.1856 210.083 84.9626 210.498 84.5804C210.717 84.3787 210.795 84.1416 210.604 83.8478C210.349 83.455 210.059 83.0622 209.917 82.6269C209.701 81.9686 210.267 81.2608 210.943 81.2007C211.545 81.1476 212.097 81.3139 212.571 81.6395C213.591 82.3402 214.606 83.0515 215.558 83.8372C216.128 84.3114 216.659 84.4353 217.384 84.2973C220.226 83.7594 223.072 83.9505 225.928 84.2937C231.339 84.9485 236.552 86.5658 241.899 87.5178C243.389 87.7832 244.086 88.9192 244.868 89.9703C245.123 90.3136 244.918 90.7418 244.571 90.9506C244.005 91.2939 243.421 91.6478 242.794 91.846C239.96 92.7414 237.061 93.2864 233.791 93.1731C231.763 93.3324 229.498 92.9183 227.258 92.4794C223.5 91.7469 219.805 90.7666 216.687 88.3813C216.011 87.8682 215.303 87.8575 214.539 87.815Z" fill="#D39BE4"/>
<path d="M254.162 121.506C254.647 121.16 254.728 120.82 254.342 120.36C254.158 120.14 253.971 119.91 253.854 119.656C253.472 118.806 254.148 117.808 255.061 117.932C255.613 118.006 256.197 118.18 256.657 118.477C257.616 119.093 258.533 119.787 259.407 120.523C259.959 120.99 260.468 121.195 261.212 121.043C264.053 120.466 266.906 120.657 269.758 121.007C275.173 121.666 280.396 123.255 285.74 124.246C286.827 124.447 287.595 125.049 288.225 125.987C289.01 127.155 289.017 127.537 287.797 128.107C287.195 128.39 286.558 128.606 285.917 128.797C283.341 129.561 280.711 129.986 277.933 129.908C275.322 129.989 272.692 129.533 270.073 128.977C266.686 128.259 263.416 127.24 260.599 125.141C259.927 124.638 259.237 124.568 258.462 124.532C256.94 124.465 255.418 124.366 253.903 124.21C253.086 124.125 252.654 123.141 253.128 122.469C253.397 122.09 253.78 121.775 254.162 121.506Z" fill="#D39BE4"/>
<path d="M127.858 95.5478C128.725 95.109 128.605 94.5887 128.049 93.9835C127.925 93.8491 127.847 93.658 127.78 93.481C127.476 92.66 127.968 91.9345 128.824 91.8814C129.419 91.846 129.971 91.9628 130.459 92.2849C131.256 92.8087 132.147 93.2545 132.784 93.934C133.69 94.8966 134.656 94.9851 135.87 94.8223C139.204 94.3764 142.545 94.5852 145.833 95.2364C150.32 96.1247 154.776 97.158 159.256 98.0711C160.537 98.333 161.525 98.8214 162.25 99.9858C162.887 101.009 162.919 101.394 161.857 101.922C161.263 102.219 160.64 102.47 160.003 102.661C157.43 103.433 154.786 103.751 151.821 103.918C150.49 103.787 148.869 103.709 147.27 103.454C142.729 102.736 138.242 101.819 134.455 98.9629C133.786 98.4604 133.092 98.3755 132.317 98.3649C130.887 98.3401 129.454 98.3295 128.031 98.2056C126.903 98.1065 126.496 96.9846 127.214 96.1105C127.394 95.8875 127.614 95.6717 127.858 95.5478Z" fill="#D39BE4"/>
<path d="M68.7144 87.0755C69.5992 86.6119 69.7513 86.0421 69.0471 85.2847C68.9232 85.1502 68.8489 84.9556 68.7958 84.7787C68.5552 83.9647 69.1497 83.2569 70.0061 83.2675C70.813 83.2781 71.489 83.6037 72.1225 84.0461C73.2089 84.7999 74.1928 85.9182 75.389 86.2367C76.6029 86.5588 78.0255 86.1022 79.3562 85.9854C79.4517 85.9784 79.5473 85.9748 79.6429 85.9713C79.6464 85.9359 79.6499 85.904 79.6535 85.8686C81.9361 86.088 84.2471 86.1376 86.4908 86.5587C91.18 87.4435 95.8338 88.5229 100.502 89.5245C100.877 89.6058 101.259 89.6625 101.613 89.797C102.767 90.2358 103.574 91.3046 103.722 92.2849C103.882 93.3077 102.494 93.5271 101.617 93.8491C101.082 94.0473 100.527 94.1959 99.9709 94.3445C95.8338 95.4452 91.6507 95.4983 87.4676 94.7445C83.8932 94.1004 80.2587 93.4599 77.1762 91.4108C75.343 90.1934 73.5204 89.4785 71.3297 89.7227C70.8626 89.7757 70.3778 89.6801 69.9 89.6554C69.6133 89.6412 69.3231 89.6554 69.04 89.6094C67.9323 89.4289 67.5748 88.399 68.2968 87.4647C68.4207 87.3196 68.5552 87.1604 68.7144 87.0755Z" fill="#D39BE4"/>
<path d="M24.8768 50.2981C25.029 50.1848 25.2095 50.1176 25.3687 50.0114C25.7686 49.7424 25.7368 49.4027 25.5032 49.0488C25.344 48.8117 25.1493 48.5958 25.0042 48.3516C24.7423 47.9092 24.7176 47.4527 25.0502 47.028C25.3758 46.614 25.8359 46.5291 26.3278 46.5539C26.9153 46.5857 27.4461 46.7945 27.9168 47.1413C28.7626 47.7606 29.6403 48.341 30.426 49.0276C30.9816 49.5125 31.5231 49.6681 32.245 49.5903C33.8553 49.4133 35.4726 49.3142 36.4812 49.2328C39.1779 49.4805 41.2801 49.4947 43.3469 49.9548C47.7211 50.9245 52.0882 51.9367 56.4943 52.7294C58.1222 53.0231 58.922 54.0671 59.8245 55.1465C60.1147 55.4933 59.9448 55.8685 59.6511 56.1445C58.7805 56.9656 57.6409 57.2133 56.5474 57.5141C52.0493 58.7528 47.5017 58.7988 42.9435 57.9105C40.0415 57.3442 37.1324 56.7532 34.4817 55.3659C33.1404 54.6617 31.9371 53.5469 30.5215 53.1647C28.9998 52.7506 27.301 52.9807 25.6837 52.9276C24.9936 52.9028 24.3035 52.8072 24.1018 52.0074C23.9177 51.2713 24.3035 50.7227 24.8768 50.2981Z" fill="#D39BE4"/>
<path d="M171.997 132.123C172.535 131.777 172.481 131.391 172.138 130.952C172.021 130.803 171.905 130.648 171.798 130.492C171.501 130.06 171.448 129.582 171.724 129.151C172.071 128.606 172.662 128.482 173.239 128.63C173.784 128.772 174.332 128.984 174.807 129.282C175.532 129.735 176.293 130.202 176.863 130.821C177.62 131.642 178.441 131.706 179.45 131.571C180.865 131.384 182.302 131.334 183.183 131.267C185.827 131.522 187.933 131.529 190.003 131.985C194.384 132.952 198.769 133.932 203.175 134.771C204.637 135.05 205.557 135.836 206.35 136.947C206.736 137.489 206.686 138.143 206.134 138.405C205.189 138.851 204.223 139.29 203.218 139.566C199.003 140.727 194.728 140.858 190.438 140.09C186.1 139.311 181.796 138.366 178.197 135.57C177.606 135.11 176.983 135.103 176.314 135.089C174.881 135.05 173.444 135.043 172.018 134.93C170.889 134.841 170.429 133.734 171.115 132.842C171.342 132.548 171.682 132.329 171.997 132.123Z" fill="#D39BE4"/>
</svg>
