<svg width="339" height="307" viewBox="0 0 339 307" fill="none" xmlns="http://www.w3.org/2000/svg">
<g opacity="0.4">
<path opacity="0.6" d="M147.946 150.564C164.708 154.125 179.398 144.059 198.867 130.684C209.845 123.139 215.527 117.266 219.911 110.656C223.857 104.702 225.848 99.4901 227.096 96.1075C235.163 74.3102 242.224 47.9854 245.251 36.321C231.312 28.3961 213.857 19.9359 193.075 12.903C173.257 6.18987 155.138 2.37609 139.871 0.175537C136.683 8.93312 132.226 21.7127 127.449 37.4213C122.649 53.2117 120.235 61.2854 119.162 70.1768C117.178 86.7106 119.213 98.9251 121.409 112.047C125.297 135.331 130.512 140.877 132.562 142.817C138.551 148.475 145.378 150.021 147.946 150.564Z" fill="#A460FF"/>
<path opacity="0.6" d="M137.119 82.2129C138.447 81.5735 140.788 90.3831 149.899 96.68C151.445 97.7505 158.557 102.456 168.106 102.419C180.863 102.375 188.646 93.8921 189.66 95.3046C190.798 96.8956 181.097 107.943 167.763 114.485C158.251 119.154 154.312 117.883 153.036 117.377C151.278 116.678 148.586 115.028 143.976 105.244C139.198 95.0965 135.551 82.9637 137.119 82.2129Z" fill="#7031C3"/>
<path opacity="0.6" d="M136.077 41.8816C135.778 40.6996 147.376 32.0164 154.641 37.3021C160.411 41.4951 159.835 51.8436 158.369 52.3937C157.114 52.8695 155.852 45.9185 149.681 42.692C143.146 39.2796 136.296 42.7663 136.077 41.8816Z" fill="#7031C3"/>
<path opacity="0.6" d="M216.877 67.3665C217.781 66.5636 213.025 52.721 204.097 52.8994C197.015 53.0407 191.755 61.9098 192.653 63.2033C193.426 64.3185 198.32 59.3078 205.199 60.2073C212.486 61.1589 216.198 67.9687 216.877 67.3665Z" fill="#7031C3"/>
</g>
<g opacity="0.4">
<path opacity="0.6" d="M306.486 226.631C318.478 223.799 324.321 211.726 332.053 195.69C336.408 186.65 337.968 180.539 338.435 174.309C338.851 168.696 338.282 164.265 337.888 161.403C335.335 142.929 330.536 121.496 328.347 112.024C316.618 110.768 302.445 110.262 286.653 111.868C271.591 113.4 258.636 116.485 248.081 119.823C249.139 127.227 250.809 137.963 253.311 150.943C255.828 163.983 257.141 170.644 259.599 177.453C264.18 190.129 269.811 198.351 275.858 207.198C286.588 222.884 291.89 225.226 293.889 225.977C299.732 228.148 304.648 227.062 306.486 226.631Z" fill="#7E3DCE"/>
<path opacity="0.6" d="M275.36 180.398C275.988 179.506 280.605 185.156 288.665 186.791C290.037 187.066 296.259 188.196 302.349 185.081C310.497 180.918 312.481 172.227 313.634 172.934C314.925 173.722 312.627 184.903 306.405 193.973C301.97 200.448 298.994 200.797 297.995 200.842C296.616 200.901 294.311 200.574 287.899 194.947C281.254 189.103 274.624 181.453 275.36 180.398Z" fill="#7031C3"/>
<path opacity="0.6" d="M260.415 151.389C259.802 150.623 264.157 140.557 270.685 142.052C275.864 143.234 279.154 150.951 278.417 151.828C277.782 152.579 274.515 147.925 269.423 147.583C264.018 147.211 260.867 151.962 260.415 151.389Z" fill="#7031C3"/>
<path opacity="0.6" d="M321.169 143.791C321.461 142.914 313.517 134.38 307.864 137.398C303.378 139.792 303.152 147.947 304.188 148.601C305.078 149.159 306.434 143.933 311.161 142.357C316.158 140.699 320.95 144.453 321.169 143.791Z" fill="#7031C3"/>
</g>
<g opacity="0.4">
<path opacity="0.6" d="M38.0855 299.44C46.2864 300.082 52.3745 293.742 60.4426 285.315C64.9883 280.564 67.1795 277.075 68.6962 273.292C70.0596 269.883 70.5639 267.012 70.8727 265.153C72.8598 253.146 73.9932 238.848 74.4511 232.516C67.2178 229.382 58.2794 226.226 47.8953 224.058C37.9908 221.99 29.1265 221.312 21.743 221.272C20.9686 226.091 19.9331 233.105 18.9885 241.683C18.0416 250.301 17.5754 254.709 17.8104 259.439C18.251 268.244 20.2329 274.489 22.3577 281.206C26.1302 293.118 29.0534 295.638 30.1809 296.506C33.4817 299.029 36.8291 299.339 38.0855 299.44Z" fill="#7E3DCE"/>
<path opacity="0.6" d="M27.2847 264.432C27.8592 264.002 29.6979 268.444 34.5175 271.078C35.3381 271.524 39.0844 273.475 43.5777 272.758C49.5878 271.802 52.5535 266.792 53.1502 267.463C53.8193 268.212 50.1662 274.708 44.424 279.103C40.329 282.243 38.3629 281.863 37.717 281.691C36.8263 281.451 35.4205 280.786 32.4332 275.998C29.3394 271.03 26.6083 264.941 27.2847 264.432Z" fill="#7031C3"/>
<path opacity="0.6" d="M23.4309 243.386C23.19 242.786 27.9365 237.397 31.8069 239.636C34.878 241.41 35.4657 246.871 34.8243 247.269C34.2727 247.609 33.0996 244.058 29.92 242.824C26.5461 241.509 23.6072 243.832 23.4309 243.386Z" fill="#7031C3"/>
<path opacity="0.6" d="M63.6581 250.842C64.0158 250.354 60.6206 243.451 56.4253 244.196C53.0963 244.785 51.3563 249.814 51.8888 250.429C52.3471 250.955 54.2349 247.975 57.5573 247.942C61.0678 247.913 63.3891 251.21 63.6581 250.842Z" fill="#7031C3"/>
</g>
</svg>
