<svg width="120" height="231" viewBox="0 0 120 231" fill="none" xmlns="http://www.w3.org/2000/svg">
<path opacity="0.3" d="M105.549 73.8503C102.894 77.9239 97.1432 76.4768 88.6238 81.3971C87.7669 81.8891 72.9447 90.6732 75.48 100.188C76.5989 104.385 81.0746 108.697 86.4851 109.609C98.1205 111.57 113.297 97.6918 115.747 83.9078C116.491 79.7039 116.03 75.6592 110.556 62.7724C98.2763 33.837 85.26 17.9836 90.72 13.7435C92.6462 12.253 94.5654 13.9823 102.731 12.6727C111.88 11.1966 120.131 7.3038 119.642 5.78431C119.267 4.60489 114.054 6.13886 105.273 4.83644C93.6519 3.11435 89.856 -1.48755 84.5801 0.480548C80.5081 2.00004 79.1201 6.10265 78.8651 6.93475C77.6896 10.7769 79.5946 14.2066 80.3027 15.509C90.0331 33.3088 81.0959 25.2048 98.7224 55.3052C105.082 66.1949 107.957 70.1673 105.549 73.8503Z" fill="#A460FF"/>
<path opacity="0.3" d="M30.4995 194.309C27.8438 198.434 22.0934 196.969 13.574 201.951C12.7171 202.449 -2.10506 211.345 0.430214 220.98C1.54913 225.23 6.02484 229.597 11.4353 230.52C23.0707 232.506 38.2469 218.452 40.6972 204.494C41.4407 200.236 40.9805 196.141 35.5062 183.091C23.2265 153.789 10.2102 137.735 15.6702 133.441C17.5964 131.932 19.5156 133.683 27.6809 132.357C36.8305 130.862 45.0808 126.92 44.5921 125.381C44.2168 124.187 39.0047 125.74 30.2233 124.421C18.6021 122.677 14.8062 118.017 9.53027 120.01C5.45825 121.549 4.07026 125.704 3.81532 126.546C2.63975 130.437 4.54476 133.91 5.25294 135.229C14.9833 153.254 6.04611 145.048 23.6726 175.529C30.0321 186.557 32.9073 190.579 30.4995 194.309Z" fill="#A460FF"/>
</svg>
