<svg width="295" height="98" viewBox="0 0 295 98" fill="none" xmlns="http://www.w3.org/2000/svg">
<path opacity="0.6" d="M128.856 31.2334C127.102 31.4476 126.453 28.6034 123.779 27.6578C120.887 26.6347 116.385 28.0974 115.269 31.3959C114.443 33.8449 115.606 36.9329 117.578 38.4289C121.593 41.4762 129.077 38.1777 132.426 33.3647C133.716 31.5141 133.666 30.4836 134.912 25.63C137.732 14.652 139.142 9.16305 142.299 8.21375C145.245 7.32724 146.347 11.2389 154.683 13.6731C158.51 14.7923 159.945 14.4525 160.789 15.8747C162.069 18.0207 159.296 19.9119 156.129 29.0097C156.118 29.043 154.827 32.7405 152.189 36.8923C151.142 38.5397 150.468 39.3339 149.511 39.4595C147.612 39.7106 146.898 37.0289 144.422 36.5377C142.103 36.0796 139.254 37.6864 137.92 40.2462C136.638 42.71 136.699 46.1637 138.453 47.885C140.327 49.7245 143.408 48.8712 148.21 47.5378C151.37 46.6623 152.254 45.8164 152.566 45.4951C154.124 43.8772 154.066 42.1005 154.846 39.3191C155.125 38.3218 156.241 36.1166 158.466 31.7542C160.459 27.8388 162.264 23.8163 164.269 19.9082C165.468 17.5701 166.429 15.7601 165.954 13.5623C165.776 12.7349 165.316 11.4864 163.667 9.87595C160.684 6.95786 157.712 6.67345 153.715 5.26242C145.825 2.47731 145.227 -0.717811 142.52 0.14284C139.24 1.18079 137.939 6.55523 135.978 14.6631C134.713 19.8935 133.724 22.42 131.745 27.4657C131.14 28.9987 130.295 31.0598 128.856 31.2334Z" fill="#A460FF"/>
<g opacity="0.6">
<path opacity="0.6" d="M286.336 11.6082H276.152C274.72 11.6082 273.564 10.4262 273.564 8.97082V7.63736C273.564 6.17831 274.724 5 276.152 5H286.336C287.768 5 288.924 6.18201 288.924 7.63736V8.97082C288.927 10.4262 287.768 11.6082 286.336 11.6082Z" fill="#FA5C53"/>
<g opacity="0.6">
<path opacity="0.6" d="M287.456 52.6792H219.292C215.265 52.6792 212 49.3511 212 45.2473V19.7492C212 15.6454 215.265 12.3173 219.292 12.3173H287.456C291.483 12.3173 294.748 15.6454 294.748 19.7492V45.2473C294.748 49.3511 291.483 52.6792 287.456 52.6792Z" fill="#FA5C53"/>
<path opacity="0.6" d="M294.749 21.5369C267.292 21.5406 239.835 21.5443 212.377 21.548C212.33 21.2414 211.783 17.3186 214.204 14.4153C216.596 11.5416 219.742 12.2508 220.003 12.3136L290.574 12.8935C291.135 13.1779 292.654 14.0496 293.738 16.1329C294.948 18.4859 294.81 20.8388 294.749 21.5369Z" fill="#A460FF"/>
</g>
<path opacity="0.6" d="M252.964 54.9436C265.126 54.9436 274.985 44.8954 274.985 32.5002C274.985 20.105 265.126 10.0568 252.964 10.0568C240.803 10.0568 230.944 20.105 230.944 32.5002C230.944 44.8954 240.803 54.9436 252.964 54.9436Z" fill="#FFB9A8"/>
<path opacity="0.6" d="M252.979 45.5208C260.026 45.5208 265.74 39.6979 265.74 32.515C265.74 25.3321 260.026 19.5092 252.979 19.5092C245.931 19.5092 240.218 25.3321 240.218 32.515C240.218 39.6979 245.931 45.5208 252.979 45.5208Z" fill="#FE7B6C"/>
<path opacity="0.6" d="M245.375 33.4901C245.839 33.5972 245.843 31.4844 247.278 30.306C248.401 29.3863 249.253 29.981 249.924 29.028C250.598 28.0676 250.576 26.2614 249.876 25.6039C248.999 24.7765 247.271 25.9585 246.517 26.6861C246.412 26.7896 244.846 28.352 244.81 31.0042C244.795 32.0237 245.005 33.4051 245.375 33.4901Z" fill="#FFB9A8"/>
<path opacity="0.6" d="M251.268 38.968C251.261 38.8868 251.221 38.3216 251.457 37.8599C252.058 36.6853 253.729 37.6161 255.527 36.6963C255.86 36.5264 257.081 35.8394 257.687 34.3766C258.618 32.1234 257.212 30.162 258.241 28.7843C258.76 28.0898 259.695 27.8091 260.354 28.1378C261.681 28.799 262.007 31.972 261.514 34.1698C260.956 36.6668 259.336 37.9374 257.988 38.9976C257.824 39.1268 253.82 42.2112 252.134 40.6487C251.348 39.9173 251.268 38.968 251.268 38.968Z" fill="#FFB9A8"/>
</g>
<g opacity="0.6">
<path opacity="0.6" d="M63.2416 46.2491C61.6216 46.5667 60.0016 46.8807 58.3816 47.1984C59.3456 48.0738 60.3387 49.0305 61.3498 50.0722C62.158 50.9069 62.9118 51.7344 63.6149 52.5396C70.5626 51.5127 72.237 51.2726 72.2551 51.2763C72.2624 51.2763 76.1983 51.4093 78.67 50.1977C78.3329 49.4811 77.9922 48.7646 77.6552 48.0517C77.3036 47.6232 76.7745 47.0432 76.0497 46.467C75.2125 45.8021 73.5598 44.4908 71.5955 44.4908C70.1059 44.4908 69.7906 45.2407 67.7828 45.8575C65.9671 46.4042 64.347 46.371 63.2416 46.2491Z" fill="#FBD04F"/>
<path opacity="0.6" d="M57.1494 40.1838C55.5293 40.5014 53.9093 40.8154 52.2893 41.1331C53.2533 42.0085 54.2464 42.9652 55.2575 44.0068C56.0657 44.8416 56.8196 45.669 57.5227 46.4743C64.4703 45.4474 66.1447 45.2073 66.1628 45.211C66.1701 45.211 70.106 45.344 72.5777 44.1324C72.2406 43.4158 71.9 42.6992 71.5629 41.9863C71.2113 41.5579 70.6822 40.9779 69.9574 40.4017C69.1202 39.7368 67.4675 38.4255 65.5032 38.4255C64.0137 38.4255 63.6983 39.1754 61.6905 39.7922C59.8748 40.3389 58.2547 40.3057 57.1494 40.1838Z" fill="#FBCBB5"/>
<path opacity="0.6" d="M57.1494 40.1838C55.5293 40.5014 53.9093 40.8154 52.2893 41.1331C53.2533 42.0085 54.2464 42.9652 55.2575 44.0068C56.0657 44.8416 56.8196 45.669 57.5227 46.4743C64.4703 45.4474 66.1447 45.2073 66.1628 45.211C66.1701 45.211 70.106 45.344 72.5777 44.1324C72.2406 43.4158 71.9 42.6992 71.5629 41.9863C71.2113 41.5579 70.6822 40.9779 69.9574 40.4017C69.1202 39.7368 67.4675 38.4255 65.5032 38.4255C64.0137 38.4255 63.6983 39.1754 61.6905 39.7922C59.8748 40.3389 58.2547 40.3057 57.1494 40.1838Z" fill="#FBCBB5"/>
<path opacity="0.6" d="M19.6407 30.8951L0 66.3665L53.5418 97.113L73.1825 61.6416L19.6407 30.8951Z" fill="#FFB9A8"/>
<path opacity="0.6" d="M73.1251 61.689L67.4568 71.9244L59.0051 67.0671" fill="#FE7B6C"/>
<path opacity="0.6" d="M42.3701 57.4855C42.3701 57.4855 41.08 57.3673 35.1833 53.4334C37.173 52.2921 38.8982 51.5459 40.1413 51.0694C44.3707 49.4405 49.0605 48.5687 49.0605 48.5687C49.0605 48.5687 51.3329 49.8726 55.5587 52.3031C54.3736 52.8203 52.3114 53.7179 49.7273 54.8629C44.291 57.2602 43.6495 57.6037 42.3701 57.4855Z" fill="#7E3DCE"/>
<path opacity="0.6" d="M25.3506 47.7671C25.3506 47.7671 24.0604 47.6489 18.1638 43.7151C20.1535 42.5737 21.8786 41.8275 23.1217 41.351C27.3512 39.7221 32.0409 38.8503 32.0409 38.8503C32.0409 38.8503 34.3133 40.1542 38.5392 42.5848C37.3541 43.1019 35.2919 43.9995 32.7078 45.1445C27.2714 47.5455 26.6299 47.889 25.3506 47.7671Z" fill="#7E3DCE"/>
<path opacity="0.6" d="M72.2483 51.2763C72.2555 51.2763 76.1914 51.4093 78.6631 50.1977C78.3261 49.4811 77.9854 48.7645 77.6483 48.0516" fill="#FBD04F"/>
<path opacity="0.6" d="M37.9053 20.8284C36.2853 21.1461 34.6652 21.4601 33.0452 21.7777C34.0092 22.6532 35.0023 23.6099 36.0135 24.6515C36.8217 25.4863 37.5755 26.3137 38.2786 27.1189C45.2262 26.0921 46.9006 25.852 46.9187 25.8557C46.9259 25.8557 50.8618 25.9886 53.3336 24.7771C52.9965 24.0605 52.6559 23.3439 52.3188 22.631C51.9673 22.2025 51.4381 21.6226 50.7133 21.0464C49.8761 20.3815 48.2234 19.0702 46.2591 19.0702C44.7695 19.0702 44.4543 19.82 42.4465 20.4369C40.6307 20.9873 39.0107 20.9503 37.9053 20.8284Z" fill="#7E3DCE"/>
<path opacity="0.6" d="M63.2416 46.2491C61.6216 46.5667 60.0016 46.8807 58.3816 47.1984C59.3456 48.0738 60.3387 49.0305 61.3498 50.0722C62.158 50.9069 62.9118 51.7344 63.6149 52.5396C70.5626 51.5127 72.237 51.2726 72.2551 51.2763C72.2624 51.2763 76.1983 51.4093 78.67 50.1977C78.3329 49.4811 77.9922 48.7646 77.6552 48.0517C77.3036 47.6232 76.7745 47.0432 76.0497 46.467C75.2125 45.8021 73.5598 44.4908 71.5955 44.4908C70.1059 44.4908 69.7906 45.2407 67.7828 45.8575C65.9671 46.4042 64.347 46.371 63.2416 46.2491Z" fill="#7E3DCE"/>
<path opacity="0.6" d="M57.1494 40.1838C55.5293 40.5014 53.9093 40.8154 52.2893 41.1331C53.2533 42.0085 54.2464 42.9652 55.2575 44.0068C56.0657 44.8416 56.8196 45.669 57.5227 46.4743C64.4703 45.4474 66.1447 45.2073 66.1628 45.211C66.1701 45.211 70.106 45.344 72.5777 44.1324C72.2406 43.4158 71.9 42.6992 71.5629 41.9863C71.2113 41.5579 70.6822 40.9779 69.9574 40.4017C69.1202 39.7368 67.4675 38.4255 65.5032 38.4255C64.0137 38.4255 63.6983 39.1754 61.6905 39.7922C59.8748 40.3389 58.2547 40.3057 57.1494 40.1838Z" fill="#FE7B6C"/>
<path opacity="0.6" d="M69.5663 52.2883C67.9463 52.606 66.3263 52.92 64.7063 53.2376C65.6703 54.113 66.6634 55.0697 67.6745 56.1114C68.4827 56.9462 69.2366 57.7736 69.9397 58.5788C69.9107 59.9714 70.9146 61.1165 72.1251 61.2347C73.1254 61.3344 74.1293 60.7212 74.5823 59.7054C75.5319 58.7081 76.4813 57.7071 77.4309 56.7098C80.1962 54.7705 81.722 52.6651 81.2183 51.5606C80.7942 50.6298 78.9531 50.4562 77.9202 50.5227C76.3545 50.6261 75.7602 51.3833 74.1075 51.8894C72.2918 52.4434 70.6717 52.4102 69.5663 52.2883Z" fill="#FE7B6C"/>
<path opacity="0.6" d="M31.2404 16.1817C30.338 16.7099 29.8016 17.6925 29.8704 18.7009C29.9502 19.9051 30.8816 20.943 32.1356 21.1683C39.0832 20.1415 40.7576 19.9014 40.7757 19.9051C40.783 19.9051 44.7189 20.038 47.1906 18.8265C46.8535 18.1099 46.5128 17.3933 46.1758 16.6804C45.7844 16.2925 45.2335 15.7459 44.5703 15.0958C39.5979 10.231 38.7063 9.72868 37.8401 9.8949C36.992 10.0537 36.887 10.7186 35.2778 12.536C33.7448 14.2573 32.266 15.443 31.2404 16.1817Z" fill="#FE7B6C"/>
<path opacity="0.6" d="M43.867 27.3257C42.2469 27.6434 40.6269 27.9574 39.0068 28.275C39.9709 29.1505 40.964 30.1072 41.9751 31.1488C42.7833 31.9836 43.5372 32.811 44.2403 33.6163C51.1879 32.5894 52.8622 32.3493 52.8804 32.353C52.8876 32.353 56.8236 32.486 59.2953 31.2744C58.9583 30.5578 58.6176 29.8412 58.2805 29.1283C57.929 28.6998 57.3998 28.1199 56.6749 27.5437C55.8377 26.8788 54.1852 25.5675 52.2208 25.5675C50.7313 25.5675 50.416 26.3173 48.4081 26.9342C46.5924 27.4809 44.9724 27.4476 43.867 27.3257Z" fill="#FE7B6C"/>
<path opacity="0.6" d="M50.4267 33.8712C48.8067 34.1888 47.1867 34.5028 45.5667 34.8205C46.5307 35.6959 47.5237 36.6526 48.5349 37.6942C49.3431 38.529 50.0969 39.3564 50.8 40.1617C57.7476 39.1348 59.4221 38.8947 59.4402 38.8984C59.4474 38.8984 63.3833 39.0314 65.855 37.8198C65.518 37.1032 65.1773 36.3866 64.8402 35.6737C64.4887 35.2452 63.9596 34.6653 63.2347 34.0891C62.3975 33.4242 60.7449 32.1129 58.7806 32.1129C57.291 32.1129 56.9757 32.8628 54.9679 33.4796C53.1521 34.03 51.5321 33.9931 50.4267 33.8712Z" fill="#7E3DCE"/>
<path opacity="0.6" d="M58.9366 66.4172C58.9366 66.4172 57.6464 66.299 51.7498 62.3651C53.7395 61.2237 55.4646 60.4776 56.7077 60.0011C60.9371 58.3721 65.6269 57.5004 65.6269 57.5004C65.6269 57.5004 67.8993 58.8043 72.1251 61.2348C70.94 61.7519 68.8778 62.6495 66.2937 63.7946C60.8574 66.1955 60.2123 66.5354 58.9366 66.4172Z" fill="#7E3DCE"/>
<path opacity="0.6" d="M50.5897 62.0031C50.5897 62.0031 49.2994 61.8849 43.4028 57.951C45.3925 56.8096 47.1176 56.0635 48.3607 55.587C52.5902 53.958 57.28 53.0863 57.28 53.0863C57.28 53.0863 59.5524 54.3902 63.7782 56.8207C62.5931 57.3378 60.5309 58.2354 57.9468 59.3805C52.5105 61.7778 51.8654 62.1213 50.5897 62.0031Z" fill="#FE7B6C"/>
<path opacity="0.6" d="M14.5144 41.5763C15.3987 40.0914 16.1091 38.902 16.5874 38.1042C17.2905 36.9295 17.8704 35.6737 18.6569 34.5581C18.8127 34.3365 19.2585 33.7196 19.5919 32.7925C19.7115 32.4638 19.784 32.1867 19.8239 32.0057C23.3647 34.0299 26.9092 36.0541 30.4501 38.082C29.7869 38.3701 28.6561 38.8651 27.2608 39.493C21.6541 42.0085 20.1863 42.8433 17.9719 42.666C17.171 42.5958 15.9605 42.3742 14.5144 41.5763Z" fill="#FE7B6C"/>
<path opacity="0.6" d="M33.7659 52.8979C33.7659 52.8979 32.4757 52.7797 26.5791 48.8458C28.5688 47.7044 30.2939 46.9583 31.537 46.4818C35.7665 44.8528 40.4562 43.9811 40.4562 43.9811C40.4562 43.9811 42.7286 45.285 46.9545 47.7155C45.7694 48.2326 43.7071 49.1302 41.1231 50.2753C35.6867 52.6726 35.0452 53.0161 33.7659 52.8979Z" fill="#FE7B6C"/>
<path opacity="0.6" d="M38.039 9.00004L28.7744 18.7574L72.4939 61.8775L81.7585 52.1201L38.039 9.00004Z" stroke="#1F3262" stroke-miterlimit="10"/>
<path opacity="0.6" d="M67.0978 71.714L13.8943 41.2218" stroke="#1F3262" stroke-miterlimit="10"/>
<path opacity="0.6" d="M72.5128 61.8774L58.603 66.8419" stroke="#1F3262" stroke-miterlimit="10"/>
<path opacity="0.6" d="M64.4993 57.0349L50.5896 62.003" stroke="#1F3262" stroke-miterlimit="10"/>
<path opacity="0.6" d="M57.2948 52.3918L42.5659 57.6518" stroke="#1F3262" stroke-miterlimit="10"/>
<path opacity="0.6" d="M48.4842 47.9113L34.5708 52.8794" stroke="#1F3262" stroke-miterlimit="10"/>
<path opacity="0.6" d="M40.0469 42.9615L26.1372 47.926" stroke="#1F3262" stroke-miterlimit="10"/>
<path opacity="0.6" d="M32.708 38.2483L17.9211 43.5267" stroke="#1F3262" stroke-miterlimit="10"/>
<path opacity="0.6" d="M73.1941 44.2471L57.0771 46.6517" stroke="#1F3262" stroke-miterlimit="10"/>
<path opacity="0.6" d="M67.3118 38.241L51.0173 40.6715" stroke="#1F3262" stroke-miterlimit="10"/>
<path opacity="0.6" d="M61.3392 31.858L44.6099 34.355" stroke="#1F3262" stroke-miterlimit="10"/>
<path opacity="0.6" d="M53.8189 25.3828L37.9194 27.7579" stroke="#1F3262" stroke-miterlimit="10"/>
<path opacity="0.6" d="M47.698 19.3029L31.7585 21.6817" stroke="#1F3262" stroke-miterlimit="10"/>
</g>
</svg>
