<svg width="33" height="28" viewBox="0 0 33 28" fill="none" xmlns="http://www.w3.org/2000/svg">
<path d="M8.03142 13.224C9.88742 13.416 11.3914 14.152 12.5434 15.432C13.7594 16.648 14.3674 18.184 14.3674 20.04C14.3674 22.088 13.6954 23.816 12.3514 25.224C11.0714 26.568 9.47142 27.24 7.55142 27.24C5.37542 27.24 3.58342 26.44 2.17542 24.84C0.831424 23.24 0.159424 20.904 0.159424 17.832C0.159424 11.816 2.27142 6.53599 6.49542 1.99199C7.26342 1.15999 8.15942 0.743988 9.18342 0.743988C10.0794 0.743988 10.8794 1.09599 11.5834 1.79999C12.3514 2.43999 12.7354 3.20799 12.7354 4.10399C12.7354 4.87199 12.4154 5.60799 11.7754 6.31199C9.85542 8.35999 8.60742 10.664 8.03142 13.224ZM26.4634 13.224C28.3194 13.416 29.8234 14.152 30.9754 15.432C32.1914 16.648 32.7994 18.184 32.7994 20.04C32.7994 22.088 32.1274 23.816 30.7834 25.224C29.5034 26.568 27.9034 27.24 25.9834 27.24C23.8074 27.24 22.0154 26.44 20.6074 24.84C19.2634 23.24 18.5914 20.904 18.5914 17.832C18.5914 11.816 20.7034 6.53599 24.9274 1.99199C25.6954 1.15999 26.5914 0.743988 27.6154 0.743988C28.5114 0.743988 29.3114 1.09599 30.0154 1.79999C30.7834 2.43999 31.1674 3.20799 31.1674 4.10399C31.1674 4.87199 30.8474 5.60799 30.2074 6.31199C28.2874 8.35999 27.0394 10.664 26.4634 13.224Z" fill="#7E3DCE"/>
</svg>
