<svg width="33" height="28" viewBox="0 0 33 28" fill="none" xmlns="http://www.w3.org/2000/svg">
<path d="M7.07142 0.839966C9.24742 0.839966 11.0074 1.63997 12.3514 3.23996C13.6954 4.83997 14.3674 7.17597 14.3674 10.248C14.3674 16.264 12.2554 21.544 8.03142 26.088C7.26342 26.92 6.36742 27.336 5.34342 27.336C4.44742 27.336 3.61542 27.016 2.84742 26.376C2.14342 25.672 1.79142 24.872 1.79142 23.976C1.79142 23.208 2.11142 22.472 2.75142 21.768C4.67142 19.72 5.91942 17.416 6.49542 14.856C4.63942 14.664 3.10342 13.96 1.88742 12.744C0.735424 11.464 0.159424 9.89597 0.159424 8.03996C0.159424 5.99196 0.799424 4.29597 2.07942 2.95197C3.42342 1.54397 5.08742 0.839966 7.07142 0.839966ZM25.5034 0.839966C27.6794 0.839966 29.4394 1.63997 30.7834 3.23996C32.1274 4.83997 32.7994 7.17597 32.7994 10.248C32.7994 16.264 30.6874 21.544 26.4634 26.088C25.6954 26.92 24.7994 27.336 23.7754 27.336C22.8794 27.336 22.0474 27.016 21.2794 26.376C20.5754 25.672 20.2234 24.872 20.2234 23.976C20.2234 23.208 20.5434 22.472 21.1834 21.768C23.1034 19.72 24.3514 17.416 24.9274 14.856C23.0714 14.664 21.5354 13.96 20.3194 12.744C19.1674 11.464 18.5914 9.89597 18.5914 8.03996C18.5914 5.99196 19.2314 4.29597 20.5114 2.95197C21.8554 1.54397 23.5194 0.839966 25.5034 0.839966Z" fill="#7E3DCE"/>
</svg>
