<svg width="229" height="133" viewBox="0 0 229 133" fill="none" xmlns="http://www.w3.org/2000/svg">
<g opacity="0.6">
<g opacity="0.6">
<g opacity="0.6">
<path opacity="0.6" d="M54.3944 75.6611C51.0094 79.5137 45.2904 86.0185 36.6829 87.7545C28.2747 89.45 20.4609 85.8707 20.7399 84.8475C20.961 84.0312 25.8247 85.2575 31.1523 82.4613C36.7735 79.51 39.3322 73.9656 40.0317 72.4512C41.4451 69.3853 41.9017 66.7036 42.1663 64.9602C42.4925 62.8067 42.4852 61.2406 42.4562 58.4924C42.391 51.9507 41.6009 51.9174 42.1989 49.3872C42.3946 48.5635 43.5906 43.4624 47.6896 41.1464C49.1067 40.3448 51.3646 39.5987 51.5386 39.5396C53.5826 38.8673 54.5974 38.509 55.3367 38.6235C57.7758 38.9966 58.95 42.3801 60.2729 46.1958C61.2551 49.0289 61.6175 51.356 61.7734 52.5786C61.9727 54.1854 62.2844 56.8191 61.7915 60.2691C61.574 61.7909 60.9833 64.9861 59.1531 68.6983C58.5152 69.9948 57.1416 72.5361 54.3944 75.6611Z" fill="#A460FF"/>
</g>
<g opacity="0.6">
<path opacity="0.6" d="M70.9212 66.2567C69.8231 68.4397 67.6957 72.0633 63.854 75.7977C54.884 84.5187 43.2865 87.3223 42.9386 86.6685C42.5943 86.0221 53.5141 82.2323 59.041 73.2823C59.9217 71.8565 61.2627 69.3336 62.3282 66.2899C63.7453 62.2415 64.0461 59.0612 64.1294 57.8755C64.3505 54.8244 64.0461 52.453 63.8322 51.175C63.5858 49.6975 62.995 46.3583 60.9147 42.646C59.2113 39.606 57.8994 38.8008 58.3923 38.1507C59.3346 36.9059 66.0358 37.375 70.1239 40.5405C77.2564 46.0701 74.7919 58.5588 70.9212 66.2567Z" fill="#A460FF"/>
</g>
</g>
<g opacity="0.6">
<g opacity="0.6">
<path opacity="0.6" d="M7.96861 39.9792C7.95049 38.9191 7.93592 29.2451 14.9633 22.9989C17.3517 20.875 20.5338 19.1906 21.4688 19.8149C22.3097 20.3763 20.6353 22.5631 20.1061 26.098C19.6893 28.8831 20.233 30.8704 20.9252 33.4043C21.6029 35.8828 22.8714 40.5333 27.0501 44.2456C31.9174 48.5673 35.6396 47.0935 37.8721 51.2674C39.4993 54.3111 39.2312 57.9384 39.1514 58.8803C38.9593 61.1779 38.8433 62.5852 37.8358 63.6158C34.3348 67.2061 23.8463 62.3303 23.0128 61.9351C16.4348 58.8101 13.0969 54.0784 12.2234 52.7782C10.9912 50.9461 8.07734 46.4729 7.96861 39.9792Z" fill="#A460FF"/>
</g>
<g opacity="0.6">
<path opacity="0.6" d="M5.39165 69.4075C4.78278 68.2883 3.39113 65.6103 2.18426 61.6247C0.95565 57.5763 -0.490443 52.815 0.161917 47.1857C1.03898 39.6208 5.34814 33.5741 6.28682 33.8327C7.27261 34.106 4.59436 40.1121 6.79426 48.135C7.7728 51.7069 9.29859 54.1263 9.77699 54.8614C12.9663 59.7335 17.3008 62.212 20.53 64.0589C22.9764 65.4589 24.1977 66.157 25.97 66.6039C31.7035 68.0482 35.2371 65.47 36.7267 67.206C38.2633 68.9975 35.9729 73.4633 33.9796 75.8643C32.2798 77.9143 30.388 78.956 29.355 79.5174C28.3983 80.0346 23.8752 82.3653 18.8085 81.5342C15.4597 80.9839 13.6078 79.3401 11.1542 77.1608C8.23671 74.5641 6.77972 71.9526 5.39165 69.4075Z" fill="#A460FF"/>
</g>
</g>
<g opacity="0.6">
<path opacity="0.6" d="M49.1069 22.6147C50.9335 22.4447 57.3954 21.9239 63.1072 25.1597C69.446 28.75 72.0844 35.3951 70.9355 36.2853C70.4861 36.6326 69.667 35.9418 67.5215 35.1624C67.0757 34.9999 65.7203 34.5714 64.7019 34.3498C62.2048 33.7994 60.0411 34.202 57.3845 34.7229C55.3695 35.1181 53.9234 35.5872 52.3831 36.0896C48.3602 37.4082 46.3452 38.0658 45.1202 39.0557C41.2495 42.1732 42.7318 46.7314 40.213 47.5809C38.1979 48.2606 35.748 45.8485 32.7761 42.9157C29.5252 39.7095 27.8979 38.1064 27.9849 35.7571C28.119 32.1372 32.2107 29.3854 35.034 27.4868C37.5637 25.7876 39.8868 24.9417 41.4887 24.3729C42.6847 23.9518 45.566 22.9434 49.1069 22.6147Z" fill="#7E3DCE"/>
<path opacity="0.6" d="M31.2397 15.759C39.3761 12.1575 47.5523 15.0054 51.0497 16.2244C56.3592 18.0749 60.2951 20.8453 59.9327 21.4178C59.5811 21.9682 56.8739 20.982 52.5284 20.801C51.1476 20.7419 43.0438 20.5018 35.7192 24.5058C28.7281 28.3289 27.4198 33.3081 25.4953 32.658C22.9728 31.8048 22.6249 22.3819 27.7786 17.7942C28.9311 16.7637 30.022 16.2983 31.2397 15.759Z" fill="#7E3DCE"/>
</g>
</g>
<g opacity="0.6">
<path opacity="0.6" d="M94.1944 121.932C92.5309 126.129 94.343 130.831 98.239 132.438C102.139 134.044 106.647 131.946 108.311 127.75" fill="#FE7B6C"/>
<path opacity="0.6" d="M105.861 102.455C105.582 98.8722 106.263 98.3256 106.915 92.3453C108.021 82.2207 108.075 76.6985 108.075 76.6985C108.082 75.9412 108.082 75.0843 108.412 73.9835C109.387 70.7441 112.428 68.103 115.624 67.2793C122.057 65.6282 127.392 71.8079 127.961 72.4875C131.444 76.6504 133.126 83.3731 130.567 86.7086C129.896 87.5803 129.559 87.4104 128.07 88.6552C125.511 90.7976 124.533 92.9511 122.463 96.8887C119.462 102.599 117.926 105.488 116.204 107.084C115.153 108.059 111.431 111.509 108.756 110.341C106.397 109.315 106.074 105.203 105.861 102.455Z" fill="#A460FF"/>
<path opacity="0.6" d="M107.462 72.3546C106.835 72.0591 101.508 69.6507 97.3508 72.4063C95.2923 73.7693 94.4188 75.8378 93.9876 76.8499C92.8713 79.4688 93.5744 80.3368 93.2917 86.3614C93.2772 86.6717 92.9547 93.5163 93.0054 97.561C93.0127 98.0707 93.0344 99.0532 93.4657 100.202C93.8064 101.111 94.0963 101.299 94.9479 102.673C96.3904 105.004 96.2926 105.654 96.9993 105.876C97.7314 106.105 98.2967 105.558 100.109 104.553C101.519 103.774 102.74 103.235 103.599 102.891" fill="#A460FF"/>
<path opacity="0.6" d="M127.82 90.6018C128.606 90.0588 131.302 88.3375 134.76 88.814C135.278 88.8842 137.065 89.176 138.891 90.5168C141.689 92.5669 144.114 96.7224 143.063 99.9766C142.653 101.247 142.052 101.325 139.326 103.844C136.123 106.803 135.104 108.398 129.972 113.337C129.331 113.954 128.309 114.922 126.743 115.653C125.489 116.237 124.413 116.429 123.144 116.65C121.147 117.001 120.151 117.175 119.643 116.82C118.592 116.082 119.06 114.519 118.118 110.858C117.86 109.865 117.596 109.078 117.418 108.587" fill="#A460FF"/>
<path opacity="0.6" d="M99.5111 85.5746C99.2755 91.2815 98.7717 97.4907 97.8693 104.114C96.9995 110.489 95.8796 116.381 94.6401 121.744" stroke="#FFB9A8" stroke-width="4" stroke-miterlimit="10"/>
<path opacity="0.6" d="M115.396 90.757C113.837 96.0206 111.884 101.731 109.419 107.752C106.864 113.991 104.15 119.598 101.475 124.562" stroke="#FFB9A8" stroke-width="4" stroke-miterlimit="10"/>
<path opacity="0.6" d="M130.328 100.084C125.395 106.06 120.448 112.17 115.497 118.409C113.087 121.445 110.706 124.477 108.354 127.495" stroke="#FFB9A8" stroke-width="4" stroke-miterlimit="10"/>
<path opacity="0.6" d="M96.1257 114.257C98.3836 114.767 101.522 115.686 105.005 117.419C108.405 119.11 110.963 120.991 112.696 122.45" stroke="#FFB9A8" stroke-width="4" stroke-miterlimit="10"/>
<path opacity="0.6" d="M94.0034 121.482C98.8816 123.617 103.76 125.748 108.638 127.883" stroke="#1F3262" stroke-miterlimit="10"/>
</g>
<g opacity="0.6">
<path opacity="0.6" d="M185.729 74.4493C187.52 78.5927 192.126 80.6363 196.018 79.0176C199.911 77.3963 201.616 72.7247 199.825 68.5813" fill="#FE7B6C"/>
<path opacity="0.6" d="M180.206 52.4275C177.475 50.0913 177.57 49.223 173.803 44.533C167.425 36.5922 163.559 32.649 163.559 32.649C163.029 32.1084 162.423 31.5024 161.878 30.4908C160.276 27.5108 160.559 23.4932 162.237 20.6505C165.618 14.9341 173.76 15.5315 174.643 15.6098C180.049 16.0906 185.992 19.6552 186.541 23.823C186.684 24.9135 186.325 25.0317 186.152 26.9652C185.858 30.2893 186.689 32.504 188.01 36.7516C189.926 42.9115 190.882 46.0406 190.793 48.3862C190.739 49.819 190.547 54.8904 187.83 55.9563C185.435 56.8985 182.3 54.2196 180.206 52.4275Z" fill="#A460FF"/>
<path opacity="0.6" d="M160.054 30.0104C159.402 30.2448 153.932 32.309 152.941 37.1969C152.449 39.6164 153.294 41.6966 153.705 42.7173C154.767 45.3584 155.878 45.475 159.938 49.9349C160.147 50.1646 164.759 55.2325 167.655 58.0567C168.021 58.412 168.731 59.0914 169.848 59.5987C170.732 60.0003 171.07 59.9286 172.644 60.298C175.312 60.9261 175.702 61.455 176.359 61.1119C177.038 60.7562 177.051 59.9699 177.622 57.9781C178.068 56.4301 178.55 55.1851 178.915 54.3348" fill="#A460FF"/>
<path opacity="0.6" d="M187.352 28.5186C187.524 27.5785 188.213 24.4547 190.995 22.3468C191.411 22.03 192.881 20.9729 195.121 20.6294C198.549 20.1006 203.201 21.3246 204.759 24.3688C205.368 25.5569 204.998 26.0371 204.852 29.7456C204.679 34.1032 205.087 35.9517 204.95 43.0726C204.933 43.9624 204.894 45.3694 204.304 46.9936C203.83 48.293 203.205 49.1899 202.465 50.2436C201.301 51.9038 200.719 52.7313 200.109 52.8393C198.844 53.0601 198.07 51.6247 194.815 49.7026C193.93 49.182 193.187 48.8127 192.714 48.5909" fill="#A460FF"/>
<path opacity="0.6" d="M163.78 44.9809C167.649 49.1829 171.683 53.9297 175.728 59.2509C179.621 64.3741 182.995 69.332 185.911 74.0009" stroke="#FFB9A8" stroke-width="4" stroke-miterlimit="10"/>
<path opacity="0.6" d="M178.676 37.4132C181.296 42.2371 183.953 47.6564 186.468 53.6564C189.073 59.8746 191.118 65.759 192.737 71.1607" stroke="#FFB9A8" stroke-width="4" stroke-miterlimit="10"/>
<path opacity="0.6" d="M195.83 33.4497C196.568 41.1636 197.39 48.9817 198.301 56.8939C198.744 60.7451 199.204 64.5732 199.675 68.3703" stroke="#FFB9A8" stroke-width="4" stroke-miterlimit="10"/>
<path opacity="0.6" d="M181.667 67.6561C183.624 66.42 186.494 64.8511 190.182 63.6133C193.782 62.4057 196.921 61.9259 199.177 61.7326" stroke="#FFB9A8" stroke-width="4" stroke-miterlimit="10"/>
<path opacity="0.6" d="M185.276 74.2656C190.235 72.3259 195.191 70.3836 200.15 68.4438" stroke="#1F3262" stroke-miterlimit="10"/>
</g>
</svg>
