<svg width="387" height="257" viewBox="0 0 387 257" fill="none" xmlns="http://www.w3.org/2000/svg">
<path opacity="0.6" d="M134.384 225.637C141.34 239.072 157.194 244.831 169.794 238.514C182.402 232.188 186.983 216.174 180.027 202.74" fill="#FE7B6C"/>
<path opacity="0.6" d="M110.875 153.386C101.214 146.215 101.327 143.291 87.6517 128.497C64.5019 103.447 50.6737 91.1706 50.6737 91.1706C48.777 89.4878 46.6128 87.6038 44.5552 84.3507C38.5095 74.7658 38.5012 61.2757 43.4245 51.3866C53.349 31.4995 80.6457 31.6014 83.609 31.6574C101.754 32.0064 122.418 42.5345 125.236 56.333C125.969 59.9437 124.801 60.4219 124.682 66.9227C124.487 78.0986 127.782 85.3053 133.192 99.1909C141.041 119.328 144.969 129.561 145.228 137.419C145.388 142.219 145.946 159.21 137.138 163.403C129.375 167.109 118.285 158.886 110.875 153.386Z" fill="#A460FF"/>
<path opacity="0.6" d="M38.2938 83.2299C36.174 84.1647 18.4215 92.3323 16.2739 108.891C15.2064 117.088 18.5167 123.841 20.1278 127.155C24.2961 135.731 28.0285 135.862 42.6233 149.817C43.3751 150.536 59.9534 166.394 70.2788 175.155C71.582 176.257 74.1108 178.361 77.9566 179.796C80.9976 180.933 82.1084 180.614 87.4442 181.482C96.49 182.96 97.9176 184.636 100.025 183.338C102.207 181.991 102.065 179.361 103.498 172.575C104.618 167.3 105.932 163.029 106.946 160.103" fill="#A460FF"/>
<path opacity="0.6" d="M129.069 71.7641C129.421 68.5822 130.982 57.9812 139.763 50.2887C141.076 49.1329 145.729 45.2578 153.119 43.5885C164.429 41.0232 180.241 44.031 186.158 53.8432C188.47 57.6723 187.348 59.3636 187.739 71.7922C188.192 86.3967 189.992 92.4798 191.221 116.312C191.373 119.289 191.578 124.001 189.994 129.567C188.721 134.02 186.847 137.164 184.627 140.857C181.137 146.677 179.392 149.578 177.384 150.081C173.214 151.114 170.292 146.496 158.979 140.83C155.905 139.295 153.338 138.234 151.708 137.603" fill="#A460FF"/>
<path opacity="0.6" d="M54.2432 132.378C68.136 145.509 82.7099 160.421 97.4554 177.248C111.647 193.449 124.07 209.218 134.897 224.129" stroke="#FFB9A8" stroke-width="4" stroke-miterlimit="10"/>
<path opacity="0.6" d="M102.163 103.565C112.041 119.071 122.183 136.557 131.989 156.016C142.147 176.183 150.36 195.365 157.038 213.033" stroke="#FFB9A8" stroke-width="4" stroke-miterlimit="10"/>
<path opacity="0.6" d="M158.466 86.2643C162.754 111.872 167.346 137.809 172.257 164.04C174.645 176.807 177.087 189.494 179.556 202.074" stroke="#FFB9A8" stroke-width="4" stroke-miterlimit="10"/>
<path opacity="0.6" d="M119.246 203.902C125.484 199.313 134.69 193.4 146.705 188.403C158.435 183.527 168.797 181.192 176.283 180.021" stroke="#FFB9A8" stroke-width="4" stroke-miterlimit="10"/>
<path opacity="0.6" d="M132.827 225.14C148.92 217.499 165.003 209.851 181.096 202.211" stroke="#1F3262" stroke-miterlimit="10"/>
<path opacity="0.6" d="M263.695 193.397C261.176 204.492 267.493 215.492 277.799 217.974C288.114 220.454 298.514 213.473 301.033 202.378" fill="#FE7B6C"/>
<path opacity="0.6" d="M285.232 140.469C283.158 131.662 284.64 130.036 283.958 114.9C282.805 89.274 280.812 75.5108 280.812 75.5108C280.539 73.6236 280.209 71.491 280.604 68.6233C281.779 60.1821 288.318 52.4251 295.945 49.1299C311.295 42.5147 326.934 55.8144 328.609 57.284C338.868 66.2864 345.637 82.3607 340.563 91.6579C339.233 94.0885 338.33 93.797 335.108 97.475C329.575 103.803 327.972 109.543 324.347 120.148C319.089 135.528 316.383 143.315 312.719 147.957C310.483 150.793 302.562 160.829 295.466 158.966C289.207 157.33 286.822 147.225 285.232 140.469Z" fill="#A460FF"/>
<path opacity="0.6" d="M277.549 64.9419C275.877 64.4509 261.713 60.5335 252.446 69.0085C247.856 73.2014 246.483 78.6883 245.801 81.3744C244.037 88.3251 246.118 90.2111 247.737 105.311C247.82 106.088 249.656 123.244 251.34 133.288C251.554 134.553 251.987 136.989 253.501 139.68C254.698 141.808 255.49 142.164 258.136 145.251C262.618 150.488 262.625 152.144 264.466 152.42C266.374 152.705 267.568 151.124 271.683 147.919C274.885 145.431 277.712 143.613 279.714 142.424" fill="#A460FF"/>
<path opacity="0.6" d="M335.28 102.385C337.026 100.727 343.065 95.3917 351.843 95.2301C353.159 95.2028 357.712 95.2327 362.769 97.8582C370.514 101.87 378.142 111.269 376.783 119.778C376.255 123.101 374.789 123.528 368.985 130.861C362.161 139.474 360.244 143.843 349.391 158.136C348.034 159.921 345.866 162.728 342.256 165.159C339.364 167.1 336.762 167.998 333.694 169.044C328.866 170.696 326.455 171.516 325.057 170.832C322.16 169.402 322.72 165.331 318.968 156.587C317.945 154.214 316.984 152.359 316.354 151.205" fill="#A460FF"/>
<path opacity="0.6" d="M262.875 100.925C264.49 115.211 265.632 130.85 265.944 147.673C266.242 163.869 265.732 178.957 264.722 192.779" stroke="#FFB9A8" stroke-width="4" stroke-miterlimit="10"/>
<path opacity="0.6" d="M304.392 107.61C302.548 121.314 299.894 136.283 296.091 152.223C292.146 168.741 287.562 183.749 282.829 197.142" stroke="#FFB9A8" stroke-width="4" stroke-miterlimit="10"/>
<path opacity="0.6" d="M345.142 124.979C335.184 141.776 325.242 158.91 315.34 176.367C310.52 184.864 305.769 193.339 301.086 201.767" stroke="#FFB9A8" stroke-width="4" stroke-miterlimit="10"/>
<path opacity="0.6" d="M265.538 173.562C271.349 173.951 279.509 175.018 288.838 177.975C297.944 180.862 305.031 184.547 309.902 187.505" stroke="#FFB9A8" stroke-width="4" stroke-miterlimit="10"/>
<path opacity="0.6" d="M263.042 192.355C275.996 195.771 288.95 199.177 301.905 202.592" stroke="#1F3262" stroke-miterlimit="10"/>
</svg>
