<svg width="1211" height="717" viewBox="0 0 1211 717" fill="none" xmlns="http://www.w3.org/2000/svg">
<g opacity="0.4">
<path opacity="0.6" d="M214.946 163.564C231.708 167.125 246.398 157.059 265.867 143.684C276.845 136.139 282.527 130.266 286.911 123.656C290.857 117.702 292.848 112.49 294.096 109.108C302.163 87.3102 309.224 60.9854 312.251 49.321C298.312 41.3961 280.857 32.9359 260.075 25.903C240.257 19.1899 222.138 15.3761 206.871 13.1755C203.683 21.9331 199.226 34.7127 194.449 50.4213C189.649 66.2117 187.235 74.2854 186.162 83.1768C184.178 99.7106 186.213 111.925 188.409 125.047C192.297 148.331 197.512 153.877 199.562 155.817C205.551 161.475 212.378 163.021 214.946 163.564Z" fill="#A460FF"/>
<path opacity="0.6" d="M204.119 95.2129C205.447 94.5735 207.788 103.383 216.899 109.68C218.445 110.751 225.557 115.456 235.106 115.419C247.863 115.375 255.646 106.892 256.66 108.305C257.798 109.896 248.097 120.943 234.763 127.485C225.251 132.154 221.312 130.883 220.036 130.377C218.278 129.678 215.586 128.028 210.976 118.244C206.198 108.096 202.551 95.9637 204.119 95.2129Z" fill="#7031C3"/>
<path opacity="0.6" d="M203.077 54.8816C202.778 53.6996 214.376 45.0164 221.641 50.3021C227.411 54.4951 226.835 64.8436 225.369 65.3937C224.114 65.8695 222.852 58.9185 216.681 55.692C210.146 52.2796 203.296 55.7663 203.077 54.8816Z" fill="#7031C3"/>
<path opacity="0.6" d="M283.877 80.3665C284.781 79.5636 280.025 65.721 271.097 65.8994C264.015 66.0407 258.755 74.9098 259.653 76.2033C260.426 77.3185 265.32 72.3078 272.199 73.2073C279.486 74.1589 283.198 80.9687 283.877 80.3665Z" fill="#7031C3"/>
</g>
<g opacity="0.4">
<path opacity="0.6" d="M373.486 239.631C385.478 236.799 391.321 224.726 399.053 208.69C403.408 199.65 404.968 193.539 405.435 187.309C405.851 181.696 405.282 177.265 404.888 174.403C402.335 155.929 397.536 134.496 395.347 125.024C383.618 123.768 369.445 123.262 353.653 124.868C338.591 126.4 325.636 129.485 315.081 132.823C316.139 140.227 317.809 150.963 320.311 163.943C322.828 176.983 324.141 183.644 326.599 190.453C331.18 203.129 336.811 211.351 342.858 220.198C353.588 235.884 358.89 238.226 360.889 238.977C366.732 241.148 371.648 240.062 373.486 239.631Z" fill="#7E3DCE"/>
<path opacity="0.6" d="M342.36 193.398C342.988 192.506 347.605 198.156 355.665 199.791C357.037 200.066 363.259 201.196 369.349 198.081C377.497 193.918 379.481 185.227 380.634 185.934C381.925 186.722 379.627 197.903 373.405 206.973C368.97 213.448 365.994 213.797 364.995 213.842C363.616 213.901 361.311 213.574 354.899 207.947C348.254 202.103 341.624 194.453 342.36 193.398Z" fill="#7031C3"/>
<path opacity="0.6" d="M327.415 164.389C326.802 163.623 331.157 153.557 337.685 155.052C342.864 156.234 346.154 163.951 345.417 164.828C344.782 165.579 341.515 160.925 336.423 160.583C331.018 160.211 327.867 164.962 327.415 164.389Z" fill="#7031C3"/>
<path opacity="0.6" d="M388.169 156.791C388.461 155.914 380.517 147.38 374.864 150.398C370.378 152.792 370.152 160.947 371.188 161.601C372.078 162.159 373.434 156.933 378.161 155.357C383.158 153.699 387.95 157.453 388.169 156.791Z" fill="#7031C3"/>
</g>
<g opacity="0.4">
<path opacity="0.6" d="M105.086 312.44C113.286 313.082 119.374 306.742 127.443 298.315C131.988 293.564 134.179 290.075 135.696 286.292C137.06 282.883 137.564 280.012 137.873 278.153C139.86 266.146 140.993 251.848 141.451 245.516C134.218 242.382 125.279 239.226 114.895 237.058C104.991 234.99 96.1265 234.312 88.743 234.272C87.9686 239.091 86.9331 246.105 85.9885 254.683C85.0416 263.301 84.5754 267.709 84.8104 272.439C85.251 281.244 87.2329 287.489 89.3577 294.206C93.1302 306.118 96.0534 308.638 97.1809 309.506C100.482 312.029 103.829 312.339 105.086 312.44Z" fill="#7E3DCE"/>
<path opacity="0.6" d="M94.2847 277.432C94.8592 277.002 96.6979 281.444 101.517 284.078C102.338 284.524 106.084 286.475 110.578 285.758C116.588 284.802 119.554 279.792 120.15 280.463C120.819 281.212 117.166 287.708 111.424 292.103C107.329 295.243 105.363 294.863 104.717 294.691C103.826 294.451 102.42 293.786 99.4332 288.998C96.3394 284.03 93.6083 277.941 94.2847 277.432Z" fill="#7031C3"/>
<path opacity="0.6" d="M90.4309 256.386C90.19 255.786 94.9365 250.397 98.8069 252.636C101.878 254.41 102.466 259.871 101.824 260.269C101.273 260.609 100.1 257.058 96.92 255.824C93.5461 254.509 90.6072 256.832 90.4309 256.386Z" fill="#7031C3"/>
<path opacity="0.6" d="M130.658 263.842C131.016 263.354 127.621 256.451 123.425 257.196C120.096 257.785 118.356 262.814 118.889 263.429C119.347 263.955 121.235 260.975 124.557 260.942C128.068 260.913 130.389 264.21 130.658 263.842Z" fill="#7031C3"/>
</g>
<g opacity="0.6">
<g opacity="0.6">
<g opacity="0.6">
<path opacity="0.6" d="M746.704 376.902C733.265 392.197 710.56 418.022 676.388 424.914C643.006 431.645 611.984 417.435 613.092 413.373C613.97 410.132 633.279 415.001 654.431 403.9C676.747 392.182 686.906 370.171 689.683 364.158C695.294 351.986 697.107 341.34 698.157 334.418C699.452 325.869 699.423 319.651 699.308 308.74C699.049 282.769 695.913 282.637 698.287 272.592C699.064 269.321 703.812 249.069 720.085 239.875C725.711 236.692 734.676 233.73 735.366 233.496C743.481 230.827 747.51 229.404 750.445 229.859C760.129 231.34 764.791 244.773 770.042 259.921C773.942 271.169 775.381 280.408 775.999 285.262C776.791 291.641 778.028 302.097 776.071 315.794C775.208 321.836 772.863 334.521 765.597 349.259C763.064 354.406 757.611 364.495 746.704 376.902Z" fill="#9582FC"/>
</g>
<g opacity="0.6">
<path opacity="0.6" d="M812.316 339.565C807.956 348.232 799.51 362.618 784.258 377.444C748.647 412.068 702.603 423.198 701.222 420.603C699.855 418.036 743.208 402.99 765.15 367.458C768.647 361.797 773.971 351.781 778.201 339.697C783.827 323.625 785.021 310.999 785.352 306.291C786.23 294.178 785.021 284.763 784.172 279.689C783.193 273.824 780.848 260.567 772.589 245.829C765.826 233.759 760.618 230.563 762.575 227.982C766.316 223.04 792.92 224.902 809.151 237.47C837.467 259.423 827.683 309.004 812.316 339.565Z" fill="#9582FC"/>
</g>
</g>
<g opacity="0.6">
<g opacity="0.6">
<path opacity="0.6" d="M562.389 235.241C562.317 231.032 562.259 192.625 590.158 167.827C599.64 159.395 612.274 152.708 615.986 155.186C619.324 157.415 612.677 166.097 610.576 180.131C608.921 191.188 611.079 199.078 613.828 209.138C616.518 218.978 621.554 237.441 638.144 252.179C657.468 269.336 672.245 263.485 681.109 280.056C687.569 292.14 686.504 306.541 686.188 310.28C685.425 319.402 684.965 324.989 680.964 329.08C667.065 343.335 625.425 323.977 622.115 322.408C596 310.002 582.748 291.216 579.281 286.054C574.389 278.78 562.82 261.022 562.389 235.241Z" fill="#A460FF"/>
</g>
<g opacity="0.6">
<path opacity="0.6" d="M552.157 352.075C549.74 347.631 544.215 336.999 539.424 321.176C534.546 305.103 528.805 286.201 531.395 263.852C534.877 233.818 551.985 209.812 555.711 210.839C559.625 211.924 548.992 235.769 557.726 267.62C561.611 281.801 567.668 291.407 569.568 294.325C582.23 313.668 599.438 323.508 612.258 330.84C621.971 336.398 626.82 339.17 633.856 340.944C656.618 346.678 670.647 336.442 676.561 343.334C682.662 350.447 673.568 368.176 665.654 377.708C658.906 385.847 651.395 389.983 647.295 392.212C643.496 394.265 625.539 403.518 605.424 400.219C592.129 398.034 584.776 391.508 575.035 382.856C563.453 372.546 557.668 362.179 552.157 352.075Z" fill="#A460FF"/>
</g>
</g>
<g opacity="0.6">
<path opacity="0.6" d="M725.711 166.302C732.963 165.627 758.618 163.56 781.294 176.406C806.46 190.66 816.935 217.042 812.374 220.576C810.59 221.955 807.337 219.212 798.819 216.118C797.05 215.473 791.669 213.772 787.625 212.892C777.712 210.707 769.122 212.305 758.575 214.373C750.575 215.942 744.834 217.804 738.718 219.799C722.747 225.034 714.747 227.644 709.884 231.575C694.517 243.952 700.402 262.048 690.402 265.421C682.402 268.119 672.675 258.543 660.877 246.899C647.97 234.17 641.51 227.806 641.855 218.479C642.387 204.108 658.632 193.182 669.841 185.645C679.884 178.899 689.107 175.541 695.467 173.282C700.215 171.611 711.654 167.607 725.711 166.302Z" fill="#A460FF"/>
<path opacity="0.6" d="M654.776 139.084C687.079 124.786 719.539 136.093 733.424 140.932C754.503 148.279 770.129 159.278 768.69 161.551C767.295 163.736 756.547 159.82 739.295 159.102C733.813 158.867 701.64 157.914 672.56 173.81C644.805 188.988 639.611 208.756 631.97 206.175C621.956 202.788 620.575 165.378 641.035 147.165C645.611 143.073 649.942 141.225 654.776 139.084Z" fill="#A460FF"/>
</g>
</g>
<g opacity="0.3">
<path d="M1162.95 629.167L1162.92 629.162C1154.35 629.592 1141.08 628.967 1120.53 626.145C1120.53 626.145 1055.52 620.464 1059.19 607.972C1059.19 607.972 1059.62 611.935 1071.82 606.12C1071.82 606.12 1052.34 589.148 1087.25 576.723L1087.92 564.824C1087.92 564.824 1090.29 564.604 1094.37 564.484C1105.17 564.165 1127.95 564.526 1150.97 571.405C1151.37 571.948 1151.79 572.479 1152.19 573.008C1154.56 575.969 1157.26 578.649 1160.24 580.996L1159.63 585.405C1160.37 585.915 1191.48 607.469 1168.01 616.759C1168.01 616.759 1165.07 621.55 1178.22 623.042C1178.27 623.048 1180.33 628.289 1162.95 629.167Z" fill="url(#paint0_linear)"/>
<path d="M1158.52 573.907C1156.02 572.989 1153.49 572.164 1150.95 571.432C1151.35 571.975 1151.77 572.505 1152.17 573.034L1094.16 564.748L1094.32 564.512C1125.38 520.113 1114.44 480.449 1114.44 480.449C1134.54 479.622 1147.45 483.061 1152.96 484.958C1153.99 485.301 1155 485.702 1155.99 486.157C1136.4 531.545 1158.82 573.969 1158.82 573.969L1158.52 573.907Z" fill="url(#paint1_linear)"/>
<path d="M1164.7 470.418C1164.6 471.106 1164.23 471.727 1163.68 472.146C1163.12 472.564 1162.42 472.746 1161.73 472.651L1114.37 466.144C1113.68 466.049 1113.06 465.684 1112.64 465.13C1112.21 464.575 1112.03 463.877 1112.12 463.187C1112.22 462.498 1112.58 461.875 1113.14 461.455C1113.7 461.034 1114.4 460.852 1115.09 460.947L1162.45 467.453C1163.14 467.548 1163.76 467.914 1164.19 468.47C1164.61 469.026 1164.79 469.727 1164.7 470.418V470.418Z" fill="#A460FF"/>
<path d="M1165.73 456.453C1165.64 457.14 1165.27 457.761 1164.72 458.181C1164.17 458.601 1163.47 458.786 1162.78 458.695L1115.41 452.187C1114.75 452.061 1114.16 451.685 1113.77 451.137C1113.37 450.59 1113.2 449.912 1113.3 449.244C1113.39 448.577 1113.73 447.97 1114.26 447.549C1114.79 447.128 1115.46 446.925 1116.13 446.982L1163.49 453.49C1164.18 453.589 1164.81 453.955 1165.23 454.511C1165.65 455.066 1165.83 455.764 1165.73 456.453V456.453Z" fill="#A460FF"/>
<path d="M1159.27 458.213L1119.21 452.709L1118.03 461.358L1158.08 466.861L1159.27 458.213Z" fill="#A460FF"/>
<path d="M1175.07 424.288L1159.13 452.89L1119.93 447.503L1111.79 415.594L1175.07 424.288Z" fill="url(#paint2_linear)"/>
<path d="M1159.1 395.924L1133.64 392.425L1132.44 401.137L1157.91 404.636L1159.1 395.924Z" fill="#A460FF"/>
<path d="M1152.95 383.052L1144 381.822L1138.85 419.305L1147.8 420.535L1152.95 383.052Z" fill="#A460FF"/>
<path d="M1139.74 387.64L1137.43 389.387L1142.56 396.141L1144.87 394.394L1139.74 387.64Z" fill="#A460FF"/>
<path d="M1148.93 394.946L1150.68 397.252L1157.45 392.133L1155.7 389.827L1148.93 394.946Z" fill="#A460FF"/>
<path d="M1153.38 407.803L1136.91 405.54C1136.36 405.466 1135.86 405.844 1135.79 406.384L1135.69 407.081C1135.62 407.622 1136 408.121 1136.54 408.195L1153.01 410.458C1153.55 410.533 1154.05 410.155 1154.13 409.614L1154.22 408.917C1154.3 408.376 1153.92 407.878 1153.38 407.803Z" fill="#A460FF"/>
<path d="M1152.63 414.058L1136.16 411.795C1135.61 411.721 1135.11 412.098 1135.04 412.639L1134.94 413.336C1134.87 413.877 1135.25 414.376 1135.79 414.45L1152.26 416.713C1152.8 416.788 1153.3 416.41 1153.38 415.869L1153.47 415.172C1153.55 414.631 1153.17 414.132 1152.63 414.058Z" fill="#A460FF"/>
<path d="M1158.87 573.954L1158.52 573.907C1156.02 572.988 1153.49 572.163 1150.95 571.431C1141.12 558.283 1136.25 539.609 1138.97 519.798C1140.61 507.189 1145.43 495.204 1152.98 484.967C1154.01 485.311 1155.02 485.711 1156.01 486.167C1136.46 531.523 1158.87 573.954 1158.87 573.954Z" fill="#A460FF"/>
<path d="M1159.27 458.212L1153.37 457.402L1152.19 466.051L1158.08 466.861L1159.27 458.212Z" fill="#A460FF"/>
<path d="M1168.69 423.412L1175.07 424.289L1159.13 452.89L1154.09 452.197L1168.69 423.412Z" fill="#A460FF"/>
<path d="M1162.95 629.166L1162.91 629.162C1146.92 628.937 1134.65 619.007 1152.97 616.888C1171.29 614.769 1141.59 583.234 1141.59 583.234L1159.67 585.395C1160.41 585.905 1191.52 607.459 1168.04 616.749C1168.04 616.749 1165.11 621.54 1178.26 623.032C1178.27 623.048 1180.33 628.289 1162.95 629.166Z" fill="#A460FF"/>
<path d="M1165.57 473.157L1108.83 465.361C1105.96 464.967 1103.32 466.966 1102.93 469.825L1102.42 473.501C1102.03 476.36 1104.03 478.997 1106.9 479.39L1163.64 487.186C1166.51 487.58 1169.15 485.581 1169.54 482.723L1170.05 479.046C1170.44 476.187 1168.43 473.55 1165.57 473.157Z" fill="#A460FF"/>
<path d="M1087.92 564.824L1087.26 576.752L1159.66 585.402L1161.11 574.879C1161.11 574.879 1136.53 564.062 1087.92 564.824Z" fill="#A460FF"/>
</g>
<path opacity="0.3" d="M1125.55 73.8503C1122.89 77.9239 1117.14 76.4768 1108.62 81.3971C1107.77 81.8891 1092.94 90.6732 1095.48 100.188C1096.6 104.385 1101.07 108.697 1106.49 109.609C1118.12 111.57 1133.3 97.6918 1135.75 83.9078C1136.49 79.7039 1136.03 75.6592 1130.56 62.7724C1118.28 33.837 1105.26 17.9836 1110.72 13.7435C1112.65 12.253 1114.57 13.9823 1122.73 12.6727C1131.88 11.1966 1140.13 7.3038 1139.64 5.78431C1139.27 4.60489 1134.05 6.13886 1125.27 4.83644C1113.65 3.11435 1109.86 -1.48755 1104.58 0.480548C1100.51 2.00004 1099.12 6.10265 1098.87 6.93475C1097.69 10.7769 1099.59 14.2066 1100.3 15.509C1110.03 33.3088 1101.1 25.2048 1118.72 55.3052C1125.08 66.1949 1127.96 70.1673 1125.55 73.8503Z" fill="#A460FF"/>
<path opacity="0.3" d="M1050.5 194.309C1047.84 198.434 1042.09 196.969 1033.57 201.951C1032.72 202.449 1017.89 211.345 1020.43 220.98C1021.55 225.23 1026.02 229.597 1031.44 230.52C1043.07 232.506 1058.25 218.452 1060.7 204.494C1061.44 200.236 1060.98 196.141 1055.51 183.091C1043.23 153.789 1030.21 137.735 1035.67 133.441C1037.6 131.932 1039.52 133.683 1047.68 132.357C1056.83 130.862 1065.08 126.92 1064.59 125.381C1064.22 124.187 1059 125.74 1050.22 124.421C1038.6 122.677 1034.81 118.017 1029.53 120.01C1025.46 121.549 1024.07 125.704 1023.82 126.546C1022.64 130.437 1024.54 133.91 1025.25 135.229C1034.98 153.254 1026.05 145.048 1043.67 175.529C1050.03 186.557 1052.91 190.579 1050.5 194.309Z" fill="#A460FF"/>
<path opacity="0.3" d="M50.3652 350.852C46.0379 357.486 36.668 355.129 22.7863 363.142C21.3901 363.944 -2.76161 378.25 1.36944 393.746C3.19264 400.581 10.4855 407.604 19.3015 409.089C38.2604 412.283 62.989 389.68 66.9816 367.232C68.1932 360.385 67.4432 353.798 58.5233 332.81C38.5143 285.685 17.3052 259.866 26.2019 252.96C29.3406 250.533 32.4677 253.349 45.7724 251.216C60.6811 248.812 74.1243 242.472 73.3281 239.998C72.7166 238.077 64.2238 240.575 49.9151 238.454C30.9792 235.649 24.7941 228.154 16.1973 231.36C9.56227 233.834 7.30064 240.516 6.88523 241.871C4.96971 248.129 8.0738 253.714 9.22773 255.836C25.0826 284.825 10.5201 271.626 39.2413 320.649C49.6036 338.384 54.2885 344.853 50.3652 350.852Z" fill="#A460FF"/>
<g opacity="0.6">
<path opacity="0.6" d="M181.15 623.646C171.291 632.716 170.07 647.622 178.411 656.943C186.763 666.268 201.52 666.475 211.379 657.404" fill="#FE7B6C"/>
<path opacity="0.6" d="M237.456 586.63C241.332 576.693 243.858 576.111 253.315 560.967C269.329 535.33 276.597 520.639 276.597 520.639C277.593 518.624 278.699 516.334 281 513.817C287.785 506.415 299.319 503.278 308.926 505.199C328.251 509.083 334.54 532.483 335.184 535.033C339.124 550.653 334.948 570.792 323.806 576.407C320.89 577.872 320.208 576.983 314.621 578.389C305.018 580.816 299.625 585.31 289.015 593.166C273.628 604.559 265.794 610.298 259.134 612.343C255.067 613.594 240.668 618.015 235.024 611.445C230.042 605.657 234.483 594.252 237.456 586.63Z" fill="#A460FF"/>
<path opacity="0.6" d="M280.563 508.238C279.269 506.639 268.134 493.33 253.469 495.334C246.208 496.322 241.205 500.724 238.747 502.873C232.385 508.434 233.145 511.661 224.619 527.4C224.18 528.21 214.489 546.09 209.408 556.967C208.77 558.339 207.56 560.993 207.231 564.62C206.97 567.488 207.502 568.366 208.006 573.137C208.855 581.228 207.755 582.839 209.359 584.343C211.02 585.9 213.236 585.168 219.376 584.819C224.15 584.555 228.11 584.689 230.849 584.878" fill="#A460FF"/>
<path opacity="0.6" d="M311.441 583.27C314.244 582.833 323.672 581.71 332.299 587.444C333.594 588.3 337.993 591.384 341.146 597.324C345.981 606.413 347.102 620.648 340.095 627.991C337.361 630.859 335.653 630.29 325.119 633.509C312.739 637.285 307.958 640.237 287.871 646.818C285.36 647.64 281.38 648.908 276.252 648.843C272.147 648.786 269.022 647.911 265.346 646.867C259.555 645.23 256.667 644.408 255.768 642.806C253.912 639.476 257.177 635.902 259.38 624.902C259.974 621.914 260.281 619.47 260.44 617.928" fill="#A460FF"/>
<path opacity="0.6" d="M242.258 533.319C234.267 548.269 224.911 564.217 213.957 580.756C203.408 596.675 192.816 610.979 182.585 623.717" stroke="#FFB9A8" stroke-width="4" stroke-miterlimit="10"/>
<path opacity="0.6" d="M278.033 567.66C267.078 579.72 254.49 592.464 240.137 605.379C225.26 618.76 210.772 630.246 197.219 640.066" stroke="#FFB9A8" stroke-width="4" stroke-miterlimit="10"/>
<path opacity="0.6" d="M305.916 611.85C285.022 621.463 263.918 631.413 242.638 641.704C232.28 646.711 222.003 651.746 211.823 656.778" stroke="#FFB9A8" stroke-width="4" stroke-miterlimit="10"/>
<path opacity="0.6" d="M196.213 605.62C201.591 609.894 208.794 616.401 215.869 625.524C222.774 634.431 227.188 642.757 229.937 648.892" stroke="#FFB9A8" stroke-width="4" stroke-miterlimit="10"/>
<path opacity="0.6" d="M181.222 622.195C191.507 634.194 201.797 646.183 212.083 658.182" stroke="#1F3262" stroke-miterlimit="10"/>
</g>
<defs>
<linearGradient id="paint0_linear" x1="1010.97" y1="580.896" x2="1130.08" y2="597.261" gradientUnits="userSpaceOnUse">
<stop stop-color="#A460FF"/>
</linearGradient>
<linearGradient id="paint1_linear" x1="168.229" y1="33896.6" x2="6098.39" y2="34711.3" gradientUnits="userSpaceOnUse">
<stop stop-color="#BE96F5"/>
<stop offset="0.06" stop-color="#0C0913"/>
<stop offset="0.2" stop-color="#261D3C"/>
<stop offset="0.35" stop-color="#3C2D5D"/>
<stop offset="0.5" stop-color="#4D3A77"/>
<stop offset="0.66" stop-color="#594389"/>
<stop offset="0.82" stop-color="#604894"/>
<stop offset="1" stop-color="#624A98"/>
</linearGradient>
<linearGradient id="paint2_linear" x1="4713.27" y1="8504.57" x2="10386.8" y2="9284.07" gradientUnits="userSpaceOnUse">
<stop stop-color="#BE96F5"/>
<stop offset="0.06" stop-color="#0C0913"/>
<stop offset="0.2" stop-color="#261D3C"/>
<stop offset="0.35" stop-color="#3C2D5D"/>
<stop offset="0.5" stop-color="#4D3A77"/>
<stop offset="0.66" stop-color="#594389"/>
<stop offset="0.82" stop-color="#604894"/>
<stop offset="1" stop-color="#624A98"/>
</linearGradient>
</defs>
</svg>
