<svg width="298" height="295" viewBox="0 0 298 295" fill="none" xmlns="http://www.w3.org/2000/svg">
<g opacity="0.6">
<g opacity="0.6">
<g opacity="0.6">
<path opacity="0.6" d="M216.704 244.902C203.265 260.197 180.56 286.022 146.388 292.914C113.006 299.645 81.9844 285.435 83.0923 281.373C83.97 278.132 103.279 283.001 124.431 271.9C146.747 260.182 156.906 238.171 159.683 232.158C165.294 219.986 167.107 209.34 168.157 202.418C169.452 193.869 169.423 187.651 169.308 176.74C169.049 150.769 165.913 150.637 168.287 140.592C169.064 137.321 173.812 117.069 190.085 107.875C195.711 104.692 204.676 101.73 205.366 101.496C213.481 98.8266 217.51 97.404 220.445 97.8586C230.129 99.3398 234.791 112.773 240.042 127.921C243.942 139.169 245.381 148.408 245.999 153.262C246.791 159.641 248.028 170.097 246.071 183.794C245.208 189.836 242.863 202.521 235.597 217.259C233.064 222.406 227.611 232.495 216.704 244.902Z" fill="#9582FC"/>
</g>
<g opacity="0.6">
<path opacity="0.6" d="M282.316 207.565C277.956 216.232 269.51 230.618 254.258 245.444C218.647 280.068 172.603 291.198 171.222 288.603C169.855 286.036 213.208 270.99 235.15 235.458C238.647 229.797 243.971 219.781 248.201 207.697C253.827 191.625 255.021 178.999 255.352 174.291C256.23 162.178 255.021 152.763 254.172 147.689C253.193 141.824 250.848 128.567 242.589 113.829C235.826 101.759 230.618 98.5626 232.575 95.9816C236.316 91.0396 262.92 92.902 279.151 105.47C307.467 127.423 297.683 177.004 282.316 207.565Z" fill="#9582FC"/>
</g>
</g>
<g opacity="0.6">
<g opacity="0.6">
<path opacity="0.6" d="M32.3885 103.241C32.3166 99.0322 32.2588 60.6252 60.1582 35.8272C69.6402 27.395 82.2737 20.7079 85.9859 23.1862C89.324 25.4153 82.6765 34.0968 80.5758 48.1309C78.9211 59.1881 81.0794 67.0777 83.8276 77.1377C86.5183 86.9777 91.5541 105.441 108.144 120.179C127.468 137.336 142.245 131.485 151.109 148.056C157.569 160.14 156.504 174.541 156.188 178.28C155.425 187.402 154.965 192.989 150.964 197.08C137.065 211.335 95.4248 191.977 92.1154 190.408C66.0002 178.002 52.7483 159.216 49.2807 154.054C44.3886 146.78 32.8202 129.022 32.3885 103.241Z" fill="#A460FF"/>
</g>
<g opacity="0.6">
<path opacity="0.6" d="M22.1574 220.075C19.7401 215.631 14.2151 204.999 9.4237 189.176C4.54598 173.103 -1.19517 154.201 1.39477 131.852C4.8768 101.818 21.9847 77.8121 25.7113 78.8386C29.625 79.9238 18.992 103.769 27.7259 135.62C31.6108 149.801 37.6684 159.407 39.5677 162.325C52.2296 181.668 69.4382 191.508 82.2584 198.84C91.9707 204.398 96.8196 207.17 103.856 208.944C126.618 214.678 140.647 204.442 146.561 211.334C152.662 218.447 143.568 236.176 135.654 245.708C128.906 253.847 121.395 257.983 117.295 260.212C113.496 262.265 95.539 271.518 75.4238 268.219C62.1288 266.034 54.7764 259.508 45.0354 250.856C33.4526 240.546 27.6682 230.179 22.1574 220.075Z" fill="#A460FF"/>
</g>
</g>
<g opacity="0.6">
<path opacity="0.6" d="M195.711 34.3019C202.963 33.6273 228.618 31.5596 251.294 44.4058C276.46 58.66 286.935 85.0419 282.374 88.5761C280.59 89.9546 277.337 87.2122 268.819 84.1179C267.05 83.4727 261.669 81.7716 257.625 80.8917C247.712 78.7066 239.122 80.3051 228.575 82.3728C220.575 83.942 214.834 85.8044 208.718 87.7988C192.747 93.0341 184.747 95.6445 179.884 99.5746C164.517 111.952 170.402 130.048 160.402 133.421C152.402 136.119 142.675 126.543 130.877 114.899C117.97 102.17 111.51 95.8057 111.855 86.4789C112.387 72.1075 128.632 61.1824 139.841 53.6447C149.884 46.8989 159.107 43.5407 165.467 41.2823C170.215 39.6106 181.654 35.6071 195.711 34.3019Z" fill="#A460FF"/>
<path opacity="0.6" d="M124.776 7.08434C157.079 -7.21376 189.539 4.09266 203.424 8.93202C224.503 16.279 240.129 27.2777 238.69 29.5507C237.295 31.7357 226.547 27.8202 209.295 27.1016C203.813 26.867 171.64 25.9138 142.56 41.8104C114.805 56.9884 109.611 76.7564 101.97 74.1754C91.956 70.7879 90.5747 33.3781 111.035 15.1645C115.611 11.0731 119.942 9.22538 124.776 7.08434Z" fill="#A460FF"/>
</g>
</g>
</svg>
