<svg width="319" height="315" viewBox="0 0 319 315" fill="none" xmlns="http://www.w3.org/2000/svg">
<path opacity="0.6" d="M233.185 261.645C218.686 278.034 194.189 305.705 157.32 313.09C121.305 320.302 87.8357 305.076 89.0311 300.724C89.978 297.251 110.811 302.468 133.631 290.573C157.708 278.018 168.668 254.433 171.664 247.991C177.719 234.949 179.674 223.541 180.808 216.124C182.205 206.964 182.174 200.301 182.05 188.611C181.77 160.783 178.386 160.641 180.947 149.878C181.786 146.374 186.908 124.674 204.466 114.822C210.536 111.412 220.207 108.238 220.952 107.987C229.708 105.127 234.054 103.603 237.221 104.09C247.669 105.677 252.698 120.07 258.365 136.302C262.571 148.354 264.124 158.253 264.792 163.454C265.645 170.289 266.98 181.493 264.869 196.169C263.938 202.642 261.407 216.234 253.568 232.026C250.836 237.541 244.952 248.352 233.185 261.645Z" fill="#9582FC"/>
<path opacity="0.6" d="M302.929 221.57C298.224 230.879 289.109 246.332 272.649 262.256C234.216 299.446 184.525 311.401 183.034 308.613C181.559 305.857 228.346 289.695 252.027 251.53C255.8 245.449 261.546 234.691 266.111 221.712C272.183 204.448 273.472 190.886 273.829 185.83C274.776 172.819 273.472 162.707 272.556 157.257C271.5 150.956 268.968 136.717 260.055 120.886C252.757 107.923 247.135 104.489 249.247 101.717C253.285 96.4087 281.997 98.4091 299.513 111.908C330.073 135.488 319.514 188.744 302.929 221.57Z" fill="#9582FC"/>
<path opacity="0.6" d="M34.0077 110.578C33.9306 106.055 33.8686 64.7884 63.7761 38.1438C73.9406 29.0837 87.4833 21.8987 91.4627 24.5616C95.0411 26.9566 87.9152 36.2846 85.6632 51.3637C83.8895 63.2443 86.2031 71.7214 89.1491 82.5305C92.0334 93.1032 97.4317 112.941 115.216 128.776C135.93 147.212 151.771 140.925 161.273 158.73C168.198 171.714 167.057 187.187 166.717 191.205C165.9 201.005 165.406 207.009 161.118 211.405C146.218 226.72 101.581 205.921 98.0334 204.235C70.0386 190.905 55.8329 170.721 52.1157 165.174C46.8715 157.359 34.4704 138.278 34.0077 110.578Z" fill="#A460FF"/>
<path opacity="0.6" d="M23.0274 235.327C20.4271 230.536 14.4837 219.072 9.32947 202.01C4.08238 184.679 -2.09352 164.296 0.692548 140.197C4.43826 107.813 22.8416 81.9273 26.8504 83.0342C31.0605 84.2044 19.6224 109.916 29.0176 144.261C33.1967 159.552 39.713 169.91 41.7561 173.056C55.3768 193.914 73.8886 204.524 87.6796 212.43C98.1273 218.423 103.343 221.412 110.912 223.325C135.399 229.508 150.49 218.471 156.851 225.903C163.414 233.572 153.632 252.69 145.119 262.968C137.86 271.744 129.78 276.203 125.369 278.607C121.283 280.821 101.966 290.799 80.3275 287.241C66.0257 284.885 58.1165 277.848 47.6378 268.518C35.178 257.402 28.9555 246.222 23.0274 235.327Z" fill="#A460FF"/>
<path opacity="0.6" d="M209.945 36.5807C217.723 35.8598 245.236 33.6499 269.555 47.3788C296.544 62.6121 307.777 90.8065 302.886 94.5835C300.972 96.0567 297.485 93.1259 288.35 89.8191C286.452 89.1295 280.681 87.3115 276.345 86.3712C265.713 84.036 256.5 85.7443 245.189 87.9541C236.61 89.631 230.453 91.6214 223.895 93.7528C206.766 99.3478 198.187 102.137 192.971 106.338C176.491 119.565 182.802 138.904 172.078 142.509C163.498 145.393 153.067 135.159 140.414 122.715C126.572 109.112 119.644 102.31 120.014 92.3423C120.585 76.9835 138.006 65.3078 150.027 57.2523C160.798 50.0431 170.689 46.4542 177.51 44.0407C182.602 42.2541 194.869 37.9755 209.945 36.5807Z" fill="#A460FF"/>
<path opacity="0.6" d="M133.986 7.51865C168.557 -7.87565 203.298 4.29761 218.158 9.50798C240.718 17.4183 257.442 29.2601 255.902 31.7074C254.408 34.06 242.905 29.8443 224.441 29.0706C218.574 28.818 184.141 27.7917 153.019 44.907C123.314 61.2487 117.755 82.5323 109.578 79.7534C98.8602 76.1061 97.382 35.8283 119.28 16.2183C124.177 11.8132 128.812 9.82384 133.986 7.51865Z" fill="#A460FF"/>
</svg>
