<svg width="131" height="280" viewBox="0 0 131 280" fill="none" xmlns="http://www.w3.org/2000/svg">
<path d="M58.9195 240.133V279.197H10.3389L34.6292 260.566L37.3083 241.628L58.9195 240.133Z" fill="url(#paint0_linear)"/>
<path d="M74.6143 240.133V279.197H123.198L98.9046 260.566L96.2254 241.628L74.6143 240.133Z" fill="url(#paint1_linear)"/>
<path d="M97.9315 37.2452L98.3396 50.6869L81.9456 47.8973V43.9661L94.6846 33.8141L97.9315 37.2452Z" fill="#EE7922"/>
<path d="M115.857 232.519C114.157 233.587 112.457 234.585 110.759 235.514C106.37 237.92 101.788 239.954 97.0598 241.597C94.0793 242.63 91.0448 243.499 87.9697 244.202C82.7436 245.398 77.4198 246.117 72.0636 246.351C68.8965 246.495 65.8 246.467 62.8048 246.311C57.8608 246.039 52.9435 245.404 48.0925 244.411C44.8425 243.748 41.7982 242.975 38.9901 242.14C35.042 240.974 31.1637 239.584 27.3744 237.976C24.5029 236.786 21.7088 235.418 19.0085 233.879L20.0489 228.542L21.8626 219.292L25.3796 201.308L27.1933 192.05L31.2903 171.095L33.104 161.836L37.3084 140.32L39.1344 131.058L42.2953 114.91H94.8962L96.3601 123.116L97.7718 131.058L99.4229 140.314L103.256 161.83L104.907 171.089L108.642 192.043L110.293 201.302L113.5 219.292L115.151 228.548L115.857 232.519Z" fill="#F5B5C8"/>
<path d="M72.064 114.91V246.351C68.8969 246.495 65.8004 246.467 62.8052 246.311V114.91H72.064Z" fill="#EE7B8B"/>
<path d="M58.9197 114.91L57.5694 131.058L56.7991 140.314L55.0007 161.83L54.2243 171.089L52.472 192.043L51.717 201.302L50.1826 219.292L49.4092 228.548L48.0804 244.417C44.8304 243.754 41.7861 242.981 38.978 242.146L40.1166 228.548L40.9053 219.292L42.4091 201.308L43.1824 192.05L44.9348 171.095L45.7081 161.836L47.5065 140.32L48.2829 131.064L49.6332 114.916L58.9197 114.91Z" fill="#EE7B8B"/>
<path d="M43.2345 114.91L41.1538 131.058L39.96 140.314L37.198 161.83L36.0072 171.089L33.3035 192.043L32.1097 201.302L29.7804 219.292L28.5897 228.548L27.3622 237.982C24.4907 236.792 21.6966 235.424 18.9963 233.885L20.0367 228.548L21.8627 219.292L25.3796 201.308L27.1934 192.05L31.2903 171.095L33.1041 161.836L37.3084 140.32L39.1344 131.058L42.2954 114.91H43.2345Z" fill="#EE7B8B"/>
<path d="M97.0602 241.597C94.0796 242.63 91.0451 243.499 87.9701 244.202L86.8377 228.551L86.1686 219.292L84.8613 201.302L84.1892 192.043L82.6824 171.089L82.0103 161.83L80.4758 140.314L79.8037 131.058L78.6406 114.91H87.9302L89.0933 131.058L89.7593 140.314L91.306 161.83L91.9719 171.089L93.4849 192.043L94.1508 201.302L95.4521 219.286L96.118 228.542L97.0602 241.597Z" fill="#EE7B8B"/>
<path d="M115.857 232.519C114.157 233.587 112.458 234.585 110.759 235.514L109.866 228.542L108.682 219.292L106.377 201.308L105.189 192.05L102.504 171.095L101.316 161.836L98.5544 140.32L97.3667 131.064L96.354 123.122L97.7657 131.064L99.4168 140.32L103.25 161.836L104.901 171.095L108.636 192.05L110.287 201.308L113.5 219.292L115.151 228.548L115.857 232.519Z" fill="#EE7B8B"/>
<path d="M99.4233 140.314H37.3088L39.1226 131.058H97.7723L99.4233 140.314Z" fill="#EE7B8B"/>
<path d="M104.907 171.089H31.2905L33.1042 161.83H103.256L104.907 171.089Z" fill="#EE7B8B"/>
<path d="M110.293 201.302H25.3799L27.1936 192.044H108.642L110.293 201.302Z" fill="#EE7B8B"/>
<path d="M115.151 228.542H20.0491L21.8628 219.286H113.5L115.151 228.542Z" fill="#EE7B8B"/>
<path d="M38.3704 24.632L40.9881 44.273C40.9881 44.273 18.7969 47.9157 20.8961 52.6756C22.9952 57.4355 48.5468 44.0827 65.5976 46.593C82.6484 49.1034 65.5976 46.0253 65.5976 46.0253L85.1035 46.593C85.1035 46.593 102.249 44.8346 103.79 69.6712C103.79 69.6712 101.976 104.795 94.97 114.913L43.4494 114.833C43.4494 114.833 37.1735 115.057 40.1534 73.185C40.1534 73.185 3.70717 85.7921 0.20863 56.6652C-3.28991 27.5383 38.3704 24.632 38.3704 24.632Z" fill="url(#paint2_linear)"/>
<path d="M84.7261 46.7496C83.9988 51.7795 79.9049 55.634 74.9732 55.634C70.0415 55.634 65.9506 51.7795 65.2202 46.7496C68.2891 45.6356 66.7547 41.9007 66.7547 41.9007C66.7547 41.9007 83.7318 37.6043 82.6362 42.5145C82.004 45.3532 83.029 46.3138 83.9988 46.6237C84.1761 46.677 84.358 46.714 84.542 46.7342C84.6034 46.7434 84.6647 46.7465 84.7261 46.7496Z" fill="url(#paint3_linear)"/>
<path d="M84.7261 46.4733C83.9988 51.5033 79.9049 55.3578 74.9732 55.3578C70.0415 55.3578 65.9506 51.5033 65.2202 46.4733C68.2891 45.3563 66.7547 41.6214 66.7547 41.6214C66.7547 41.6214 83.7318 37.325 82.6362 42.2352C82.004 45.0739 83.029 46.0345 83.9988 46.3445C84.1761 46.3977 84.358 46.4347 84.542 46.4549L84.7261 46.4733Z" fill="url(#paint4_linear)"/>
<path d="M55.5398 38.0978C57.5948 37.529 58.635 34.8076 57.8633 32.0192C57.0916 29.2308 54.8002 27.4314 52.7452 28.0001C50.6903 28.5689 49.65 31.2903 50.4217 34.0787C51.1934 36.8671 53.4849 38.6665 55.5398 38.0978Z" fill="#F5C8D5"/>
<path d="M96.9986 26.8938C97.0001 30.1896 96.175 33.4331 94.5987 36.3276C93.5089 38.3289 92.0932 40.1347 90.4097 41.6705C86.5135 45.1844 81.4777 47.17 76.2318 47.2609C70.986 47.3517 65.8844 45.5415 61.8689 42.1646C59.1508 39.8641 57.0823 36.8921 55.8692 33.5441C55.1053 31.4101 54.7149 29.1604 54.7153 26.8938C54.7153 15.6371 64.1798 6.5163 75.86 6.5163C87.5403 6.5163 96.9986 15.6371 96.9986 26.8938Z" fill="#F5C8D5"/>
<path d="M69.5998 35.2381C69.6006 36.1543 69.4208 37.0616 69.0708 37.9083C68.7207 38.7549 68.2073 39.5243 67.5597 40.1724C66.9122 40.8205 66.1433 41.3347 65.2969 41.6855C64.4506 42.0362 63.5434 42.2168 62.6272 42.2168C62.3728 42.2185 62.1185 42.2031 61.8662 42.1708C59.148 39.8703 57.0795 36.8982 55.8665 33.5502C56.2821 31.9024 57.2853 30.4631 58.6874 29.5028C60.0896 28.5425 61.7942 28.1274 63.4809 28.3354C65.1675 28.5435 66.7202 29.3604 67.8469 30.6326C68.9737 31.9048 69.597 33.5448 69.5998 35.2443V35.2381Z" fill="#F29EA2"/>
<path d="M94.258 24.1103C94.2058 24.1962 94.1598 24.2883 94.1138 24.3773C94.0186 24.3497 93.9296 24.3159 93.8345 24.2791C93.9787 24.2361 94.1168 24.1809 94.258 24.1103Z" fill="#1B242C"/>
<path d="M83.7655 12.9058C83.7655 12.9058 85.2141 30.3156 96.5629 29.5699L100.359 29.9872C100.359 29.9872 100.285 4.82229 85.5823 4.40799C85.5823 4.40799 75.2954 -5.08718 60.1719 3.79421C45.0483 12.6756 47.8963 27.8267 47.8963 27.8267C47.8963 27.8267 77.6769 25.4391 83.7655 12.9058Z" fill="url(#paint5_linear)"/>
<path d="M101.426 33.113C102.107 30.301 100.96 27.6102 98.8649 27.1029C96.7695 26.5956 94.519 28.4639 93.8382 31.2759C93.1574 34.0878 94.3041 36.7786 96.3995 37.2859C98.4949 37.7933 100.745 35.925 101.426 33.113Z" fill="#F5C8D5"/>
<path d="M46.6258 42.1554C46.6258 42.1554 39.2605 72.1017 46.9327 77.1408H56.7317C56.7317 77.1408 52.9386 72.4117 54.7032 62.2291C54.7032 62.2291 55.8571 75.0417 58.7971 77.1408H61.9488C61.9488 77.1408 54.7983 52.9886 56.7317 44.4816C58.6651 35.9747 48.5255 42.1554 48.5255 42.1554" fill="#F29135"/>
<path d="M94.6816 35.2382C94.6827 35.603 94.6539 35.9674 94.5956 36.3276C93.5059 38.329 92.0901 40.1347 90.4066 41.6706C89.0272 42.2488 87.4983 42.368 86.046 42.0104C84.5936 41.6528 83.2948 40.8375 82.3415 39.6849C81.3883 38.5323 80.8311 37.1036 80.7523 35.6099C80.6736 34.1163 81.0775 32.6369 81.9043 31.3905C82.7311 30.144 83.9369 29.1967 85.3436 28.6884C86.7504 28.18 88.2833 28.1378 89.7159 28.5678C91.1484 28.9978 92.4047 29.8773 93.2989 31.0763C94.1931 32.2753 94.6779 33.7302 94.6816 35.2259V35.2382Z" fill="#F29EA2"/>
<path d="M73.2179 38.7152C73.3529 37.994 74.2521 37.0979 74.9856 37.0212C76.339 36.8769 76.7011 37.282 77.9778 37.5245C79.7362 37.859 80.4114 36.6744 81.5684 37.1654C82.489 37.5552 83.2256 38.5127 82.9555 39.5499C82.4921 41.3452 79.8866 42.3396 77.6525 42.1585C75.8357 42.0112 72.911 40.3755 73.2179 38.7152Z" fill="#F2F2F1" stroke="#2F294C" stroke-width="3" stroke-miterlimit="10" stroke-linecap="round"/>
<path d="M75.4458 36.9905L74.5037 40.9064" stroke="#2F294C" stroke-width="2" stroke-miterlimit="10" stroke-linecap="round"/>
<path d="M77.1457 37.3188L76.6362 41.956" stroke="#2F294C" stroke-width="2" stroke-miterlimit="10" stroke-linecap="round"/>
<path d="M78.6931 37.5828L78.8466 42.1462" stroke="#2F294C" stroke-width="2" stroke-miterlimit="10" stroke-linecap="round"/>
<path d="M80.3193 37.1746L81.3382 41.4066" stroke="#2F294C" stroke-width="2" stroke-miterlimit="10" stroke-linecap="round"/>
<path d="M80.2854 29.1126C80.2854 29.1126 82.8142 25.9793 86.2206 28.2625" stroke="#2F294C" stroke-width="4" stroke-miterlimit="10" stroke-linecap="round"/>
<path d="M75.7557 49.0359L96.9311 60.0226L92.0209 47.8973C92.0209 47.8973 141.123 67.2713 128.848 87.75C128.848 87.75 120.562 101.934 85.9475 80.0778L65.0269 68.1674L75.7496 49.0328" fill="url(#paint6_linear)"/>
<path d="M73.718 22.9135H52.2296C50.1957 22.9135 48.5469 24.5622 48.5469 26.5961V39.4702C48.5469 41.504 50.1957 43.1528 52.2296 43.1528H73.718C75.7519 43.1528 77.4006 41.504 77.4006 39.4702V26.5961C77.4006 24.5622 75.7519 22.9135 73.718 22.9135Z" fill="#7A5396"/>
<path d="M57.2657 21.2378H53.2761V23.7942H57.2657V21.2378Z" fill="#7A5396"/>
<path d="M69.6241 33.3323C69.6226 34.3686 69.3713 35.3893 68.8914 36.3078C68.4114 37.2263 67.7171 38.0155 66.8672 38.6085C66.0173 39.2015 65.0369 39.5808 64.0093 39.7142C62.9816 39.8476 61.9368 39.7313 60.9637 39.375C60.5548 39.2255 60.1629 39.0331 59.7945 38.8011C59.4133 38.5677 59.0583 38.294 58.7357 37.9848C57.5576 36.8633 56.849 35.3365 56.7532 33.7129C56.7532 33.587 56.7532 33.4581 56.7532 33.3323C56.7532 31.6231 57.4322 29.9839 58.6408 28.7752C59.8494 27.5666 61.4886 26.8876 63.1979 26.8876C63.4895 26.8877 63.7807 26.9082 64.0694 26.949C65.6832 27.1654 67.1543 27.9871 68.1848 29.2476C68.4613 29.5969 68.7019 29.9732 68.9029 30.3708C69.1062 30.7555 69.2677 31.1609 69.3848 31.58C69.5462 32.15 69.6268 32.7399 69.6241 33.3323Z" fill="#2C284D"/>
<path opacity="0.31" d="M68.1695 29.2507L58.7357 37.9848C57.5576 36.8634 56.849 35.3366 56.7532 33.7129L64.0541 26.9613C65.6664 27.1753 67.1374 27.9936 68.1695 29.2507Z" fill="#F2F2F1"/>
<path opacity="0.31" d="M69.3814 31.5799L60.9634 39.3749C60.5545 39.2254 60.1626 39.0331 59.7942 38.801L68.9027 30.3708C69.1049 30.7556 69.2654 31.161 69.3814 31.5799Z" fill="#F2F2F1"/>
<path d="M63.1826 39.7709C66.7402 39.7709 69.6242 36.8869 69.6242 33.3292C69.6242 29.7716 66.7402 26.8876 63.1826 26.8876C59.625 26.8876 56.741 29.7716 56.741 33.3292C56.741 36.8869 59.625 39.7709 63.1826 39.7709Z" stroke="#B2A2C8" stroke-width="5" stroke-miterlimit="10"/>
<path d="M68.507 24.632H69.1698V26.7802H68.507C68.2221 26.7802 67.9489 26.6671 67.7474 26.4656C67.546 26.2642 67.4329 25.991 67.4329 25.7061C67.4329 25.4213 67.546 25.1481 67.7474 24.9466C67.9489 24.7452 68.2221 24.632 68.507 24.632Z" fill="#F2F2F1"/>
<path d="M71.177 24.632H69.5996V26.7741H71.177V24.632Z" fill="#F2F2F1"/>
<path d="M73.0949 24.632H71.6064V26.7741H73.0949V24.632Z" fill="#F2F2F1"/>
<path d="M75.3475 25.7031C75.3459 25.9875 75.2322 26.2597 75.0311 26.4608C74.83 26.6619 74.5577 26.7756 74.2734 26.7772H73.5215V24.629H74.2734C74.5582 24.629 74.8314 24.7421 75.0329 24.9436C75.2343 25.145 75.3475 25.4182 75.3475 25.7031Z" fill="#F2F2F1"/>
<path d="M53.8191 26.102V40.5565" stroke="#2F294C" stroke-width="4" stroke-miterlimit="10" stroke-linecap="round"/>
<path d="M53.0028 35.8028C52.5421 36.266 51.9321 36.5509 51.2812 36.6069C51.9916 36.6737 52.6491 37.0111 53.1176 37.5493C53.5862 38.0874 53.8299 38.7851 53.7983 39.498C53.7668 40.2108 53.4624 40.8842 52.9482 41.3789C52.4339 41.8735 51.7492 42.1516 51.0357 42.1554H43.5782L40.7119 42.1769L38.5637 26.0007L38.355 26.0284C44.1705 25.2458 51.0479 25.4882 51.0479 25.4882C51.7698 25.5122 52.454 25.8158 52.9562 26.3349C53.4583 26.854 53.739 27.548 53.739 28.2702C53.739 28.9924 53.4583 29.6864 52.9562 30.2055C52.454 30.7246 51.7698 31.0282 51.0479 31.0522C51.786 31.0546 52.493 31.349 53.0146 31.8712C53.5361 32.3933 53.8298 33.1007 53.8314 33.8387C53.8303 34.2047 53.7565 34.5667 53.6142 34.9039C53.472 35.2411 53.2642 35.5466 53.0028 35.8028Z" fill="#F5C8D5"/>
<path d="M75.8112 49.036L69.8452 59.3781C69.6137 59.2948 69.3769 59.2271 69.1363 59.1756C66.0244 58.6938 55.5472 56.5425 56.1733 49.4318C56.1963 49.09 56.0863 48.7524 55.8664 48.4897C55.1513 47.612 53.7182 45.4208 54.9304 42.8491C55.0217 42.6542 55.0619 42.4393 55.0475 42.2246C55.033 42.0099 54.9642 41.8024 54.8475 41.6215C54.4955 41.0586 54.2922 40.4156 54.2568 39.7526C54.2214 39.0897 54.355 38.4286 54.645 37.8314C55.0992 36.834 56.1794 36.0883 56.8945 37.101C56.8945 37.101 61.7771 44.8377 69.032 37.9726C69.253 37.7218 69.458 37.4574 69.6457 37.1808C70.2595 36.3829 71.4042 35.9778 72.4354 37.0918C73.9698 38.7337 72.5428 40.0564 72.5428 40.0564C72.5428 40.0564 69.6089 43.6163 70.7383 44.6873C70.7444 44.6996 74.5498 48.1429 75.8112 49.036Z" fill="#F5C8D5"/>
<path d="M68.7832 60.2803L65.2202 67.836C65.2202 67.836 96.17 86.8631 100.681 88.0354" stroke="#2F294C" stroke-width="4" stroke-linecap="round" stroke-linejoin="round"/>
<path d="M83.7256 52.2214C83.7256 52.2214 103.861 60.13 112.349 67.4585" stroke="#2F294C" stroke-width="4" stroke-linecap="round" stroke-linejoin="round"/>
<path d="M50.2809 31.046H44.9595" stroke="#34244C" stroke-width="4" stroke-miterlimit="10" stroke-linecap="round"/>
<path d="M50.3359 36.4319H45.0144" stroke="#34244C" stroke-width="4" stroke-miterlimit="10" stroke-linecap="round"/>
<path d="M55.731 43.0485C55.731 43.0485 57.4158 45.7276 58.6863 45.9578" stroke="#34244C" stroke-width="3" stroke-miterlimit="10" stroke-linecap="round"/>
<path d="M56.6272 49.4993C56.9537 50.2463 57.461 50.9002 58.1033 51.402" stroke="#34244C" stroke-width="3" stroke-miterlimit="10" stroke-linecap="round"/>
<defs>
<linearGradient id="paint0_linear" x1="34.9361" y1="286.667" x2="34.3837" y2="238.089" gradientUnits="userSpaceOnUse">
<stop stop-color="#795195"/>
<stop offset="0.38" stop-color="#5F538B"/>
<stop offset="1" stop-color="#2D5679"/>
</linearGradient>
<linearGradient id="paint1_linear" x1="98.9475" y1="284.89" x2="98.5977" y2="236.309" gradientUnits="userSpaceOnUse">
<stop stop-color="#795195"/>
<stop offset="0.53" stop-color="#535487"/>
<stop offset="1" stop-color="#2D5679"/>
</linearGradient>
<linearGradient id="paint2_linear" x1="89.3724" y1="36.9813" x2="-17.7199" y2="145.43" gradientUnits="userSpaceOnUse">
<stop stop-color="#E75757"/>
<stop offset="0.16" stop-color="#E25759"/>
<stop offset="0.34" stop-color="#D4575F"/>
<stop offset="0.53" stop-color="#BD5669"/>
<stop offset="0.74" stop-color="#9D5577"/>
<stop offset="0.94" stop-color="#745489"/>
<stop offset="1" stop-color="#67548E"/>
</linearGradient>
<linearGradient id="paint3_linear" x1="74.3533" y1="60.5811" x2="75.3169" y2="39.0988" gradientUnits="userSpaceOnUse">
<stop stop-color="#F5C8D5"/>
<stop offset="0.43" stop-color="#F3B5C6"/>
<stop offset="1" stop-color="#EF95AC"/>
</linearGradient>
<linearGradient id="paint4_linear" x1="10593.7" y1="3412.63" x2="10632.3" y2="2328.48" gradientUnits="userSpaceOnUse">
<stop stop-color="#F5C8D5"/>
<stop offset="0.43" stop-color="#F3B5C6"/>
<stop offset="1" stop-color="#EF95AC"/>
</linearGradient>
<linearGradient id="paint5_linear" x1="74.0586" y1="39.5315" x2="73.8929" y2="-7.78167" gradientUnits="userSpaceOnUse">
<stop stop-color="#F29135"/>
<stop offset="0.21" stop-color="#F18B34"/>
<stop offset="0.49" stop-color="#EF7A32"/>
<stop offset="0.81" stop-color="#EB5F2E"/>
<stop offset="1" stop-color="#E84B2B"/>
</linearGradient>
<linearGradient id="paint6_linear" x1="108.977" y1="48.017" x2="89.2067" y2="97.6564" gradientUnits="userSpaceOnUse">
<stop stop-color="#EA5757"/>
<stop offset="0.36" stop-color="#E85758"/>
<stop offset="0.53" stop-color="#E0565C"/>
<stop offset="0.66" stop-color="#D35663"/>
<stop offset="0.77" stop-color="#C1556E"/>
<stop offset="0.87" stop-color="#A9547B"/>
<stop offset="0.95" stop-color="#8C528B"/>
<stop offset="1" stop-color="#795195"/>
</linearGradient>
</defs>
</svg>
