<svg width="200" height="233" viewBox="0 0 200 233" fill="none" xmlns="http://www.w3.org/2000/svg">
<path d="M45.0459 13.3512C45.0466 13.8194 44.9657 14.2841 44.8069 14.7245L43.3319 18.8446C43.3326 18.8519 43.3326 18.8593 43.3319 18.8666C43.1425 19.2908 42.9855 19.7288 42.8622 20.1768V20.207C42.1423 22.8183 42.2179 25.585 43.0792 28.1532C44.8151 33.3966 22.6959 32.4078 22.6959 32.4078C22.6959 32.4078 20.743 27.9856 19.2516 24.3435C18.6583 22.9015 18.1364 21.5803 17.8398 20.7069C17.8205 20.6464 17.8013 20.5915 17.7848 20.5366C17.7683 20.4816 17.7546 20.4459 17.7409 20.402L15.2331 12.4805C14.9822 11.6936 14.977 10.8489 15.218 10.059C15.4591 9.26902 15.9351 8.57123 16.5826 8.05852C17.2302 7.54581 18.0185 7.2425 18.8427 7.18898C19.6669 7.13545 20.4878 7.33425 21.1962 7.7589L21.0864 6.90193C20.9783 6.06943 21.1309 5.2239 21.523 4.48163C21.9151 3.73935 22.5275 3.13679 23.2761 2.75679C24.0246 2.37679 24.8725 2.23803 25.7032 2.35958C26.5338 2.48114 27.3064 2.85703 27.9147 3.43559C28.0739 2.42387 28.6088 1.50944 29.4127 0.874881C30.2166 0.240326 31.2303 -0.067642 32.2513 0.0124723C33.2723 0.0925867 34.2256 0.554889 34.9206 1.30706C35.6157 2.05923 36.0015 3.04591 36.001 4.07008V15.197C36.0023 15.218 36.0023 15.2391 36.001 15.2602L37.1738 11.9943C37.4973 11.0927 38.1286 10.3341 38.9566 9.85222C39.7845 9.37037 40.7559 9.19617 41.6997 9.3603C42.6435 9.52444 43.4991 10.0164 44.1157 10.7495C44.7323 11.4825 45.0705 12.4097 45.0706 13.3677L45.0459 13.3512Z" fill="#F7BBA9"/>
<path d="M29.5957 198.638L22.0203 209.999L0 220.239L63.5368 221.782L69.4175 201.671L29.5957 198.638Z" fill="url(#paint0_linear)"/>
<path d="M183.889 180.735L199.378 190.645L197.062 221.782L169.713 230.407L178.127 214.207L172.177 200.218L183.889 180.735Z" fill="url(#paint1_linear)"/>
<path d="M128.043 148.286C128.043 148.286 101.062 160.921 99.3156 173.676C96.9314 191.068 133.924 232.266 133.924 232.266C133.924 232.266 172.658 208.331 184.862 181.386L154.846 161.253C154.846 161.253 155.7 166.727 161.298 135.838H121.289L128.043 148.286Z" fill="#171B33"/>
<path d="M93.3988 125.062C93.3988 125.062 62.416 99.5455 46.4301 128.894C30.4443 158.243 8.97607 196.534 8.97607 196.534C8.97607 196.534 37.5885 217.154 69.1481 202.426L81.5605 167.502C81.5605 167.502 94.0003 175.467 118.18 163.492C142.359 151.516 142.351 145.745 142.351 145.745L93.3988 125.062Z" fill="#1D1A37"/>
<path d="M88.3096 59.2239C88.3096 59.2239 52.4953 62.7287 43.0604 28.1476L13.396 30.8943C13.396 30.8943 23.6989 92.3381 82.7503 94.0136C141.802 95.6891 88.3096 59.2239 88.3096 59.2239Z" fill="url(#paint2_linear)"/>
<path d="M166.195 114.897C166.195 122.038 164.932 125.06 164.932 125.06C125.654 165.162 93.3993 125.06 93.3993 125.06C92.1047 122.236 90.9355 119.537 89.8917 116.962C71.151 70.9111 89.8917 63.5197 89.8917 63.5197L134.539 61.7371C139.308 59.9627 144.645 63.0967 149.185 67.258C155.838 73.4104 160.529 81.3881 162.671 90.193C165.418 101.27 166.192 109.335 166.195 114.897Z" fill="#171B33"/>
<path d="M166.195 114.897C166.195 122.038 164.932 125.06 164.932 125.06C125.654 165.162 93.3992 125.06 93.3992 125.06C92.1045 122.236 90.9353 119.537 89.8916 116.962C89.8916 116.962 122.923 139.722 166.195 114.897Z" fill="#F8E7F0"/>
<path d="M155.447 120.692C155.447 120.692 171.211 90.8247 179.813 102.699C188.416 114.573 182.804 116.63 182.804 116.63L160.501 127.949C160.501 127.949 167.049 123.9 173.99 132.316L194.398 158.825C194.398 158.825 185.982 165.557 189.561 166.189C193.14 166.82 181.354 173.33 181.354 173.33C181.354 173.33 176.907 175.646 174.924 173.33C174.924 173.33 160.526 130.85 156.741 134.313" fill="#F8E7F0"/>
<path d="M104.539 72.6086L110.791 81.3047L118.182 72.6086H104.539Z" fill="url(#paint3_linear)"/>
<path d="M126.667 94.0713L131.001 71.2984" stroke="white" stroke-width="4" stroke-miterlimit="10" stroke-linecap="round"/>
<path d="M100.529 168.848C100.529 168.848 109.286 149.445 127.815 147.682" stroke="white" stroke-width="4" stroke-miterlimit="10" stroke-linecap="round"/>
<path d="M152.448 135.838C156.282 135.838 159.391 132.729 159.391 128.894C159.391 125.059 156.282 121.95 152.448 121.95C148.613 121.95 145.504 125.059 145.504 128.894C145.504 132.729 148.613 135.838 152.448 135.838Z" fill="#F8E7F0"/>
<path d="M145.503 128.894C145.503 128.894 123.357 140.867 102.88 126.631L145.503 128.894Z" fill="#F8E7F0"/>
<path d="M145.503 128.894C145.503 128.894 123.357 140.867 102.88 126.631" stroke="#30244C" stroke-width="4" stroke-miterlimit="10" stroke-linecap="round"/>
<path d="M186.96 167.172C186.96 167.172 174.874 145.632 172.237 142.891L186.96 167.172Z" fill="#F8E7F0"/>
<path d="M186.96 167.172C186.96 167.172 174.874 145.632 172.237 142.891" stroke="#30244C" stroke-width="4" stroke-miterlimit="10" stroke-linecap="round"/>
<path d="M158.493 123.123C158.493 123.123 162.339 110.568 167.329 114.776C172.32 118.984 159.754 124.598 159.754 124.598" fill="#F8E7F0"/>
<path d="M158.493 123.123C158.493 123.123 162.339 110.568 167.329 114.776C172.32 118.984 159.754 124.598 159.754 124.598" stroke="#30244C" stroke-width="4" stroke-miterlimit="10" stroke-linecap="round"/>
<path d="M147.119 124.447C147.119 124.447 141.738 131.973 151.846 135.819" stroke="#33224D" stroke-width="4" stroke-miterlimit="10" stroke-linecap="round"/>
<path d="M152.919 121.97C152.919 121.97 163.733 123.068 157.762 133.36" stroke="#33224D" stroke-width="4" stroke-miterlimit="10" stroke-linecap="round"/>
<path d="M147.581 105.64C147.581 105.64 138.044 117.841 129.873 105.64C121.701 93.4395 131.732 93.0055 131.732 93.0055C131.732 93.0055 160.693 87.2649 147.581 105.64Z" fill="url(#paint4_linear)"/>
<path d="M127.577 92.2823C125.83 90.8962 123.291 91.1887 121.905 92.9356C120.519 94.6825 120.811 97.2222 122.558 98.6082L127.58 102.593C129.327 103.979 131.867 103.686 133.253 101.94C134.639 100.193 134.346 97.653 132.599 96.2669L127.577 92.2823Z" fill="#F7BBA9"/>
<path d="M134.704 82.2862C134.187 80.1559 132.042 78.8477 129.911 79.3643C127.781 79.8808 126.473 82.0265 126.989 84.1568L129.396 94.0814C129.913 96.2117 132.058 97.5199 134.189 97.0033C136.319 96.4868 137.627 94.3411 137.11 92.2108L134.704 82.2862Z" fill="#F7BBA9"/>
<path d="M145.108 93.0112C145.108 90.8191 143.331 89.0422 141.139 89.0422C138.947 89.0422 137.17 90.8191 137.17 93.0112V95.0877C137.17 97.2797 138.947 99.0566 141.139 99.0566C143.331 99.0566 145.108 97.2797 145.108 95.0877V93.0112Z" fill="#F7BBA9"/>
<path d="M151.409 95.8518C151.75 93.6865 150.271 91.6545 148.106 91.3131C145.941 90.9717 143.909 92.4502 143.567 94.6155L143.244 96.6667C142.903 98.8319 144.381 100.864 146.546 101.205C148.712 101.547 150.744 100.068 151.085 97.903L151.409 95.8518Z" fill="#F7BBA9"/>
<path d="M21.8223 7.63525C21.8223 7.63525 24.4646 9.8079 24.8436 18.3639C24.8436 18.3639 30.6996 21.4841 30.0624 27.5846" stroke="#33224D" stroke-width="4" stroke-miterlimit="10" stroke-linecap="round"/>
<path d="M28.4561 3.3916C28.4561 3.3916 31.0462 8.37138 30.3431 15.944" stroke="#33224D" stroke-width="4" stroke-miterlimit="10" stroke-linecap="round"/>
<path d="M137.186 92.6953C137.186 92.6953 136.239 103.031 143.35 98.3919C143.35 98.3919 145.039 106.302 150.574 99.3258" stroke="#33224D" stroke-width="4" stroke-linecap="round" stroke-linejoin="round"/>
<path d="M143.351 98.3782L144.817 92.6816" stroke="#33224D" stroke-width="4" stroke-linecap="round" stroke-linejoin="round"/>
<path d="M111.983 75.5531C125.965 75.5531 137.299 64.2186 137.299 50.2367C137.299 36.2549 125.965 24.9203 111.983 24.9203C98.001 24.9203 86.6665 36.2549 86.6665 50.2367C86.6665 64.2186 98.001 75.5531 111.983 75.5531Z" fill="#F7BBA9"/>
<path d="M86.5264 45.2569C86.5264 45.2569 89.3307 45.5315 89.8938 50.3767L93.7914 39.9585C93.7914 39.9585 113.568 45.8337 128.562 38.261L133.934 50.374C133.934 50.374 135.962 44.4438 139.716 46.8033C139.716 46.8033 140.815 29.5375 130.987 28.4168C130.987 28.4168 123.275 14.1092 101.815 21.4017C101.815 21.4017 91.855 24.9367 87.7898 19.5944C87.7898 19.5944 87.9299 24.9093 89.8938 26.4612C89.8938 26.4612 87.7898 26.7358 86.5264 23.5139C86.5264 23.5139 79.981 34.4568 84.1257 46.7868L86.5264 45.2569Z" fill="#304E4E"/>
<path d="M106.396 59.9546C106.396 59.9546 108.607 63.6352 111.983 63.5253C113.612 63.4704 115.438 63.2094 117.57 59.9546" stroke="#30244C" stroke-width="4" stroke-miterlimit="10" stroke-linecap="round"/>
<path d="M97.4891 68.0958C101.838 68.0958 105.364 64.4509 105.364 59.9546C105.364 55.4583 101.838 51.8134 97.4891 51.8134C93.1399 51.8134 89.6143 55.4583 89.6143 59.9546C89.6143 64.4509 93.1399 68.0958 97.4891 68.0958Z" fill="#F29A96"/>
<path d="M126.057 68.0958C130.406 68.0958 133.932 64.4509 133.932 59.9546C133.932 55.4583 130.406 51.8134 126.057 51.8134C121.708 51.8134 118.182 55.4583 118.182 59.9546C118.182 64.4509 121.708 68.0958 126.057 68.0958Z" fill="#F29A96"/>
<path d="M103.839 50.2366H103.155C102.769 50.2366 102.455 50.5502 102.455 50.937V54.8154C102.455 55.2022 102.769 55.5158 103.155 55.5158H103.839C104.226 55.5158 104.54 55.2022 104.54 54.8154V50.937C104.54 50.5502 104.226 50.2366 103.839 50.2366Z" fill="#30234C"/>
<path d="M120.591 50.2366H119.907C119.52 50.2366 119.207 50.5502 119.207 50.937V54.8154C119.207 55.2022 119.52 55.5158 119.907 55.5158H120.591C120.978 55.5158 121.291 55.2022 121.291 54.8154V50.937C121.291 50.5502 120.978 50.2366 120.591 50.2366Z" fill="#30234C"/>
<path d="M86.5271 55.4967C88.3869 55.4967 89.8946 53.2044 89.8946 50.3768C89.8946 47.5492 88.3869 45.257 86.5271 45.257C84.6673 45.257 83.1597 47.5492 83.1597 50.3768C83.1597 53.2044 84.6673 55.4967 86.5271 55.4967Z" fill="#F7BBA9"/>
<path d="M137.299 55.4967C139.159 55.4967 140.667 53.2044 140.667 50.3768C140.667 47.5492 139.159 45.257 137.299 45.257C135.439 45.257 133.932 47.5492 133.932 50.3768C133.932 53.2044 135.439 55.4967 137.299 55.4967Z" fill="#F7BBA9"/>
<path d="M84.9146 48.1327C84.9146 48.1327 87.8947 46.2732 87.7546 53.3213" stroke="#30244C" stroke-width="4" stroke-miterlimit="10" stroke-linecap="round"/>
<path d="M87.475 49.9125C87.475 49.9125 85.5111 49.6763 85.231 51.3244" stroke="#30244C" stroke-width="4" stroke-miterlimit="10" stroke-linecap="round"/>
<path d="M138.967 47.8937C138.967 47.8937 135.498 46.0342 135.671 53.0822" stroke="#30244C" stroke-width="4" stroke-miterlimit="10" stroke-linecap="round"/>
<path d="M135.976 49.6736C135.976 49.6736 138.261 49.4347 138.588 51.0827" stroke="#30244C" stroke-width="4" stroke-miterlimit="10" stroke-linecap="round"/>
<path d="M128.312 104.424C128.312 104.424 145.65 148.69 151.602 98.2875" stroke="white" stroke-width="4" stroke-miterlimit="10" stroke-linecap="round"/>
<path d="M101.611 74.5945C101.611 74.5945 104.632 85.606 110.45 85.606C116.267 85.606 120.887 75.1685 120.887 75.1685" stroke="white" stroke-width="4" stroke-linecap="round" stroke-linejoin="round"/>
<path d="M110.519 82.0985L110.456 85.6061" stroke="white" stroke-width="4" stroke-linecap="round" stroke-linejoin="round"/>
<defs>
<linearGradient id="paint0_linear" x1="37.336" y1="197.301" x2="32.0183" y2="224.935" gradientUnits="userSpaceOnUse">
<stop offset="0.03" stop-color="#EF919D"/>
<stop offset="0.36" stop-color="#F3A6A3"/>
<stop offset="0.72" stop-color="#F6B6A7"/>
<stop offset="1" stop-color="#F7BBA9"/>
</linearGradient>
<linearGradient id="paint1_linear" x1="171.762" y1="194.535" x2="200.092" y2="229.976" gradientUnits="userSpaceOnUse">
<stop stop-color="#EF919D"/>
<stop offset="0.02" stop-color="#F0959E"/>
<stop offset="0.14" stop-color="#F3A6A3"/>
<stop offset="0.29" stop-color="#F5B2A6"/>
<stop offset="0.49" stop-color="#F7B9A8"/>
<stop offset="1" stop-color="#F7BBA9"/>
</linearGradient>
<linearGradient id="paint2_linear" x1="13.4015" y1="61.1026" x2="110.519" y2="61.1026" gradientUnits="userSpaceOnUse">
<stop stop-color="#171B33"/>
</linearGradient>
<linearGradient id="paint3_linear" x1="111.359" y1="72.5977" x2="111.301" y2="83.5653" gradientUnits="userSpaceOnUse">
<stop stop-color="#EE776F"/>
<stop offset="0.18" stop-color="#F18875"/>
<stop offset="0.48" stop-color="#F4A17D"/>
<stop offset="0.77" stop-color="#F6B082"/>
<stop offset="1" stop-color="#F7B584"/>
</linearGradient>
<linearGradient id="paint4_linear" x1="140.656" y1="113.977" x2="137.932" y2="89.8111" gradientUnits="userSpaceOnUse">
<stop stop-color="#EF919D"/>
<stop offset="0.01" stop-color="#EF929D"/>
<stop offset="0.15" stop-color="#F3A5A3"/>
<stop offset="0.32" stop-color="#F5B1A6"/>
<stop offset="0.53" stop-color="#F7B9A8"/>
<stop offset="1" stop-color="#F7BBA9"/>
</linearGradient>
</defs>
</svg>
