<svg width="150" height="306" viewBox="0 0 150 306" fill="none" xmlns="http://www.w3.org/2000/svg">
<path d="M26.2966 282.689V291.596L0 305.35L85.0679 301.034L61.639 287.549V281.077L26.2966 282.689Z" fill="#33224D"/>
<path d="M68.0324 12.8527C68.0197 13.356 67.8753 13.8472 67.6134 14.2772C67.3515 14.7072 66.9814 15.0609 66.54 15.3031L61.8511 18.0823C62.3418 18.3085 62.7601 18.6666 63.0593 19.1165C63.3585 19.5665 63.5269 20.0907 63.5458 20.6307C63.5396 21.0328 63.4461 21.4287 63.272 21.7912C63.0979 22.1536 62.8472 22.474 62.5372 22.7301C61.8577 23.3009 60.9962 23.6094 60.1089 23.5996H54.0826C53.2242 23.6085 52.3894 23.319 51.7207 22.7807L46.2919 25.6263C46.2919 25.6263 33.8092 20.0458 37.1386 15.0185C40.4679 9.9913 47.1488 6.32363 47.1488 6.32363C47.2994 6.18656 47.4648 6.06673 47.642 5.96634L56.8554 0.515423C58.4174 -0.404657 60.5611 -0.0600218 61.6329 1.2869C62.0207 1.76325 62.2337 2.35793 62.2368 2.97213C62.2312 3.34458 62.151 3.71213 62.0012 4.05314C61.8513 4.39415 61.6347 4.70172 61.3641 4.95773C62.8122 4.49295 64.5006 4.91031 65.4112 6.05804C65.7907 6.52762 66.0011 7.11115 66.0088 7.71481C66.0014 8.14428 65.8968 8.56649 65.703 8.94979C65.5091 9.3331 65.231 9.66755 64.8895 9.92806C65.3751 9.95546 65.8499 10.0818 66.2848 10.2993C66.7198 10.5167 67.1057 10.8208 67.419 11.1928C67.8043 11.6614 68.0204 12.2462 68.0324 12.8527Z" fill="url(#paint0_linear)"/>
<path d="M15.376 154.849C14.9713 156.872 20.2293 287.549 20.2293 287.549H70.1603L63.7514 157.198L15.376 154.849Z" fill="url(#paint1_linear)"/>
<path d="M135.059 87.4835L116.446 89.6367C116.446 89.6367 118.912 106.122 115.472 114.479C115.472 114.479 108.371 135.119 91.6321 101.237C91.6321 101.237 88.9414 90.8034 70.1604 85.7034L68.8229 85.3366L68.159 85.1564L67.3116 84.9256L67.065 84.8624L66.8468 84.7991L66.6318 84.7422L66.3156 84.66L65.8066 84.524L65.247 84.3723L63.1444 83.8C62.9768 83.7526 62.844 83.7146 62.7397 83.6893H62.7112L62.6448 83.6735H62.6227H62.5974L62.5405 83.6577L62.1705 83.5565H62.1263H62.1105L62.0378 83.5344L61.965 83.5154L61.8638 83.487H61.8038L51.3699 80.6414C51.3699 80.6414 30.9922 82.1685 27.4604 67.3144C27.4604 67.3144 20.1504 46.668 52.1224 25.4239L39.5954 9.73828C39.5954 9.73828 5.55558 33.8121 5.97926 60.7822C5.97926 60.9245 6.01088 89.2667 30.7202 101.436C30.4041 102.069 8.58774 144.706 11.1172 157.176C11.1223 157.178 11.1279 157.178 11.133 157.176C18.4826 162.564 26.5619 166.879 35.1278 169.99C36.8762 170.623 38.6816 171.195 40.5344 171.698C49.8016 174.227 60.2165 175.056 70.1572 171.423C70.1572 171.423 82.7601 146.201 81.3436 120.126C81.3626 120.205 81.4069 120.353 81.4733 120.553C81.4954 120.616 81.5175 120.692 81.5428 120.771C82.8075 124.536 89.6939 141.787 111.311 142.748C111.321 142.774 143.419 145.202 135.059 87.4835Z" fill="#33224D"/>
<path d="M81.4824 120.591C81.416 120.388 81.3718 120.243 81.3528 120.161C81.3781 120.23 81.4192 120.373 81.4824 120.591Z" fill="#203084"/>
<path d="M70.1598 171.438C60.2191 175.071 49.8042 174.252 40.537 171.714C38.6842 171.211 36.8788 170.629 35.1303 170.006C26.5656 166.895 18.4874 162.58 11.1387 157.191C11.1336 157.193 11.128 157.193 11.1229 157.191C8.59346 144.721 30.394 102.082 30.726 101.452C38.3781 100.877 46.0731 101.402 53.5762 103.011C55.3752 103.403 57.2091 103.884 59.0461 104.462C67.4185 107.099 75.8036 111.801 81.3367 120.091C81.3429 120.113 81.3429 120.136 81.3367 120.157C82.7626 146.217 70.1598 171.438 70.1598 171.438Z" fill="url(#paint2_linear)"/>
<path d="M54.4551 82.8199L59.9408 91.5244L68.8222 85.3367L54.4551 82.8199Z" fill="url(#paint3_linear)"/>
<path d="M61.6393 95.0023L59.0403 104.447L40.5439 171.714C38.6911 171.211 36.8857 170.629 35.1372 170.006L53.5704 102.995L56.1789 93.5099L61.6393 95.0023Z" fill="#33224D"/>
<path d="M117.276 63.1021L112.498 65.5447C111.841 65.881 111.58 66.6867 111.916 67.3444L112.733 68.9406C113.069 69.5983 113.875 69.8588 114.532 69.5226L119.31 67.08C119.967 66.7437 120.228 65.938 119.892 65.2803L119.075 63.6841C118.739 63.0264 117.933 62.7659 117.276 63.1021Z" fill="#42635F"/>
<path d="M115.847 50.7447L103.322 57.1484C101.456 58.1023 100.717 60.3881 101.671 62.2538L104.151 67.1043C105.105 68.9701 107.391 69.7092 109.256 68.7553L121.781 62.3516C123.647 61.3977 124.386 59.1119 123.432 57.2462L120.952 52.3957C119.998 50.5299 117.712 49.7908 115.847 50.7447Z" fill="#E3E5E7"/>
<path d="M114.885 53.8523L105.724 58.536C104.528 59.1473 104.055 60.6121 104.666 61.8077L106.15 64.7101C106.761 65.9057 108.226 66.3794 109.422 65.7681L118.582 61.0845C119.778 60.4732 120.252 59.0084 119.64 57.8127L118.156 54.9103C117.545 53.7147 116.08 53.241 114.885 53.8523Z" fill="#324E4D"/>
<path d="M108.299 62.1183C108.78 61.8726 108.92 61.1857 108.612 60.584C108.304 59.9823 107.665 59.6937 107.185 59.9393C106.705 60.185 106.565 60.8719 106.872 61.4736C107.18 62.0753 107.819 62.3639 108.299 62.1183Z" fill="#F9AB13"/>
<path d="M116.362 57.9925C116.842 57.7468 116.982 57.0599 116.675 56.4582C116.367 55.8566 115.728 55.5679 115.248 55.8135C114.767 56.0592 114.627 56.7461 114.935 57.3478C115.243 57.9495 115.881 58.2381 116.362 57.9925Z" fill="#F9AB13"/>
<path d="M115.407 59.6921L110.421 62.2411L110.924 63.2236L115.909 60.6746L115.407 59.6921Z" fill="#F9AB13"/>
<path d="M110.698 50.1593L105.854 52.6364C105.215 52.9631 104.961 53.746 105.288 54.385L106.083 55.939C106.409 56.578 107.192 56.8312 107.831 56.5044L112.676 54.0273C113.315 53.7006 113.568 52.9177 113.242 52.2787L112.447 50.7247C112.12 50.0857 111.337 49.8325 110.698 50.1593Z" fill="#E3E5E7"/>
<path d="M121.441 64.6508L111.338 69.8167C109.472 70.7706 108.733 73.0564 109.687 74.9221L118.357 91.8806C119.311 93.7464 121.597 94.4855 123.463 93.5316L133.566 88.3658C135.432 87.4118 136.171 85.1261 135.217 83.2603L126.547 66.3018C125.593 64.4361 123.307 63.6969 121.441 64.6508Z" fill="#E3E5E7"/>
<path d="M124.303 93.1049L121.417 94.5803L124.942 101.475L127.828 99.9993L124.303 93.1049Z" fill="#42635F"/>
<path d="M134.971 87.6528L132.086 89.1281L135.611 96.0225L138.496 94.5471L134.971 87.6528Z" fill="#42635F"/>
<path d="M128.201 115.048L134.265 111.946L128.084 99.8556L124.075 101.904L128.201 115.048Z" fill="#E3E5E7"/>
<path d="M147.498 105.18L141.43 108.282L135.249 96.1911L139.258 94.1423L147.498 105.18Z" fill="#E3E5E7"/>
<path d="M134.266 111.96L126.8 115.777L127.441 117.029L134.907 113.212L134.266 111.96Z" fill="#737373"/>
<path d="M148.897 104.479L141.432 108.296L142.072 109.549L149.538 105.732L148.897 104.479Z" fill="#737373"/>
<path d="M108.87 73.3156C108.87 73.3156 99.7007 78.5673 102.486 89.9846L105.031 89.466C105.031 89.466 101.74 82.1939 109.945 75.415L108.87 73.3156Z" fill="#737373"/>
<path d="M125.731 64.6934C125.731 64.6934 135.359 60.3333 142.982 69.278L141.085 71.036C141.085 71.036 137.107 64.1022 126.819 66.796L125.731 64.6934Z" fill="#737373"/>
<path d="M102.606 93.8925C102.398 94.1348 102.24 94.4158 102.142 94.7193C102.043 95.0229 102.005 95.3429 102.03 95.6612C102.055 95.9794 102.143 96.2895 102.289 96.5736C102.434 96.8577 102.635 97.1103 102.878 97.3167L104.089 97.0638C104.089 97.0638 102.486 95.1667 104.013 93.902L102.606 93.8925Z" fill="#42635F"/>
<path d="M106.385 93.1084C106.938 93.4202 107.355 93.927 107.554 94.5298C107.753 95.1326 107.721 95.7881 107.463 96.3682L106.347 96.599C106.347 96.599 106.979 94.2435 105.205 93.6586L106.385 93.1084Z" fill="#42635F"/>
<path d="M105.469 88.5421L101.661 89.3307C100.857 89.4972 100.341 90.2836 100.507 91.0873L100.912 93.0409C101.078 93.8446 101.865 94.3611 102.668 94.1947L106.476 93.4061C107.28 93.2396 107.797 92.4532 107.63 91.6496L107.226 89.6959C107.059 88.8922 106.273 88.3757 105.469 88.5421Z" fill="#E3E5E7"/>
<path d="M146.53 71.8327C146.847 71.8059 147.167 71.8418 147.47 71.9386C147.774 72.0353 148.055 72.1909 148.298 72.3965C148.541 72.6021 148.741 72.8536 148.887 73.1366C149.033 73.4196 149.122 73.7287 149.148 74.046L148.234 74.8807C148.234 74.8807 147.637 72.4714 145.705 72.9836L146.53 71.8327Z" fill="#42635F"/>
<path d="M143.684 74.4286C143.613 75.0592 143.779 75.6937 144.151 76.2079C144.523 76.722 145.074 77.0786 145.695 77.2078L146.536 76.4395C146.536 76.4395 144.257 75.5669 144.822 73.7931L143.684 74.4286Z" fill="#42635F"/>
<path d="M143.854 74.6646L146.723 72.0392C147.329 71.4851 147.37 70.5452 146.816 69.9397L145.469 68.4678C144.915 67.8623 143.975 67.8206 143.37 68.3747L140.501 71C139.895 71.5541 139.854 72.4941 140.408 73.0995L141.754 74.5714C142.308 75.1769 143.248 75.2186 143.854 74.6646Z" fill="#E3E5E7"/>
<path d="M120.855 67.8435L114.307 71.1914C112.561 72.0841 111.869 74.2232 112.762 75.9692L114.93 80.2089C115.823 81.9549 117.962 82.6466 119.708 81.7539L126.256 78.406C128.002 77.5133 128.693 75.3742 127.801 73.6282L125.633 69.3885C124.74 67.6425 122.601 66.9508 120.855 67.8435Z" fill="#737373"/>
<path d="M120.499 89.5925C121.505 89.5925 122.32 88.7771 122.32 87.7713C122.32 86.7655 121.505 85.9501 120.499 85.9501C119.493 85.9501 118.678 86.7655 118.678 87.7713C118.678 88.7771 119.493 89.5925 120.499 89.5925Z" fill="#737373"/>
<path d="M130.759 84.344C131.765 84.344 132.581 83.5286 132.581 82.5228C132.581 81.517 131.765 80.7016 130.759 80.7016C129.754 80.7016 128.938 81.517 128.938 82.5228C128.938 83.5286 129.754 84.344 130.759 84.344Z" fill="#737373"/>
<path d="M125.628 86.9682C126.633 86.9682 127.449 86.1528 127.449 85.147C127.449 84.1412 126.633 83.3258 125.628 83.3258C124.622 83.3258 123.806 84.1412 123.806 85.147C123.806 86.1528 124.622 86.9682 125.628 86.9682Z" fill="#737373"/>
<path d="M112.758 76.5231L109.37 78.4787C108.521 78.9693 108.229 80.0561 108.72 80.906L109.912 82.9706C110.403 83.8205 111.489 84.1117 112.339 83.621L115.726 81.6654C116.576 81.1747 116.868 80.088 116.377 79.2381L115.185 77.1735C114.694 76.3236 113.607 76.0324 112.758 76.5231Z" fill="#FCAE9C"/>
<path d="M129.148 68.5123L125.761 70.4679C124.911 70.9585 124.62 72.0453 125.11 72.8952L126.302 74.9598C126.793 75.8097 127.88 76.1009 128.73 75.6102L132.117 73.6546C132.967 73.1639 133.258 72.0772 132.767 71.2273L131.575 69.1627C131.085 68.3128 129.998 68.0216 129.148 68.5123Z" fill="#FCAE9C"/>
<path d="M133.896 76.0465L130.509 78.002C129.659 78.4927 129.368 79.5795 129.859 80.4294L131.051 82.494C131.541 83.3439 132.628 83.6351 133.478 83.1444L136.865 81.1888C137.715 80.6981 138.006 79.6113 137.516 78.7615L136.324 76.6969C135.833 75.847 134.746 75.5558 133.896 76.0465Z" fill="#FCAE9C"/>
<path d="M131.504 72.5931L128.117 74.5487C127.267 75.0393 126.976 76.1261 127.467 76.976L128.659 79.0406C129.149 79.8905 130.236 80.1817 131.086 79.691L134.473 77.7354C135.323 77.2447 135.614 76.158 135.123 75.3081L133.931 73.2435C133.441 72.3936 132.354 72.1024 131.504 72.5931Z" fill="#FCAE9C"/>
<path d="M84.7607 69.4551C84.7291 69.6227 84.6974 69.7902 84.6658 69.9673C84.5836 70.3783 84.4824 70.7894 84.3718 71.2036C83.2554 75.242 80.8658 78.8125 77.5581 81.3845C77.5107 81.4256 77.457 81.4636 77.4032 81.5047C74.7771 83.5142 71.7001 84.8524 68.4395 85.4031C67.8641 85.498 67.295 85.5707 66.7132 85.615C66.0659 85.6757 65.4156 85.7 64.7655 85.6877C62.9903 85.6723 61.2247 85.4246 59.5138 84.951C57.105 84.2943 54.8358 83.2047 52.8171 81.7355C52.8171 81.7355 52.7919 81.7355 52.7697 81.7102C52.7476 81.6849 52.716 81.6722 52.6843 81.6406C52.6692 81.6351 52.656 81.6252 52.6464 81.6122L52.1879 81.2612C52.1879 81.2612 52.188 81.2612 52.1658 81.2612C51.9034 81.0557 51.6378 80.8407 51.3912 80.613C51.3695 80.6008 51.3502 80.5847 51.3343 80.5656C47.9944 77.6516 45.7113 73.7156 44.84 69.3697C44.7261 68.7943 44.6344 68.2188 44.5775 67.6402C44.3201 65.2175 44.5196 62.7679 45.1656 60.4187C45.4949 59.2331 45.9331 58.0804 46.4746 56.9755C46.6801 56.5645 46.8983 56.1629 47.107 55.7772C47.1259 55.7329 47.1544 55.7076 47.1734 55.6665C47.1779 55.6496 47.1854 55.6335 47.1955 55.6191C47.2176 55.5875 47.2429 55.5432 47.2714 55.5084C47.2998 55.4737 47.3346 55.4009 47.3757 55.3346C51.9287 47.9866 61.0821 44.2209 70.0204 46.6807C80.2551 49.4884 86.5566 59.4512 84.7607 69.4551Z" fill="#FCAE9C"/>
<path d="M64.4064 71.2632C65.4693 67.3992 63.1985 63.4052 59.3345 62.3423C55.4705 61.2794 51.4764 63.5502 50.4135 67.4142C49.3506 71.2782 51.6214 75.2723 55.4855 76.3352C59.3495 77.398 63.3435 75.1273 64.4064 71.2632Z" fill="#FB7C69"/>
<path d="M61.8487 65.014L62.6871 65.2446C63.0322 65.3395 63.389 65.1367 63.4839 64.7915L64.1514 62.3649C64.2464 62.0197 64.0435 61.663 63.6984 61.568L62.86 61.3374C62.5149 61.2425 62.1581 61.4453 62.0632 61.7905L61.3957 64.2171C61.3007 64.5623 61.5036 64.919 61.8487 65.014Z" fill="#30234C"/>
<path d="M84.6665 69.9672C84.5843 70.3782 84.4832 70.7893 84.3725 71.2035C83.2561 75.242 80.8665 78.8125 77.5588 81.3844C77.4798 81.3686 77.4007 81.3465 77.3217 81.3243C73.8659 80.3758 71.9213 76.471 72.99 72.6105C74.0587 68.7499 77.7327 66.3818 81.1696 67.3335C82.6229 67.7445 83.8702 68.6839 84.6665 69.9672Z" fill="#FB7C69"/>
<path d="M62.1672 70.3182C62.4581 69.67 63.7197 68.9744 64.5417 69.0851C66.1005 69.2938 66.4198 70.0779 67.7035 70.6217C69.4773 71.3616 70.7293 70.5048 71.8138 71.213C72.6612 71.7789 73.0216 72.8287 72.364 73.6065C71.2321 74.9471 68.0608 75.0577 65.7242 74.3179C63.8208 73.7171 61.5349 71.7284 62.1672 70.3182Z" fill="#F2F2F1" stroke="#2F294C" stroke-width="2" stroke-miterlimit="10" stroke-linecap="round"/>
<path d="M65.1737 69.512L62.7771 72.4587" stroke="#2F294C" stroke-width="0.75" stroke-miterlimit="10" stroke-linecap="round"/>
<path d="M66.8906 70.236L64.7058 73.8879" stroke="#2F294C" stroke-width="0.75" stroke-miterlimit="10" stroke-linecap="round"/>
<path d="M68.462 70.8651L67.0139 74.634" stroke="#2F294C" stroke-width="0.75" stroke-miterlimit="10" stroke-linecap="round"/>
<path d="M70.3591 70.9663L69.9607 74.6941" stroke="#2F294C" stroke-width="0.75" stroke-miterlimit="10" stroke-linecap="round"/>
<path d="M75.233 68.5722L76.0713 68.8028C76.4165 68.8978 76.7733 68.6949 76.8682 68.3498L77.5357 65.9231C77.6306 65.578 77.4278 65.2212 77.0826 65.1263L76.2443 64.8957C75.8992 64.8007 75.5424 65.0036 75.4475 65.3487L74.78 67.7754C74.685 68.1205 74.8879 68.4773 75.233 68.5722Z" fill="#30234C"/>
<path d="M70.1601 54.114C70.1601 54.114 60.8549 66.5715 44.7772 62.0975L46.3265 73.9005C46.3265 73.9005 45.8997 75.1652 43.2785 76.1422C43.2785 76.1422 43.0857 64.6333 40.1168 59.9602C37.1478 55.287 47.2814 40.18 57.4086 41.9791C57.4086 41.9791 73.6507 31.64 84.6632 52.4983C84.6632 52.4983 92.7099 67.1216 83.4491 69.338C83.4491 69.338 83.6293 58.7903 75.358 54.6547C75.358 54.6547 72.3923 64.0041 66.1889 64.276C66.192 64.276 69.5435 61.7561 70.1601 54.114Z" fill="url(#paint4_linear)"/>
<path d="M43.7324 72.1049C45.6982 71.9798 47.1417 69.5192 46.9565 66.6089C46.7714 63.6986 45.0277 61.4408 43.062 61.5658C41.0962 61.6909 39.6528 64.1515 39.8379 67.0618C40.0231 69.9721 41.7667 72.2299 43.7324 72.1049Z" fill="#FCAE9C"/>
<path d="M41.8081 63.5899C41.8081 63.5899 45.9501 62.6414 44.7011 70.1095" stroke="#30234C" stroke-width="3" stroke-miterlimit="10" stroke-linecap="round"/>
<path d="M41.6348 66.3628C41.6348 66.3628 43.2979 64.5732 44.923 67.2702" stroke="#30234C" stroke-width="3" stroke-miterlimit="10" stroke-linecap="round"/>
<path d="M46.1845 287.549L42.7571 185.328L48.385 179.662" stroke="#30234C" stroke-width="3" stroke-miterlimit="10"/>
<path d="M46.1204 289.3V303.01" stroke="#E6E6E6" stroke-width="3" stroke-miterlimit="10" stroke-linecap="round"/>
<path d="M57.8326 92.4318C57.8326 92.4318 57.899 85.5423 49.9439 96.735C49.9439 96.735 46.4375 90.2818 49.9439 82.0106" stroke="#E6E6E6" stroke-width="3" stroke-miterlimit="10" stroke-linecap="round"/>
<path d="M61.2942 93.5036C61.2942 93.5036 65.003 86.0702 65.1358 101.209C65.1358 101.209 70.1946 97.9838 70.8017 87.1737" stroke="#E6E6E6" stroke-width="3" stroke-miterlimit="10" stroke-linecap="round"/>
<path d="M58.6642 95.603L38.3022 169.01" stroke="#E6E6E6" stroke-width="3" stroke-miterlimit="10" stroke-linecap="round"/>
<path d="M61.0917 5.06842L54.7966 8.53058" stroke="#30234C" stroke-width="3" stroke-miterlimit="10" stroke-linecap="round"/>
<path d="M64.2381 10.0576L57.4497 13.0234" stroke="#30234C" stroke-width="3" stroke-miterlimit="10" stroke-linecap="round"/>
<path d="M61.3603 18.0602H57.9329C57.9329 18.0602 52.9405 14.9584 48.2673 19.0466" stroke="#30234C" stroke-width="3" stroke-miterlimit="10" stroke-linecap="round"/>
<path d="M128.157 74.8933L131.891 73.0374" stroke="#30234C" stroke-width="3" stroke-miterlimit="10" stroke-linecap="round"/>
<path d="M130.711 78.6083L134.448 76.7492" stroke="#30234C" stroke-width="3" stroke-miterlimit="10" stroke-linecap="round"/>
<defs>
<linearGradient id="paint0_linear" x1="34.6186" y1="-14.873" x2="51.022" y2="11.9706" gradientUnits="userSpaceOnUse">
<stop stop-color="#FB7C69"/>
<stop offset="0.26" stop-color="#FB816E"/>
<stop offset="0.58" stop-color="#FB907D"/>
<stop offset="0.93" stop-color="#FCA896"/>
<stop offset="1" stop-color="#FCAE9C"/>
</linearGradient>
<linearGradient id="paint1_linear" x1="-20.7886" y1="221.199" x2="34.0179" y2="221.199" gradientUnits="userSpaceOnUse">
<stop stop-color="#466BF5"/>
<stop offset="0.26" stop-color="#7791F1"/>
<stop offset="0.61" stop-color="#B1BEEB"/>
<stop offset="0.86" stop-color="#D5DAE8"/>
<stop offset="1" stop-color="#E3E5E7"/>
</linearGradient>
<linearGradient id="paint2_linear" x1="-29.4808" y1="111.659" x2="37.429" y2="134.006" gradientUnits="userSpaceOnUse">
<stop stop-color="#33224D"/>
<stop offset="0.25" stop-color="#322352"/>
<stop offset="0.53" stop-color="#2D275F"/>
<stop offset="0.83" stop-color="#262D76"/>
<stop offset="1" stop-color="#213287"/>
</linearGradient>
<linearGradient id="paint3_linear" x1="62.0497" y1="82.8294" x2="57.5694" y2="96.482" gradientUnits="userSpaceOnUse">
<stop stop-color="#FB7C69"/>
<stop offset="1" stop-color="#FCAE9C"/>
</linearGradient>
<linearGradient id="paint4_linear" x1="30.3848" y1="21.1619" x2="60.2732" y2="59.1223" gradientUnits="userSpaceOnUse">
<stop stop-color="#33224D"/>
<stop offset="0.25" stop-color="#302455"/>
<stop offset="0.63" stop-color="#292A6C"/>
<stop offset="1" stop-color="#213287"/>
</linearGradient>
</defs>
</svg>
