<svg width="165" height="273" viewBox="0 0 165 273" fill="none" xmlns="http://www.w3.org/2000/svg">
<path d="M92.2115 235.64L88.1213 250.362L61.1658 246.036C62.9244 241.84 64.7401 236.642 66.5586 230.825L92.2115 235.64Z" fill="#E3E5E5"/>
<path d="M88.133 250.362L83.4128 267.338L37.4856 272.016C37.4856 272.016 44.5658 268.829 56.3775 254.855C57.8882 253.067 59.5129 250.012 61.1661 246.039L88.133 250.362Z" fill="#383E8F"/>
<path d="M121.57 130.075L92.2115 235.643L87.5797 234.773L66.5586 230.831C70.797 217.265 75.0297 200.412 78.49 185.542L78.4301 185.279L80.9185 175.728L80.4282 174.502L82.2895 169.797L85.9778 163.505L76.4235 165.505L73.9466 169.307C75.4829 170.227 76.3124 171.305 76.7513 172.273C77.156 173.131 77.3014 174.085 77.1703 175.023L77.3698 180.741C77.3698 180.741 76.7656 181.354 75.691 182.319L75.3204 182.652C69.2635 188.015 51.1098 201.984 39.2667 188.72C24.8811 172.605 78.795 113.854 78.795 113.854C97.5986 132.702 121.57 130.075 121.57 130.075Z" fill="url(#paint0_linear)"/>
<path d="M77.1738 175.034C77.1738 175.034 77.2935 172.877 73.9473 169.313C77.875 171.663 77.1738 175.034 77.1738 175.034Z" fill="#383E8F"/>
<path d="M77.1736 175.034C77.1736 175.034 76.5038 175.618 75.3152 176.539C74.5428 172.328 72.1257 171.556 72.1257 171.556L73.9471 169.318C77.8748 171.663 77.1736 175.034 77.1736 175.034Z" fill="#E3E5E5"/>
<path d="M158.031 169.659C157.994 169.799 157.947 169.937 157.892 170.071L152.961 181.969C152.619 182.793 151.957 183.45 151.122 183.796C150.287 184.142 149.346 184.148 148.506 183.813L148.369 183.76C147.793 183.529 147.291 183.148 146.919 182.659C146.547 182.169 146.318 181.589 146.257 180.982C145.699 181.042 145.134 180.964 144.615 180.755L144.481 180.702C143.811 180.434 143.244 179.966 142.863 179.362C142.481 178.759 142.304 178.053 142.358 177.345C141.712 177.467 141.045 177.403 140.436 177.16L140.3 177.107C139.883 176.941 139.504 176.696 139.185 176.386C138.865 176.076 138.61 175.708 138.435 175.302C138.261 174.895 138.169 174.459 138.166 174.018C138.163 173.577 138.249 173.14 138.418 172.731C138.418 172.731 143.187 161.482 143.398 160.799C146.667 150.115 153.012 121.701 138.749 94.6333L144.13 72.2993C144.13 72.2993 179.628 123.853 158.031 169.659Z" fill="#F6B7AA"/>
<path d="M101.236 177.605L87.5914 234.773L66.5588 230.831L78.4304 185.279V185.276L80.9188 175.725L101.236 177.605Z" fill="url(#paint1_linear)"/>
<path d="M78.2766 180.461C78.2766 180.461 77.9916 180.993 77.5812 181.639L77.3731 180.752C77.3731 180.752 76.7688 181.365 75.6943 182.33L75.3237 182.663C75.4868 180.625 75.4868 178.577 75.3237 176.539C75.3237 176.539 75.6544 170.871 76.7489 172.272C77.8491 173.708 78.2766 180.461 78.2766 180.461Z" fill="#E3E5E5"/>
<path d="M82.2898 169.794L80.4286 174.499L80.9188 175.725L78.4305 185.276L77.5754 181.639L77.3673 180.752L77.564 176.29C77.6176 175.138 77.4304 173.988 77.0139 172.91C76.9341 172.709 76.8486 172.499 76.7488 172.284C76.3098 171.316 75.4804 170.238 73.9441 169.318L76.421 165.516L85.9781 163.504L82.2898 169.794Z" fill="#383E8F"/>
<path d="M124.292 133.978L115.202 178.36C114.302 178.748 113.416 179.1 112.546 179.415C111.676 179.73 110.803 180.01 109.929 180.254C109.008 180.523 108.107 180.754 107.227 180.948C106.372 181.141 105.517 181.295 104.688 181.418C89.1135 183.76 80.058 174.983 80.058 174.983L81.1981 171.699C65.4245 171.251 55.6393 155.086 51.2869 145.733L51.2612 145.678C50.8821 144.866 50.5458 144.105 50.2522 143.411V143.389C49.8247 142.385 49.4826 141.526 49.2261 140.849C49.1672 140.692 49.113 140.547 49.0636 140.412C48.7786 139.646 48.6389 139.212 48.6389 139.212L75.4605 115.874L76.2158 116.621L76.5008 116.917L78.0371 118.442L78.6813 119.08L79.773 120.16L80.3744 120.756L94.589 134.856L113.971 134.28L116.437 134.207L119.005 134.129L121.465 134.053L124.292 133.978Z" fill="#EA5E59"/>
<path d="M121.787 132.383L121.456 134.062L112.546 179.412C111.657 179.734 110.784 180.017 109.929 180.268L119.005 134.129L119.444 131.891L121.787 132.383Z" fill="#E1D035"/>
<path d="M116.973 131.381L116.403 134.21L107.227 180.962C106.361 181.149 105.514 181.305 104.688 181.432L113.951 134.285L114.618 130.889L116.973 131.381Z" fill="#D9D031"/>
<path d="M51.2495 145.683L79.177 121.777L80.3655 120.761L87.0039 115.076L85.4277 113.299L78.6725 119.085L77.4411 120.137L50.2405 143.417V143.42L51.2495 145.683Z" fill="#DCCF36"/>
<path d="M76.4922 116.923L74.9359 118.254L49.0436 140.418C48.7586 139.651 48.6189 139.218 48.6189 139.218L75.4404 115.879L76.1958 116.626L76.4922 116.923Z" fill="#DDCD34"/>
<path d="M79.2004 118.017C79.7705 118.929 80.3406 119.802 80.9106 120.635C80.3235 119.813 79.7534 118.94 79.2004 118.017Z" fill="#F6B7AA"/>
<path d="M100.071 56.6322C99.9852 60.2077 98.5999 64.8798 96.4907 69.9828L100.002 82.4074C100.002 82.4074 93.7316 76.1266 82.527 96.2197C71.3224 116.313 47.3768 116.755 47.3768 116.755L18.3491 118.025L31.8426 99.0006C65.9011 104.386 85.4286 76.6665 91.7478 65.6464C92.2922 64.0959 93.0601 62.6299 94.028 61.2932C95.5505 59.2079 97.6465 57.5912 100.071 56.6322Z" fill="url(#paint2_linear)"/>
<path d="M132.074 62.3564L108.459 73.9445L107.139 55.4293C107.461 55.4293 107.783 55.4573 108.105 55.4796C109.416 55.5692 111.756 55.1663 111.665 51.1152L130.121 54.9537C130.121 54.9537 125.219 61.1422 130.121 61.8724C130.784 61.9805 131.437 62.1424 132.074 62.3564Z" fill="url(#paint3_linear)"/>
<path d="M145.327 89.5474C143.497 94.8322 141.223 100.738 138.923 106.434C138.848 106.462 138.774 106.49 138.7 106.513C138.555 106.563 138.415 106.608 138.27 106.65L138.062 106.706C127.211 109.394 135.97 78.3622 139.903 66.858C144.683 71.3707 148.884 79.277 145.327 89.5474Z" fill="url(#paint4_linear)"/>
<path d="M138.724 106.401L138.946 106.319L136.78 111.28L129.534 130.682C129.247 131.251 128.849 131.76 128.363 132.179C127.223 133.088 125.692 133.393 124.315 133.857C115.804 136.764 93.5687 142.08 80.9674 123.931C80.9582 123.919 80.9505 123.906 80.9446 123.892C80.3746 123.019 79.8045 122.104 79.2344 121.147L72.2483 111.129C72.2483 111.129 81.3579 98.1222 89.0766 84.0498C89.3958 83.4623 89.7179 82.872 90.0343 82.2788C95.1649 72.7023 99.4404 62.8684 99.5915 56.5036C99.9706 56.3498 100.352 56.2239 100.732 56.098C101.594 55.8281 102.478 55.6269 103.374 55.4965C103.756 55.4405 104.132 55.3986 104.514 55.365L107.156 55.1384L108.487 73.827L132.108 62.2389C133.832 62.8099 135.477 63.592 137.002 64.5666C137.498 64.88 137.991 65.2157 138.484 65.5794C139.171 66.0821 139.826 66.6239 140.448 67.202C140.046 68.4134 139.006 71.628 138.008 75.4525C133.864 89.0744 129.258 108.765 138.082 106.577L138.29 106.521L138.724 106.401Z" fill="#EA5E59"/>
<path d="M136.993 64.5695L105.178 80.4464L103.368 55.5133C103.75 55.4574 104.126 55.4154 104.508 55.3818C105.39 55.311 106.277 55.2932 107.161 55.3287L108.481 73.8439L132.102 62.2558C133.825 62.8226 135.468 63.6 136.993 64.5695Z" fill="#D9CC45"/>
<path d="M138.724 106.401L138.946 106.319L136.78 111.28C134.422 112.077 122.069 114.31 138.476 65.5822C139.127 66.0597 139.752 66.5725 140.345 67.1181L140.44 67.2048C140.038 68.4162 138.997 71.6336 138 75.4552C133.855 89.0772 129.249 108.767 138.074 106.58L138.282 106.524L138.724 106.401Z" fill="#DBCC42"/>
<path d="M100.725 56.1006C100.725 56.1006 99.9245 74.8816 89.0762 84.0497C89.3954 83.4621 89.7175 82.8718 90.0339 82.2787C95.1644 72.7022 99.4399 62.8683 99.591 56.5035L100.725 56.1006Z" fill="#E1CF2A"/>
<path d="M102.644 88.126L92.064 95.8141L111.267 104.716" stroke="#D6DA2C" stroke-width="9" stroke-miterlimit="10"/>
<path d="M108.162 90.9349L98.5564 114.005" stroke="#D6DA2C" stroke-width="9" stroke-miterlimit="10"/>
<path d="M123.412 134.201C127.118 128.681 132.365 110.141 132.365 110.141" stroke="#D6DA2C" stroke-width="4" stroke-miterlimit="10" stroke-linecap="round"/>
<path d="M47.0227 120.775C47.023 121.673 46.9697 122.57 46.8631 123.461C46.7814 124.168 46.6655 124.866 46.5154 125.556C45.2287 131.506 41.6029 136.718 36.4252 140.06C35.8894 140.407 35.3364 140.734 34.7721 141.039C30.1256 143.518 24.7652 144.393 19.5513 143.523C18.6652 143.377 17.7886 143.18 16.9262 142.933C14.4729 142.233 12.154 141.142 10.0626 139.702C9.49254 139.321 8.95953 138.916 8.43792 138.482C5.89768 136.4 3.83411 133.814 2.38226 130.895C0.930423 127.976 0.123051 124.789 0.012999 121.542C-0.0970527 118.295 0.492697 115.062 1.74364 112.055C2.99459 109.047 4.87853 106.333 7.27214 104.09C7.7966 103.595 8.34386 103.129 8.91393 102.691C12.5677 99.8396 17.0046 98.1224 21.6577 97.7586C22.2705 97.7138 22.8862 97.6886 23.5104 97.6886C27.7768 97.6826 31.9637 98.8213 35.6186 100.982C36.221 101.336 36.8043 101.717 37.3687 102.126C40.3633 104.266 42.7991 107.071 44.4771 110.313C46.155 113.554 47.0274 117.139 47.0227 120.775Z" fill="url(#paint5_linear)"/>
<path d="M12.5165 127.543C12.4509 128.239 12.3711 128.917 12.2856 129.577C11.8329 133.006 11.0893 136.391 10.0624 139.699C9.4923 139.318 8.95929 138.913 8.43768 138.479C9.31188 135.519 9.95132 132.497 10.3502 129.44C10.4377 128.748 10.5127 128.067 10.5754 127.397C11.5616 116.579 9.0619 108.373 7.26904 104.087C7.7935 103.593 8.34077 103.126 8.91083 102.688C12.7588 111.515 13.2177 120.375 12.5165 127.543Z" fill="white"/>
<path d="M33.7347 128.402C34.2349 132.366 35.1363 136.271 36.4254 140.06C35.8896 140.407 35.3366 140.734 34.7722 141.039C33.3457 137.038 32.3558 132.899 31.8193 128.693C31.7395 128.071 31.6654 127.436 31.6027 126.787C30.8787 119.365 31.3918 110.127 35.6188 100.99C36.2212 101.344 36.8045 101.726 37.3689 102.134C35.6074 105.961 32.4806 114.654 33.5352 126.502C33.5884 127.127 33.6549 127.76 33.7347 128.402Z" fill="white"/>
<path d="M46.8628 123.461C46.7811 124.168 46.6652 124.866 46.5151 125.556C42.3178 126.76 38.0496 127.71 33.7342 128.402C33.1071 128.506 32.4687 128.599 31.8188 128.681C29.1794 129.062 26.3633 129.364 23.4132 129.54C22.5334 129.596 21.6412 129.639 20.7367 129.669C18.0061 129.758 15.1786 129.736 12.2855 129.568C11.6452 129.533 11 129.487 10.3502 129.431C7.28731 129.187 4.24171 128.767 1.22914 128.172C0.971971 127.426 0.754106 126.666 0.576416 125.898C3.87134 126.621 7.21173 127.127 10.5753 127.414C11.2053 127.467 11.8523 127.518 12.5164 127.557C15.1159 127.722 17.9748 127.786 21.0674 127.694C21.9225 127.669 22.8089 127.629 23.7068 127.579C26.2122 127.434 28.8516 127.185 31.6107 126.799C32.2492 126.712 32.8934 126.614 33.5432 126.519C38.0477 125.792 42.4975 124.771 46.8628 123.461Z" fill="white"/>
<path d="M23.6984 127.568C23.6129 128.225 23.5179 128.886 23.4134 129.552C22.6629 134.336 21.3674 139.023 19.5512 143.523C18.665 143.378 17.7885 143.18 16.926 142.933C18.675 138.662 19.9526 134.219 20.7369 129.68C20.8538 129.029 20.9592 128.363 21.059 127.683C22.2305 119.617 22.2134 109.593 19.2291 98.0804C20.0325 97.9345 20.8431 97.8299 21.6576 97.767C23.1055 103.22 25.3801 114.562 23.6984 127.568Z" fill="white"/>
<path d="M80.0581 174.989L87.5915 145.319C87.5915 145.319 84.3906 140.787 83.8262 136.697" stroke="#33224D" stroke-width="4" stroke-miterlimit="10" stroke-linecap="round"/>
<path d="M72.1255 172.354C72.1255 172.354 60.9437 185.782 58.2273 186.174" stroke="#33224D" stroke-width="4" stroke-miterlimit="10" stroke-linecap="round"/>
<path d="M76.4927 116.923C76.4927 116.923 83.9035 129.193 94.9057 133.84C105.908 138.487 122.232 134.531 122.232 134.531" stroke="#33224D" stroke-width="4" stroke-miterlimit="10" stroke-linecap="round"/>
<path d="M155.891 169.673C155.891 169.673 153.634 177.031 150.652 175.389C147.671 173.747 151.014 169.033 151.014 169.033" stroke="#33224D" stroke-width="4" stroke-miterlimit="10" stroke-linecap="round"/>
<path d="M146.647 180.268L148.614 175.627" stroke="#33224D" stroke-width="4" stroke-miterlimit="10" stroke-linecap="round"/>
<path d="M142.645 176.461C142.645 176.461 143.882 174.888 145.193 169.889" stroke="#33224D" stroke-width="4" stroke-miterlimit="10" stroke-linecap="round"/>
<path d="M141.391 100.195C141.391 100.195 141.038 97.8733 138.749 94.6308" stroke="#33224D" stroke-width="4" stroke-miterlimit="10" stroke-linecap="round"/>
<path d="M106.563 5.78405C106.563 5.78405 100.595 -3.19657 80.0724 27.6061C59.5501 58.4088 51.8342 44.4203 51.8342 44.4203L55.9102 53.4205C55.9102 53.4205 64.9343 56.9904 69.1556 47.8475C69.1556 47.8475 69.0103 60.2777 57.9482 56.5623L61.0037 62.5634C61.0037 62.5634 74.5399 73.7066 86.4742 58.42C98.4085 43.1333 95.2332 36.237 95.2332 36.237L105.107 17.4197L106.563 5.78405Z" fill="url(#paint6_linear)"/>
<path d="M152.031 29.3547C152.031 34.4548 150.491 39.4403 147.604 43.6809C144.717 47.9214 140.614 51.2265 135.814 53.1782C131.013 55.13 125.731 55.6406 120.635 54.6456C115.539 53.6507 110.857 51.1947 107.183 47.5885C103.509 43.9822 101.007 39.3875 99.9933 34.3854C98.9796 29.3833 99.4999 24.1985 101.488 19.4867C103.477 14.7748 106.844 10.7476 111.164 7.91411C115.485 5.08066 120.564 3.56831 125.76 3.56831C129.214 3.55499 132.636 4.21289 135.83 5.50406C139.023 6.79523 141.925 8.69413 144.367 11.0913C146.809 13.4884 148.744 16.3364 150.059 19.4709C151.375 22.6055 152.045 25.9647 152.031 29.3547Z" fill="#F6B7AA"/>
<path d="M115.305 46.7397C119.819 46.7397 123.477 43.0271 123.477 38.4473C123.477 33.8675 119.819 30.1549 115.305 30.1549C110.792 30.1549 107.134 33.8675 107.134 38.4473C107.134 43.0271 110.792 46.7397 115.305 46.7397Z" fill="#F19CB5"/>
<path d="M151.655 33.7106C150.813 38.5728 148.562 43.094 145.171 46.7339C145.097 46.7339 145.026 46.7339 144.951 46.7339C140.437 46.7339 136.78 43.0214 136.78 38.4415C136.775 36.7949 137.261 35.1828 138.176 33.8029C138.674 33.0578 139.291 32.3964 140.003 31.8445C141.412 30.7531 143.156 30.1615 144.951 30.1659C146.28 30.1702 147.586 30.496 148.756 31.1142C149.925 31.7325 150.921 32.6243 151.655 33.7106Z" fill="#F19CB5"/>
<path d="M121.619 28.5491H121.462C120.908 28.5491 120.458 28.99 120.458 29.5339V32.9415C120.458 33.4854 120.908 33.9263 121.462 33.9263H121.619C122.173 33.9263 122.622 33.4854 122.622 32.9415V29.5339C122.622 28.99 122.173 28.5491 121.619 28.5491Z" fill="#30234C"/>
<path d="M139.057 28.5491H138.792C138.268 28.5491 137.843 28.9662 137.843 29.4807V32.9946C137.843 33.5091 138.268 33.9263 138.792 33.9263H139.057C139.581 33.9263 140.006 33.5091 140.006 32.9946V29.4807C140.006 28.9662 139.581 28.5491 139.057 28.5491Z" fill="#30234C"/>
<path d="M135.252 38.0473C135.896 38.0473 136.344 38.8139 136.107 39.5105C135.201 42.0284 132.875 43.8273 130.147 43.8273C127.419 43.8273 125.091 42.0312 124.184 39.5105C123.936 38.8139 124.387 38.0473 125.039 38.0473H135.252Z" fill="#EA5B59"/>
<path d="M120.458 14.4765C120.458 14.4765 112.628 32.6616 101.224 31.6152L96.5239 27.6173C96.5239 27.6173 97.6042 -0.214179 124.098 0.00124415C150.592 0.216667 157.23 32.9777 152.031 29.3547C150.808 28.5154 141.055 22.0807 137.563 13.2511C137.563 13.2511 140.379 19.5516 137.355 24.3888C136.886 25.1352 136.23 25.7511 135.45 26.1777C134.669 26.6043 133.79 26.8274 132.897 26.8256H130.121C130.121 26.8256 138.957 25.1833 132.686 12.644C132.686 12.644 136.468 24.0978 126.381 26.5262C125.671 26.6929 124.945 26.7792 124.215 26.7836L121.333 26.8172C121.333 26.8172 126.957 25.4463 127.447 12.8595C127.447 12.8595 123.953 26.6493 116.314 26.8256L113.766 26.7864C113.766 26.7864 117.984 26.8116 120.458 14.4765Z" fill="url(#paint7_linear)"/>
<path d="M97.8526 38.0471C99.7684 38.0471 101.321 35.7123 101.321 32.8322C101.321 29.9521 99.7684 27.6173 97.8526 27.6173C95.9368 27.6173 94.3838 29.9521 94.3838 32.8322C94.3838 35.7123 95.9368 38.0471 97.8526 38.0471Z" fill="#F6B7AA"/>
<path d="M96.145 30.3731C96.145 30.3731 99.7193 28.479 99.5654 35.6579" stroke="#23274C" stroke-width="4" stroke-miterlimit="10" stroke-linecap="round"/>
<path d="M99.2175 32.1859C99.2175 32.1859 96.8603 31.9453 96.5239 33.6239" stroke="#23274C" stroke-width="4" stroke-miterlimit="10" stroke-linecap="round"/>
<defs>
<linearGradient id="paint0_linear" x1="33.0502" y1="153.911" x2="110.039" y2="188.672" gradientUnits="userSpaceOnUse">
<stop stop-color="#ED7691"/>
<stop offset="0.01" stop-color="#ED7892"/>
<stop offset="0.11" stop-color="#F08F9B"/>
<stop offset="0.23" stop-color="#F3A1A2"/>
<stop offset="0.38" stop-color="#F5AEA6"/>
<stop offset="0.57" stop-color="#F6B5A9"/>
<stop offset="1" stop-color="#F6B7AA"/>
</linearGradient>
<linearGradient id="paint1_linear" x1="68.0239" y1="199.973" x2="101.393" y2="209.235" gradientUnits="userSpaceOnUse">
<stop stop-color="#ED7691"/>
<stop offset="0.01" stop-color="#ED7892"/>
<stop offset="0.11" stop-color="#F08F9B"/>
<stop offset="0.23" stop-color="#F3A1A2"/>
<stop offset="0.38" stop-color="#F5AEA6"/>
<stop offset="0.57" stop-color="#F6B5A9"/>
<stop offset="1" stop-color="#F6B7AA"/>
</linearGradient>
<linearGradient id="paint2_linear" x1="38.176" y1="64.8267" x2="92.3221" y2="124.925" gradientUnits="userSpaceOnUse">
<stop offset="0.25" stop-color="#ED7691"/>
<stop offset="0.33" stop-color="#F08C99"/>
<stop offset="0.44" stop-color="#F39FA1"/>
<stop offset="0.56" stop-color="#F5ADA6"/>
<stop offset="0.72" stop-color="#F6B5A9"/>
<stop offset="1" stop-color="#F6B7AA"/>
</linearGradient>
<linearGradient id="paint3_linear" x1="114.744" y1="73.7486" x2="122.114" y2="50.361" gradientUnits="userSpaceOnUse">
<stop stop-color="#F6B7AA"/>
<stop offset="0.24" stop-color="#F5B3A8"/>
<stop offset="0.5" stop-color="#F4A6A4"/>
<stop offset="0.75" stop-color="#F1919B"/>
<stop offset="1" stop-color="#ED7691"/>
</linearGradient>
<linearGradient id="paint4_linear" x1="132.666" y1="85.3201" x2="146.754" y2="89.4721" gradientUnits="userSpaceOnUse">
<stop stop-color="#ED7691"/>
<stop offset="0.09" stop-color="#EF8396"/>
<stop offset="0.27" stop-color="#F29A9F"/>
<stop offset="0.48" stop-color="#F4AAA5"/>
<stop offset="0.7" stop-color="#F6B4A9"/>
<stop offset="1" stop-color="#F6B7AA"/>
</linearGradient>
<linearGradient id="paint5_linear" x1="-5.76809" y1="123.33" x2="57.211" y2="117.622" gradientUnits="userSpaceOnUse">
<stop stop-color="#A44217"/>
<stop offset="0.13" stop-color="#BD4B1B"/>
<stop offset="0.27" stop-color="#D1521E"/>
<stop offset="0.43" stop-color="#DF5620"/>
<stop offset="0.64" stop-color="#E75922"/>
<stop offset="1" stop-color="#E95A22"/>
</linearGradient>
<linearGradient id="paint6_linear" x1="56.865" y1="23.4991" x2="107.22" y2="44.5535" gradientUnits="userSpaceOnUse">
<stop stop-color="#594494"/>
<stop offset="0.33" stop-color="#584391"/>
<stop offset="0.54" stop-color="#533F89"/>
<stop offset="0.71" stop-color="#4B387A"/>
<stop offset="0.86" stop-color="#402F66"/>
<stop offset="1" stop-color="#32234C"/>
</linearGradient>
<linearGradient id="paint7_linear" x1="87.4029" y1="15.8278" x2="161.594" y2="15.8278" gradientUnits="userSpaceOnUse">
<stop stop-color="#32234C"/>
<stop offset="0.01" stop-color="#34254F"/>
<stop offset="0.14" stop-color="#413068"/>
<stop offset="0.28" stop-color="#4C397C"/>
<stop offset="0.44" stop-color="#533F8A"/>
<stop offset="0.64" stop-color="#584392"/>
<stop offset="1" stop-color="#594494"/>
</linearGradient>
</defs>
</svg>
